<ttFont>
          <CharString index="0">
            -19 -106 callsubr
          </CharString>
          <CharString index="1">
            39 -103 callgsubr
          </CharString>
          <CharString index="2">
            149 callgsubr
            -27 hvcurveto
            34 -17 -46 63 -81 -103 callsubr
            38 98 return
          </CharString>
          <CharString index="3">
            -17 44 -107 callsubr
          </CharString>
          <CharString index="4">
            -98 callgsubr
            39 -38 -35 16 -80 callgsubr
            return
          </CharString>
          <CharString index="5">
            -106 callgsubr
            99 hlineto
            -9 -17 -6 235 callgsubr
            -54 88 -34 vhcurveto
            6 3 11 17 3 10 rrcurveto
            -58 41 -12 31 29 vvcurveto
            45 35 27 36 57 22 -47 -51 -92 102 callsubr
            27 -24 hhcurveto
            -27 185 callgsubr
            44 8 9 -75 callgsubr
            rrcurveto
            89 34 104 86 111 vvcurveto
            44 -16 35 -25 26 vhcurveto
            return
          </CharString>
          <CharString index="6">
            -92 callsubr
            vhcurveto
            return
          </CharString>
          <CharString index="7">
            rmoveto
            -28 -33 -40 -18 -47 hhcurveto
            -56 -32 30 52 50 38 31 69 40 34 -8 -13 27 hvcurveto
            85 -147 rmoveto
            285 vlineto
            148 -109 33 -82 -98 -66 -45 -58 -42 31 -15 36 4 vhcurveto
            45 2 25 51 70 hhcurveto
            72 34 -47 -79 hvcurveto
            -69 vlineto
            7 -29 -35 4 -36 hhcurveto
            -155 -45 -75 -69 -86 60 -50 92 63 52 25 33 37 hvcurveto
            -34 8 22 -25 50 hhcurveto
            43 24 19 32 hvcurveto
            endchar
          </CharString>
          <CharString index="8">
            rmoveto
            87 295 85 -295 rlineto
            158 -225 rmoveto
            -191 624 -28 3 -20 0 -28 -3 rlinecurve
            -193 -54 callsubr
            -78 6 50 170 rlineto
            203 hlineto
            49 -172 -41 -90 callsubr
            204 85 callgsubr
          </CharString>
          <CharString index="9">
            rmoveto
            -36 -24 -24 -37 -28 19 -28 33 -4 hvcurveto
            -7 -25 -15 -34 -27 -18 rrcurveto
            -6 16 -17 8 4 vhcurveto
            42 18 52 71 66 vvcurveto
            37 -25 25 -36 vhcurveto
            return
          </CharString>
          <CharString index="10">
            27 -12 -100 callgsubr
            return
          </CharString>
          <CharString index="11">
            -17 43 -107 callsubr
          </CharString>
          <CharString index="12">
            hhcurveto
            52 41 16 17 29 -88 callgsubr
          </CharString>
          <CharString index="13">
            27 -11 29 -56 callsubr
            return
          </CharString>
          <CharString index="14">
            rmoveto
            434 -129 vlineto
            -38 5 -41 -10 hvcurveto
            78 -3 rlineto
            -337 vlineto
            -30 -35 -34 -19 -51 hhcurveto
            -71 -41 43 96 hvcurveto
            301 -127 vlineto
            -38 5 -41 -10 hvcurveto
            75 -3 rlineto
            -250 vlineto
            -153 93 -52 83 71 44 32 33 35 vhcurveto
            16 -54 127 11 rlineto
            13 1 35 -28 1 vhcurveto
            return
          </CharString>
          <CharString index="15">
            -29 14 -17 return
          </CharString>
          <CharString index="16">
            -77 callsubr
            rrcurveto
            -176 -1 callsubr
            -36 54 -25 30 hvcurveto
            return
          </CharString>
          <CharString index="17">
            -2 -40 -3 6 -39 -1 -10 rlinecurve
            return
          </CharString>
          <CharString index="18">
            -14 18 vhcurveto
            return
          </CharString>
          <CharString index="19">
            0 204 624 rmoveto
            241 -4 9 -115 rlineto
            10 -1 40 -4 35 vvcurveto
            144 -426 vlineto
            -39 4 -39 431 callsubr
            -7 -78 callsubr
            478 144 hlineto
            36 -40 -5 -10 -1 vhcurveto
            -9 -111 -38 callgsubr
            return
          </CharString>
          <CharString index="20">
            251 callgsubr
            -79 callgsubr
            return
          </CharString>
          <CharString index="21">
            rmoveto
            257 vlineto
            146 -86 52 -82 -73 -52 -39 -35 -38 vhcurveto
            -3 hlineto
            -11 71 -144 494 callsubr
            -31 29 -3 vhcurveto
            48 -5 rlineto
            -384 -40 callgsubr
            -71 6 rlineto
            322 vlineto
            39 45 37 22 58 hhcurveto
            69 35 -43 -87 hvcurveto
            -255 105 callgsubr
            196 -44 callsubr
            return
          </CharString>
          <CharString index="22">
            hlineto
            -101 callgsubr
            return
          </CharString>
          <CharString index="23">
            rmoveto
            1 hlineto
            61 2 rlineto
            91 4 74 -24 -111 vvcurveto
            -87 -59 -53 -120 -13 -18 1 1 -17 vhcurveto
            -131 319 rmoveto
            -29 -2 -29 -21 1 hvcurveto
            73 -6 rlineto
            -571 -82 callsubr
            210 hlineto
            36 -3 39 11 -1 hvcurveto
            -78 6 rlineto
            256 vlineto
            -2 21 21 0 18 hhcurveto
            1 hlineto
            -137 49 114 -188 90 hhcurveto
            37 26 28 40 3 hvcurveto
            -68 -96 94 169 -82 hvcurveto
            110 20 74 66 109 vvcurveto
            100 -60 70 -167 vhcurveto
            endchar
          </CharString>
          <CharString index="24">
            rmoveto
            -87 -57 32 55 32 19 33 27 27 hvcurveto
            25 -4 30 -1 34 -1 rrcurveto
            103 -4 72 -6 -57 vvcurveto
            -55 -60 -51 -106 vhcurveto
            -12 613 rmoveto
            65 2 32 -58 -66 vvcurveto
            -70 -36 -55 -62 -1 vhcurveto
            -63 -1 -34 55 70 vvcurveto
            69 36 54 62 1 vhcurveto
            109 29 rmoveto
            19 -29 -37 8 -36 hhcurveto
            -120 -71 -91 -105 5 hvcurveto
            3 -63 28 -50 49 -27 rrcurveto
            -28 -30 -22 -31 -33 vvcurveto
            -21 8 -14 13 -9 vhcurveto
            -40 -33 -32 -45 -51 vvcurveto
            -75 69 -59 128 146 96 79 117 96 -67 27 -149 3 vhcurveto
            -57 2 -38 1 -3 15 -1 7 7 17 16 20 rrcurveto
            -3 15 17 -2 17 hhcurveto
            115 65 80 103 3 hvcurveto
            1 47 -11 36 -19 27 31 -1 40 0 13 7 16 12 -5 39 -11 14 rrcurveto
            endchar
          </CharString>
          <CharString index="25">
            vlineto
            -41 -90 callsubr
            return
          </CharString>
          <CharString index="26">
            rmoveto
            -143 -87 -106 -172 1 hvcurveto
            -155 1 74 -91 136 hhcurveto
            149 83 108 165 -1 hvcurveto
            186 -1 -106 65 -106 hhcurveto
            -8 -59 rmoveto
            92 40 -94 -113 -117 -47 -82 -85 hvcurveto
            -89 -1 -43 86 116 vvcurveto
            117 46 87 86 1 vhcurveto
            return
          </CharString>
          <CharString index="27">
            -107 callgsubr
            147 28 callsubr
            5 -19 -22 3 -15 hhcurveto
            -54 -29 -23 -48 -92 147 -184 230 -30 hvcurveto
            11 16 13 32 272 callsubr
            return
          </CharString>
          <CharString index="28">
            220 callgsubr
            13 -17 vhcurveto
            return
          </CharString>
          <CharString index="29">
            rlineto
            -569 -82 callsubr
            return
          </CharString>
          <CharString index="30">
            -76 callsubr
            -34 86 callgsubr
            return
          </CharString>
          <CharString index="31">
            hlineto
            -75 callsubr
            return
          </CharString>
          <CharString index="32">
            -71 callsubr
            -107 195 callsubr
            return
          </CharString>
          <CharString index="33">
            hhcurveto
            -51 17 callsubr
            55 42 return
          </CharString>
          <CharString index="34">
            12 -22 22 10 39 29 10 17 -20 33 -40 43 -45 42 rrcurveto
            21 23 13 31 34 vvcurveto
            40 -18 28 302 callsubr
            -21 13 -18 vhcurveto
            -15 -22 -39 -5 -25 hhcurveto
            -75 -87 29 98 92 78 47 116 hvcurveto
            36 22 -5 11 hhcurveto
            13 2 26 480 callsubr
          </CharString>
          <CharString index="35">
            rmoveto
            -97 callsubr
            return
          </CharString>
          <CharString index="36">
            -7 -3 -20 -66 callgsubr
            return
          </CharString>
          <CharString index="37">
            -107 callgsubr
            318 478 callgsubr
            95 callgsubr
            -24 45 -36 hhcurveto
            -25 -33 2 callsubr
            57 -41 85 -74 hvcurveto
            84 callsubr
            35 17 99 hvcurveto
            63 16 -3 17 hhcurveto
            13 26 28 18 hvcurveto
            return
          </CharString>
          <CharString index="38">
            -80 callsubr
            -133 449 callsubr
            104 8 26 105 99 vvcurveto
            45 -7 43 -8 33 vhcurveto
            433 hlineto
            -10 -17 -5 -20 -22 vvcurveto
            -60 47 -53 85 -33 vhcurveto
            6 3 11 17 2 10 rrcurveto
            -57 40 -12 33 27 vvcurveto
            48 35 25 38 54 23 -43 -57 -87 -75 -77 -63 -15 vhcurveto
            26 -21 -31 26 -24 hhcurveto
            -25 -21 -33 -14 -12 hvcurveto
            -41 -34 -47 -42 -60 hhcurveto
            -41 -53 23 72 71 49 37 74 39 28 -9 -17 25 hvcurveto
            19 41 rlineto
            28 -23 -51 24 -63 hhcurveto
            -86 -87 -48 -103 -93 362 callsubr
            65 60 36 45 39 hvcurveto
            -7 13 13 -5 16 hhcurveto
            9 8 -75 callgsubr
            rrcurveto
            95 37 98 86 107 vvcurveto
            44 -16 36 -24 26 vhcurveto
            147 229 callsubr
          </CharString>
          <CharString index="39">
            hhcurveto
            52 126 callgsubr
          </CharString>
          <CharString index="40">
            rmoveto
            455 vlineto
            -161 -18 -5 callsubr
            -386 340 callgsubr
            return
          </CharString>
          <CharString index="41">
            hlineto
            38 -4 40 10 -1 hvcurveto
            return
          </CharString>
          <CharString index="42">
            -14 hvcurveto
            36 -51 35 -82 21 -46 21 7 38 29 8 14 -12 22 -41 54 -38 42 rrcurveto
            -1 5 5 0 5 hhcurveto
            124 85 65 83 return
          </CharString>
          <CharString index="43">
            -74 callsubr
            71 46 36 -7 callgsubr
            return
          </CharString>
          <CharString index="44">
            -30 -28 -44 -25 -62 hhcurveto
            -77 -52 154 callsubr
            100 24 47 90 callsubr
            return
          </CharString>
          <CharString index="45">
            -19 -1 -14 8 -12 36 -23 27 -5 rrcurveto
            79 return
          </CharString>
          <CharString index="46">
            0 2 8 hvcurveto
            52 -59 72 -102 36 -70 23 10 34 27 9 17 return
          </CharString>
          <CharString index="47">
            -44 callgsubr
            -28 45 -29 hhcurveto
            -26 -40 -24 -36 -39 54 -28 55 -65 callsubr
            return
          </CharString>
          <CharString index="48">
            rmoveto
            -43 -37 -53 -33 -52 -64 callsubr
            return
          </CharString>
          <CharString index="49">
            537 -83 callgsubr
            return
          </CharString>
          <CharString index="50">
            -107 callgsubr
            116 55 callgsubr
            return
          </CharString>
          <CharString index="51">
            -15 18 vhcurveto
            return
          </CharString>
          <CharString index="52">
            rmoveto
            -63 callsubr
            187 hlineto
            return
          </CharString>
          <CharString index="53">
            -626 -39 -90 callsubr
            183 -66 callsubr
            return
          </CharString>
          <CharString index="54">
            -19 39 vhcurveto
            261 vlineto
            50 34 56 59 165 callsubr
            -48 -33 hvcurveto
            14 -24 18 -25 27 -16 rrcurveto
            49 37 70 77 103 vvcurveto
            102 -73 69 -89 -56 -45 258 callgsubr
          </CharString>
          <CharString index="55">
            304 callgsubr
            121 -6 rlineto
            -157 vlineto
            -27 -30 -57 -18 -56 hhcurveto
            -157 -58 118 169 177 65 124 148 101 50 -42 -96 hvcurveto
            53 21 31 36 64 -62 65 -150 -213 -109 -157 -218 4 hvcurveto
            -211 3 100 -125 181 hhcurveto
            100 100 37 55 42 hvcurveto
            177 2 vlineto
            27 3 39 3 -5 28 callgsubr
            endchar
          </CharString>
          <CharString index="56">
            -78 62 -48 62 -27 vhcurveto
            10 8 9 13 3 13 rrcurveto
            -40 27 -24 31 45 vvcurveto
            51 30 25 callgsubr
            -32 -9 -36 16 callgsubr
            17 vhcurveto
            8 2 9 358 callgsubr
            -28 64 -85 hhcurveto
            return
          </CharString>
          <CharString index="57">
            42 -50 296 callgsubr
            10 17 -43 50 -14 hvcurveto
            return
          </CharString>
          <CharString index="58">
            hlineto
            -96 callsubr
          </CharString>
          <CharString index="59">
            rmoveto
            -126 vlineto
            -36 35 3 15 1 vhcurveto
            8 100 rlineto
            185 -567 hlineto
            -45 -90 callsubr
            213 304 callsubr
            -77 6 rlineto
            565 184 vlineto
            7 -100 rlineto
            16 -1 34 -3 36 vvcurveto
            126 vlineto
            endchar
          </CharString>
          <CharString index="60">
            rmoveto
            -314 -13 383 596 -2 14 -7 11 -8 8 rlinecurve
            -437 -197 hlineto
            23 -5 28 6 5 41 11 87 rcurveline
            269 9 -383 -591 3 -13 5 -11 6 -11 rlinecurve
            486 202 hlineto
            -25 4 -25 -6 -5 -39 rrcurveto
            endchar
          </CharString>
          <CharString index="61">
            hhcurveto
            40 36 -24 -51 -50 -41 -57 -54 -35 hvcurveto
            13 -23 20 -25 25 -16 rrcurveto
            56 38 return
          </CharString>
          <CharString index="62">
            -36 -23 -23 -38 -27 19 -26 31 -4 hvcurveto
            -6 -23 -15 -30 -26 -18 rrcurveto
            -6 16 -16 7 4 vhcurveto
            42 17 50 70 58 vvcurveto
            38 -24 24 -35 vhcurveto
            return
          </CharString>
          <CharString index="63">
            hlineto
            38 -4 38 10 -1 hvcurveto
            return
          </CharString>
          <CharString index="64">
            rmoveto
            -248 -6 rlineto
            570 1 vlineto
            50 3 40 2 -6 40 1 10 rlinecurve
            -213 346 callgsubr
            72 -6 rlineto
            -570 -82 callsubr
            473 150 hlineto
            35 -40 -4 -10 -1 vhcurveto
            endchar
          </CharString>
          <CharString index="65">
            -101 callsubr
            93 -35 callsubr
            return
          </CharString>
          <CharString index="66">
            -26 -62 hhcurveto
            -77 -52 154 callsubr
            100 23 47 62 72 395 callgsubr
            187 hlineto
            return
          </CharString>
          <CharString index="67">
            vlineto
            -31 callgsubr
          </CharString>
          <CharString index="68">
            52 135 callsubr
            40 -38 15 6 29 20 10 17 -55 47 -96 103 -44 73 36 3 return
          </CharString>
          <CharString index="69">
            41 20 26 35 hvcurveto
            -125 -89 callgsubr
          </CharString>
          <CharString index="70">
            hlineto
            -28 11 -101 callsubr
            return
          </CharString>
          <CharString index="71">
            82 callsubr
            40 36 -24 -51 -50 -40 -57 -54 -35 hvcurveto
            13 -23 20 -25 25 -16 rrcurveto
            55 216 callsubr
            -90 -39 -40 492 callsubr
          </CharString>
          <CharString index="72">
            -123 hlineto
            -143 56 -106 122 46 43 16 20 32 vhcurveto
            146 callsubr
            return
          </CharString>
          <CharString index="73">
            -29 619 285 rmoveto
            -59 -24 -69 -44 -64 hhcurveto
            -40 -54 23 68 71 53 37 66 32 37 -4 -21 28 hvcurveto
            16 35 rlineto
            31 -29 -46 26 -62 hhcurveto
            -83 -87 -47 -106 -90 71 -87 117 67 41 29 33 38 hvcurveto
            12 -52 rmoveto
            -28 -65 -90 -20 -79 hhcurveto
            -126 -114 46 78 -56 hvcurveto
            88 9 40 83 125 vvcurveto
            40 -5 41 -9 35 vhcurveto
            369 -41 callgsubr
            -598 489 callsubr
            18 -39 17 -55 -50 vvcurveto
            -19 -2 -27 -6 -21 vhcurveto
            4 -19 -21 4 -14 hhcurveto
            -50 -32 -22 -47 -93 117 -120 165 -26 hvcurveto
            -240 -64 3 -25 13 -32 13 -13 rlinecurve
            551 166 rlineto
            return
          </CharString>
          <CharString index="74">
            47 -96 -45 callgsubr
            return
          </CharString>
          <CharString index="75">
            83 callsubr
            37 -1 35 -2 33 -3 rrcurveto
            -211 -89 callgsubr
          </CharString>
          <CharString index="76">
            -42 callsubr
            268 vlineto
            51 35 55 59 62 hhcurveto
            return
          </CharString>
          <CharString index="77">
            537 -72 callsubr
            return
          </CharString>
          <CharString index="78">
            22 490 60 -93 callsubr
            return
          </CharString>
          <CharString index="79">
            165 callgsubr
            -81 -119 hlineto
            -87 -52 347 callsubr
            57 hvcurveto
            44 85 35 37 hhcurveto
            26 13 -14 -26 -52 -56 -56 -97 -82 return
          </CharString>
          <CharString index="80">
            25 -28 16 -30 -28 vvcurveto
            return
          </CharString>
          <CharString index="81">
            hlineto
            -13 callgsubr
            return
          </CharString>
          <CharString index="82">
            -6 callsubr
            1 18 rrcurveto
            return
          </CharString>
          <CharString index="83">
            -97 callgsubr
            82 197 rmoveto
            346 -41 callgsubr
            -789 -35 callgsubr
            284 286 callsubr
            47 -51 callgsubr
            41 60 76 vvcurveto
            105 -70 253 callgsubr
          </CharString>
          <CharString index="84">
            -94 -72 -97 -46 25 -38 28 -30 hvcurveto
            endchar
          </CharString>
          <CharString index="85">
            -33 408 537 rmoveto
            153 -70 callgsubr
            -571 -107 callgsubr
            336 -84 hlineto
            2 -17 -17 1 -19 hhcurveto
            -152 -88 -80 -118 -119 103 -104 131 -4 hvcurveto
            -109 -72 9 -22 25 -30 16 -12 rlinecurve
            189 164 30 -47 19 -42 28 -53 rlinecurve
            22 305 callgsubr
            -43 45 -44 40 rrcurveto
            22 25 12 30 34 vvcurveto
            40 -18 27 -31 -31 -57 -28 -44 -13 6 -21 13 -18 vhcurveto
            -13 -20 -31 -8 -35 461 callsubr
            18 -4 -1 14 hvcurveto
            11 2 27 27 19 vvcurveto
            return
          </CharString>
          <CharString index="86">
            12 callsubr
            326 callgsubr
            return
          </CharString>
          <CharString index="87">
            -76 29 -50 21 1 43 rrcurveto
            38 39 28 52 -1 vhcurveto
            58 -1 34 -36 -1 -45 rrcurveto
            30 -4 34 17 42 vvcurveto
            1 62 -76 22 -60 1 rrcurveto
            return
          </CharString>
          <CharString index="88">
            vvcurveto
            -96 70 -79 117 34 39 10 16 30 vhcurveto
            32 -46 22 266 callgsubr
            -17 30 -47 53 -39 183 callgsubr
            return
          </CharString>
          <CharString index="89">
            -28 12 -29 return
          </CharString>
          <CharString index="90">
            19 callsubr
            -21 41 57 -10 54 hhcurveto
            return
          </CharString>
          <CharString index="91">
            231 callgsubr
            -81 -61 -102 491 callsubr
            hvcurveto
            -127 vlineto
            -17 44 -19 39 vhcurveto
            return
          </CharString>
          <CharString index="92">
            hhcurveto
            53 41 16 17 28 hvcurveto
            -129 -89 callgsubr
          </CharString>
          <CharString index="93">
            -74 41 90 99 78 48 120 23 23 -3 -2 return
          </CharString>
          <CharString index="94" raw="1">
            b49b9ca8 f7100a0b  
          </CharString>
          <CharString index="95">
            rmoveto
            -26 callgsubr
            293 112 rmoveto
            354 -85 callsubr
            -829 -17 callgsubr
            261 412 callsubr
            59 61 8 callgsubr
            382 callsubr
          </CharString>
          <CharString index="96">
            73 callgsubr
            -16 45 callsubr
            30 9 -21 -20 -28 -15 71 callsubr
            -41 32 -63 return
          </CharString>
          <CharString index="97">
            -107 callgsubr
            93 146 callgsubr
            16 19 256 callgsubr
            38 vhcurveto
            return
          </CharString>
          <CharString index="98">
            vhcurveto
            4 -12 -20 5 -25 hhcurveto
            return
          </CharString>
          <CharString index="99">
            -2 -40 -3 -18 callgsubr
            return
          </CharString>
          <CharString index="100">
            30 -46 395 callsubr
            38 30 10 -54 callgsubr
            return
          </CharString>
          <CharString index="101">
            -14 callsubr
            14 hvcurveto
            10 4 20 21 return
          </CharString>
          <CharString index="102">
            rlineto
            -13 -1 -32 29 -3 vhcurveto
            48 -5 rlineto
            return
          </CharString>
          <CharString index="103">
            425 callsubr
            -213 hlineto
            -137 73 -52 62 -38 vhcurveto
            87 -54 113 -63 -35 vvcurveto
            -21 -27 -26 -36 -19 vhcurveto
            13 -23 22 -27 20 -14 rrcurveto
            38 37 32 34 62 vvcurveto
            97 -99 41 -103 62 vhcurveto
            -96 57 -18 23 74 vvcurveto
            endchar
          </CharString>
          <CharString index="104">
            33 callgsubr
            3 40 rrcurveto
            16 19 1 19 hhcurveto
            return
          </CharString>
          <CharString index="105">
            413 callgsubr
            -14 42 -49 296 callgsubr
            10 16 return
          </CharString>
          <CharString index="106">
            47 88 368 callsubr
            return
          </CharString>
          <CharString index="107">
            -92 callgsubr
            -775 -107 callgsubr
            550 -199 hlineto
            73 -77 -102 44 -89 hhcurveto
            -8 -3 -20 -24 -5 -16 rrcurveto
            35 -32 37 -36 -45 vvcurveto
            -39 -27 -20 -38 -88 -69 115 81 -31 vhcurveto
            66 callgsubr
            38 -15 34 -22 28 hvcurveto
            64 -15 77 -46 58 -61 -302 -186 rcurveline
            7 -21 26 -32 16 -10 256 180 rcurveline
            -168 -104 callgsubr
          </CharString>
          <CharString index="108">
            18 10 14 rrcurveto
            -38 323 callgsubr
            45 25 121 vhcurveto
            74 155 callsubr
          </CharString>
          <CharString index="109">
            -25 -36 -39 51 -27 53 -65 callsubr
            return
          </CharString>
          <CharString index="110" raw="1">
            1bbf7e0a 0b  
          </CharString>
          <CharString index="111">
            -41 528 611 rmoveto
            -564 -107 callgsubr
            563 -85 callsubr
            -470 -175 rmoveto
            66 callgsubr
            39 -18 36 -20 25 hvcurveto
            64 -14 77 -47 56 -62 -299 -185 rcurveline
            7 -21 26 -32 16 -10 332 233 rcurveline
            140 -77 -156 78 -111 hhcurveto
            -8 -3 -20 -24 -5 -16 rrcurveto
            35 -32 37 -36 -45 vvcurveto
            -39 -27 -20 -38 -88 -69 115 81 -31 vhcurveto
            return
          </CharString>
          <CharString index="112">
            rmoveto
            -141 vlineto
            17 -7 34 7 4 32 5 56 rcurveline
            184 5 -279 -409 1 -13 6 -15 6 -9 rlinecurve
            371 144 hlineto
            -17 7 -34 -7 -3 -32 -7 -56 rcurveline
            -216 -5 275 405 -2 12 -7 18 -8 8 rlinecurve
            return
          </CharString>
          <CharString index="113">
            -55 callsubr
            225 hmoveto
            27 -12 29 -14 18 vhcurveto
            return
          </CharString>
          <CharString index="114">
            224 -60 callgsubr
            return
          </CharString>
          <CharString index="115">
            -81 35 -82 31 76 vvcurveto
            62 55 34 71 82 37 -45 -74 vhcurveto
            37 -3 34 21 50 vvcurveto
            87 -108 27 -71 -2 vhcurveto
            return
          </CharString>
          <CharString index="116">
            -26 -33 -60 -35 -88 hhcurveto
            -161 -58 114 171 168 69 124 137 80 47 -47 -84 hvcurveto
            48 1 26 23 42 vvcurveto
            72 -80 56 -112 return
          </CharString>
          <CharString index="117">
            rmoveto
            -11 375 callsubr
            -165 107 callgsubr
            return
          </CharString>
          <CharString index="118">
            hlineto
            20 -44 15 -57 -53 vvcurveto
            -20 return
          </CharString>
          <CharString index="119">
            -2 -44 hvcurveto
            -58 102 callgsubr
            return
          </CharString>
          <CharString index="120">
            1 vlineto
            52 2 rlineto
            196 7 96 -82 -214 vvcurveto
            -200 -94 -89 -181 5 vhcurveto
            -194 627 rmoveto
            -34 -3 -26 -25 1 hvcurveto
            72 -6 rlineto
            return
          </CharString>
          <CharString index="121">
            hlineto
            -30 callgsubr
            return
          </CharString>
          <CharString index="122">
            280 callsubr
            -18 7 -40 116 callgsubr
            -65 31 -36 13 8 12 11 8 10 -34 42 284 callsubr
            return
          </CharString>
          <CharString index="123">
            -38 -32 callgsubr
            73 -6 rlineto
            return
          </CharString>
          <CharString index="124">
            -44 32 67 75 return
          </CharString>
          <CharString index="125">
            320 callsubr
            -60 -49 -92 hhcurveto
            -78 -14 callsubr
            return
          </CharString>
          <CharString index="126">
            -95 callgsubr
            rrcurveto
            return
          </CharString>
          <CharString index="127">
            -30 38 callgsubr
            return
          </CharString>
          <CharString index="128">
            217 callgsubr
            -45 89 callgsubr
            return
          </CharString>
          <CharString index="129">
            21 callsubr
            -440 197 rmoveto
            440 24 callgsubr
            -46 -42 -13 -24 -32 hvcurveto
            9 -20 -22 5 -25 hhcurveto
            -38 -40 -16 -33 -37 hvcurveto
            -83 -137 rmoveto
            -44 -36 -53 -33 -53 -64 callsubr
            605 197 rmoveto
            344 -85 callsubr
            return
          </CharString>
          <CharString index="130">
            rmoveto
            18 9 9 12 6 12 -165 129 rcurveline
            -28 -3 -30 -30 -11 -21 rrcurveto
            endchar
          </CharString>
          <CharString index="131">
            -99 callgsubr
            289 vlineto
            52 36 45 36 48 hhcurveto
            16 13 -3 -6 10 hvcurveto
            return
          </CharString>
          <CharString index="132">
            -34 -41 -44 -19 -49 hhcurveto
            -119 -33 97 99 112 44 86 91 70 25 -53 -44 1 hvcurveto
            30 -2 35 14 47 vvcurveto
            61 -57 40 -89 return
          </CharString>
          <CharString index="133">
            34 321 callgsubr
            -34 -30 -26 -26 -31 -31 26 -26 30 hvcurveto
            return
          </CharString>
          <CharString index="134">
            61 callsubr
            30 hvcurveto
            return
          </CharString>
          <CharString index="135">
            11 callsubr
            -1 -20 -4 -18 vhcurveto
            return
          </CharString>
          <CharString index="136">
            142 204 56 rmoveto
            253 168 56 -168 260 13 callsubr
            -259 -54 -56 54 -254 35 callsubr
          </CharString>
          <CharString index="137">
            39 callsubr
            vlineto
            endchar
          </CharString>
          <CharString index="138">
            -44 401 537 rmoveto
            148 hlineto
            32 callsubr
            192 callsubr
            hvcurveto
            188 callgsubr
            return
          </CharString>
          <CharString index="139">
            -97 callsubr
            -559 -107 callgsubr
            329 147 callgsubr
            -136 -98 -77 -123 return
          </CharString>
          <CharString index="140">
            -2 -45 hvcurveto
            -57 -4 -33 -18 -34 96 callsubr
            return
          </CharString>
          <CharString index="141">
            45 callsubr
            29 10 -21 -20 -28 -15 71 callsubr
            -41 32 return
          </CharString>
          <CharString index="142">
            vlineto
            -43 -4 -32 -2 0 -31 1 -18 rlinecurve
            257 hlineto
            220 122 119 227 224 -106 111 -238 hvcurveto
            endchar
          </CharString>
          <CharString index="143">
            245 rmoveto
            -30 -28 -44 -41 callsubr
            return
          </CharString>
          <CharString index="144">
            -47 -47 53 callgsubr
            return
          </CharString>
          <CharString index="145">
            161 callsubr
            15 11 40 35 vvcurveto
            1 42 36 -1 34 hhcurveto
            37 -1 35 -2 33 14 callgsubr
          </CharString>
          <CharString index="146">
            164 callsubr
            91 callgsubr
            75 232 callgsubr
            return
          </CharString>
          <CharString index="147">
            vvcurveto
            -125 100 -98 137 429 callsubr
            vhcurveto
            30 -46 19 -43 28 -53 22 305 callgsubr
            -44 46 -43 39 rrcurveto
            20 25 11 30 401 callsubr
            -30 269 callsubr
            -28 13 -18 vhcurveto
            -13 -20 -31 -8 -35 41 callgsubr
          </CharString>
          <CharString index="148">
            -25 callsubr
            endchar
          </CharString>
          <CharString index="149">
            -107 callgsubr
            147 78 callsubr
            return
          </CharString>
          <CharString index="150">
            -230 199 537 rmoveto
            164 -70 callgsubr
            -373 -107 callgsubr
            127 -170 hlineto
            -40 -30 -9 -16 -10 hvcurveto
            -3 -5 -2 -11 -11 194 callgsubr
            15 15 8 37 44 vvcurveto
            229 -27 rmoveto
            -358 -222 7 -22 25 -32 14 -9 rlinecurve
            332 231 rlineto
            return
          </CharString>
          <CharString index="151">
            -96 callgsubr
            endchar
          </CharString>
          <CharString index="152">
            14 -35 -8 -33 20 callgsubr
            return
          </CharString>
          <CharString index="153">
            rmoveto
            207 -247 rlineto
            -30 -34 -41 -20 -37 hhcurveto
            -72 -23 50 143 hvcurveto
            return
          </CharString>
          <CharString index="154">
            99 callsubr
            -170 hmoveto
            31 321 callgsubr
            -31 -33 -26 -26 -31 -31 26 -26 33 hvcurveto
            return
          </CharString>
          <CharString index="155">
            -92 callgsubr
            -131 hlineto
            79 -24 -91 198 -152 hhcurveto
            -77 -47 -50 -71 -61 34 -50 19 -15 hvcurveto
            11 1 16 9 9 7 rrcurveto
            -7 13 -13 28 36 vvcurveto
            57 32 23 43 97 64 -126 -78 26 vhcurveto
            -149 -62 callgsubr
            endchar
          </CharString>
          <CharString index="156">
            361 vlineto
            39 -69 callgsubr
            return
          </CharString>
          <CharString index="157">
            112 callgsubr
            30 hvcurveto
            return
          </CharString>
          <CharString index="158">
            187 callgsubr
            134 hmoveto
            -45 callsubr
            endchar
          </CharString>
          <CharString index="159">
            229 callgsubr
            49 176 callgsubr
            return
          </CharString>
          <CharString index="160">
            89 callsubr
            -106 449 callgsubr
            return
          </CharString>
          <CharString index="161">
            -3 26 hhcurveto
            13 5 18 22 2 17 rrcurveto
            return
          </CharString>
          <CharString index="162">
            38 -103 callgsubr
          </CharString>
          <CharString index="163">
            -107 callgsubr
            361 193 callgsubr
            return
          </CharString>
          <CharString index="164">
            204 callgsubr
            32 458 callsubr
            39 5 callgsubr
            vlineto
            endchar
          </CharString>
          <CharString index="165">
            -105 callsubr
            72 hhcurveto
            20 return
          </CharString>
          <CharString index="166">
            hhcurveto
            -53 -38 30 43 59 73 33 66 18 hvcurveto
            -7 23 -21 27 -14 14 -28 -7 -27 -9 -24 -11 rrcurveto
            -32 6 -41 27 52 vvcurveto
            24 8 23 14 15 vhcurveto
            return
          </CharString>
          <CharString index="167">
            41 -69 callgsubr
            return
          </CharString>
          <CharString index="168">
            -19 callgsubr
            -36 54 -25 return
          </CharString>
          <CharString index="169">
            31 -47 19 -43 28 -53 23 244 callgsubr
            35 -43 45 -45 41 rrcurveto
            22 24 13 31 34 vvcurveto
            40 -19 27 -30 -31 -57 -28 -44 -13 5 -21 14 -18 vhcurveto
            -13 -20 -32 -8 -34 461 callsubr
            17 -4 -1 14 hvcurveto
            12 2 26 480 callsubr
          </CharString>
          <CharString index="170">
            -10 -74 49 -89 hhcurveto
            -56 -49 -21 -20 -24 hvcurveto
            7 -26 21 -30 13 -14 rrcurveto
            25 29 42 23 42 hhcurveto
            50 25 -34 -46 -56 -36 -38 -62 -96 -72 82 104 -68 hvcurveto
            -12 -5 -21 -12 -6 -9 rrcurveto
            -112 49 113 -114 132 hhcurveto
            81 56 43 68 13 hvcurveto
            -3 12 17 -2 16 hhcurveto
            return
          </CharString>
          <CharString index="171">
            hlineto
            -40 -31 -9 -16 -9 hvcurveto
            -4 -5 -2 -11 -11 238 callsubr
            16 11 39 36 vvcurveto
            41 36 0 -1 32 hvcurveto
            24 -1 24 -1 22 -1 16 -44 53 -44 17 -7 144 callsubr
            16 11 11 49 1 33 rrcurveto
            return
          </CharString>
          <CharString index="172">
            vvcurveto
            -101 73 -96 124 58 41 20 26 35 vhcurveto
            -125 -89 callgsubr
          </CharString>
          <CharString index="173">
            rmoveto
            -28 -3 -30 -30 -11 -21 201 -108 rcurveline
            18 9 9 12 6 12 rrcurveto
            return
          </CharString>
          <CharString index="174">
            hhcurveto
            -68 427 callgsubr
            62 200 callgsubr
            38 -38 -34 17 vhcurveto
            -7 -22 -4 -19 -2 -14 9 -12 36 244 callsubr
            43 100 return
          </CharString>
          <CharString index="175">
            -107 callgsubr
            81 -184 hlineto
            -141 84 -73 101 106 195 callgsubr
            return
          </CharString>
          <CharString index="176">
            49 36 -17 -23 30 hvcurveto
            return
          </CharString>
          <CharString index="177">
            241 rmoveto
            328 callgsubr
            return
          </CharString>
          <CharString index="178">
            119 callsubr
            9 -15 8 212 callsubr
            return
          </CharString>
          <CharString index="179">
            51 callgsubr
            69 callsubr
            return
          </CharString>
          <CharString index="180">
            118 callgsubr
            98 hhcurveto
            105 return
          </CharString>
          <CharString index="181">
            151 callsubr
            20 hhcurveto
            return
          </CharString>
          <CharString index="182">
            16 9 36 44 vvcurveto
            250 return
          </CharString>
          <CharString index="183">
            -52 117 callgsubr
            38 -38 -35 17 -80 callgsubr
            42 98 74 hhcurveto
            5 4 361 callsubr
            -363 -40 callsubr
          </CharString>
          <CharString index="184">
            338 callgsubr
            -34 20 callgsubr
            316 callgsubr
            10 -15 7 212 callsubr
            -41 32 -63 return
          </CharString>
          <CharString index="185">
            11 callsubr
            -1 -21 -7 -17 vhcurveto
            4 71 callgsubr
            return
          </CharString>
          <CharString index="186">
            -2 -33 -9 -35 16 callgsubr
            16 vhcurveto
            return
          </CharString>
          <CharString index="187">
            56 callsubr
            -61 -102 return
          </CharString>
          <CharString index="188">
            hlineto
            -104 callsubr
          </CharString>
          <CharString index="189">
            -127 74 callgsubr
            return
          </CharString>
          <CharString index="190">
            15 11 97 callsubr
            34 hhcurveto
            return
          </CharString>
          <CharString index="191">
            -48 -105 -35 -22 hhcurveto
            -11 -22 12 40 52 return
          </CharString>
          <CharString index="192">
            hhcurveto
            -38 -41 -16 -33 -37 hvcurveto
            return
          </CharString>
          <CharString index="193">
            -17 -7 162 callgsubr
            return
          </CharString>
          <CharString index="194">
            -107 callgsubr
            311 -86 -102 hlineto
            -122 -29 -47 -47 -45 30 -43 39 -35 hvcurveto
            -33 -27 -22 -38 -48 246 callsubr
            return
          </CharString>
          <CharString index="195">
            37 callsubr
            5 7 return
          </CharString>
          <CharString index="196">
            194 callsubr
            -91 -96 -54 -117 return
          </CharString>
          <CharString index="197">
            62 174 callgsubr
            return
          </CharString>
          <CharString index="198" raw="1">
            b49ff77d 0a0b  
          </CharString>
          <CharString index="199">
            169 callsubr
            7 return
          </CharString>
          <CharString index="200">
            366 callsubr
            -2 -20 -4 -18 vhcurveto
            5 -18 -22 3 -15 hhcurveto
            -54 -30 440 callsubr
            308 callsubr
            -131 27 -134 48 -59 104 rrcurveto
            return
          </CharString>
          <CharString index="201">
            859 rmoveto
            -7 12 -10 12 317 callsubr
            -14 -7 -8 -10 -8 434 callsubr
            -122 25 -6 return
          </CharString>
          <CharString index="202">
            54 hhcurveto
            32 32 4 8 27 hvcurveto
            -239 -89 callgsubr
          </CharString>
          <CharString index="203">
            vvcurveto
            -39 45 206 callsubr
            return
          </CharString>
          <CharString index="204">
            40 35 vvcurveto
            1 41 37 -1 return
          </CharString>
          <CharString index="205">
            -35 1 -31 -22 hvcurveto
            71 -389 hlineto
            -38 -8 callsubr
            224 hlineto
            37 -4 35 13 -1 hvcurveto
            -99 6 rlineto
            387 91 vlineto
            35 0 40 13 -1 hvcurveto
            -125 52 hlineto
            88 22 31 39 26 23 -18 -38 1 vhcurveto
            return
          </CharString>
          <CharString index="206">
            566 rmoveto
            26 callsubr
            return
          </CharString>
          <CharString index="207">
            1071 158 callsubr
            98 24 45 58 54 vvcurveto
            59 -51 43 -93 -52 -72 -18 -38 -76 vhcurveto
            -17 25 -22 19 -28 11 rrcurveto
            59 546 vlineto
            226 -33 callgsubr
            return
          </CharString>
          <CharString index="208">
            -37 30 44 56 68 214 callgsubr
            return
          </CharString>
          <CharString index="209">
            112 callsubr
            -32 return
          </CharString>
          <CharString index="210">
            82 callsubr
            40 36 -24 -51 -50 -40 -57 -54 -35 hvcurveto
            13 -23 20 -25 24 -16 rrcurveto
            56 216 callsubr
            -90 -39 -40 492 callsubr
          </CharString>
          <CharString index="211">
            hhcurveto
            53 126 callgsubr
          </CharString>
          <CharString index="212">
            234 callgsubr
            4 40 rrcurveto
            return
          </CharString>
          <CharString index="213">
            rmoveto
            -52 -34 -52 -36 -48 hhcurveto
            -70 -16 49 return
          </CharString>
          <CharString index="214">
            -41 callsubr
            7 callsubr
            -629 -79 callsubr
            141 hlineto
            -27 callsubr
            return
          </CharString>
          <CharString index="215">
            rmoveto
            -7 vlineto
            -186 -190 41 -35 244 204 5 18 0 12 -5 19 rlinecurve
            -244 204 -38 -36 rlineto
            return
          </CharString>
          <CharString index="216">
            hlineto
            -72 callgsubr
            -8 -15 vhcurveto
            -10 3 return
          </CharString>
          <CharString index="217">
            rmoveto
            -105 -48 -27 -39 -78 -18 81 80 vhcurveto
            177 183 vlineto
            return
          </CharString>
          <CharString index="218">
            -43 callgsubr
            -50 19 -53 hhcurveto
            return
          </CharString>
          <CharString index="219">
            -76 -74 -62 -15 vhcurveto
            25 -20 return
          </CharString>
          <CharString index="220">
            389 111 rmoveto
            -37 -41 -34 -22 -49 hhcurveto
            -97 -41 86 108 102 34 99 104 56 46 -27 -20 22 hvcurveto
            return
          </CharString>
          <CharString index="221">
            -19 -44 -28 16 -36 return
          </CharString>
          <CharString index="222">
            hlineto
            22 -43 14 -49 -41 vvcurveto
            -19 -3 -14 -8 -14 vhcurveto
            3 -12 -20 4 -25 hhcurveto
            -42 -33 -20 -43 -30 18 -37 18 -32 hvcurveto
            47 -82 101 -114 40 -37 14 6 31 22 10 17 -55 47 -98 104 -44 72 return
          </CharString>
          <CharString index="223">
            vhcurveto
            11 8 9 13 2 13 rrcurveto
            -39 27 -25 444 callsubr
            30 return
          </CharString>
          <CharString index="224">
            356 callsubr
            -71 -46 490 callsubr
            return
          </CharString>
          <CharString index="225">
            433 callgsubr
            -26 -62 hhcurveto
            -77 return
          </CharString>
          <CharString index="226">
            -14 -27 -19 vhcurveto
            3 -9 return
          </CharString>
          <CharString index="227">
            vlineto
            -39 -3 -40 -2 182 callgsubr
            -75 6 rlineto
            170 vlineto
            -15 31 33 -9 46 hhcurveto
            159 85 115 167 -3 hvcurveto
            172 -4 -94 70 -99 hhcurveto
            return
          </CharString>
          <CharString index="228">
            -127 hlineto
            460 callgsubr
            return
          </CharString>
          <CharString index="229">
            33 39 24 25 -13 -33 vhcurveto
            -1 -48 -37 -34 -55 -15 rrcurveto
            return
          </CharString>
          <CharString index="230">
            111 44 33 256 callsubr
            44 -19 return
          </CharString>
          <CharString index="231" raw="1">
            1ff7a51d 0b  
          </CharString>
          <CharString index="232">
            41 -38 14 6 29 20 11 17 -56 57 callsubr
          </CharString>
          <CharString index="233">
            -24 -23 -27 hvcurveto
            10 -28 23 -32 14 -14 rrcurveto
            27 32 45 28 46 hhcurveto
            52 26 -36 -48 -86 -57 -20 -48 -97 -71 66 130 -85 hvcurveto
            -13 -5 -22 -15 -6 -10 rrcurveto
            -84 39 120 -155 return
          </CharString>
          <CharString index="234">
            30 -10 -15 22 hvcurveto
            11 45 450 callsubr
            18 -51 hhcurveto
            -91 -96 -54 -116 -107 79 -90 119 return
          </CharString>
          <CharString index="235">
            hhcurveto
            -51 -54 26 79 86 62 39 72 36 31 -8 -17 27 hvcurveto
            14 46 rlineto
            30 -29 -46 21 -57 hhcurveto
            return
          </CharString>
          <CharString index="236">
            -9 -11 2 -11 hhcurveto
            -71 -46 -46 -51 -28 hvcurveto
            34 -16 -46 64 -82 hhcurveto
            return
          </CharString>
          <CharString index="237">
            34 26 27 34 35 -26 26 -34 -35 -26 -26 -35 -34 26 -27 35 hvcurveto
            return
          </CharString>
          <CharString index="238">
            7 -15 rrcurveto
            3 18 25 2 22 hhcurveto
            24 18 218 callgsubr
            return
          </CharString>
          <CharString index="239">
            -26 -38 -51 -42 -29 -51 -31 hvcurveto
            -26 19 return
          </CharString>
          <CharString index="240">
            7 5 14 383 callgsubr
            -19 13 return
          </CharString>
          <CharString index="241">
            -4 135 callgsubr
            return
          </CharString>
          <CharString index="242">
            -87 97 -110 return
          </CharString>
          <CharString index="243">
            -47 -46 -2 -2 -45 hvcurveto
            -58 -4 -32 295 callgsubr
            348 callgsubr
            7 -3 8 hhcurveto
            11 263 callsubr
            20 hhcurveto
            85 hlineto
            return
          </CharString>
          <CharString index="244">
            15 6 29 20 10 17 -55 47 -96 103 -44 73 36 3 28 12 21 21 rrcurveto
            -21 42 57 -10 53 hhcurveto
            33 31 4 7 27 hvcurveto
            -238 -89 callgsubr
          </CharString>
          <CharString index="245">
            -15 -23 2 4 -15 hvcurveto
            30 -14 -29 45 -29 hhcurveto
            -25 418 callsubr
            20 -46 21 7 38 29 8 14 -12 22 -41 54 -38 42 rrcurveto
            -1 6 return
          </CharString>
          <CharString index="246">
            -259 202 54 -67 callsubr
            return
          </CharString>
          <CharString index="247">
            rmoveto
            -56 -38 -36 -55 -51 36 -35 54 55 38 36 54 1 hvcurveto
            52 1 -36 35 -55 hhcurveto
            -2 -44 rmoveto
            27 18 -17 -28 -27 -18 -17 -27 -27 -17 17 27 28 17 17 27 hvcurveto
            endchar
          </CharString>
          <CharString index="248">
            -107 callgsubr
            379 121 callsubr
            return
          </CharString>
          <CharString index="249">
            rrcurveto
            -4 -5 -2 -12 -10 238 callsubr
            15 11 40 35 vvcurveto
            return
          </CharString>
          <CharString index="250">
            -296 vmoveto
            -46 callgsubr
            return
          </CharString>
          <CharString index="251">
            rrcurveto
            -2 5 7 -1 7 hhcurveto
            11 13 2 6 7 hvcurveto
            return
          </CharString>
          <CharString index="252">
            vhcurveto
            -10 -21 -28 -4 -24 hhcurveto
            -61 -49 31 55 return
          </CharString>
          <CharString index="253">
            -185 vlineto
            -17 43 -19 39 vhcurveto
            return
          </CharString>
          <CharString index="254">
            rmoveto
            -44 -36 -53 -33 -53 hhcurveto
            return
          </CharString>
          <CharString index="255">
            hvcurveto
            -14 308 callgsubr
            return
          </CharString>
          <CharString index="256">
            18 vhcurveto
            -586 -107 callgsubr
            340 -88 hlineto
            2 -17 -15 1 -21 hhcurveto
            -153 -83 -85 -107 -129 97 -97 155 135 79 74 86 75 -62 39 -61 -72 return
          </CharString>
          <CharString index="257">
            47 -62 105 rrcurveto
            105 265 callgsubr
            return
          </CharString>
          <CharString index="258">
            40 rrcurveto
            1 16 18 0 return
          </CharString>
          <CharString index="259">
            72 93 vvcurveto
            60 return
          </CharString>
          <CharString index="260">
            -77 403 537 rmoveto
            108 -70 callgsubr
            -508 -79 callsubr
            319 -82 hlineto
            1 -13 -80 0 -13 hhcurveto
            -114 -34 -44 -47 -42 27 return
          </CharString>
          <CharString index="261">
            36 53 -26 hvcurveto
            return
          </CharString>
          <CharString index="262">
            -326 -49 callsubr
          </CharString>
          <CharString index="263">
            244 6 callsubr
            return
          </CharString>
          <CharString index="264">
            472 callsubr
            73 -22 239 callsubr
            return
          </CharString>
          <CharString index="265">
            211 rmoveto
            -29 -28 -45 -23 -59 hhcurveto
            -72 -49 32 50 -25 hvcurveto
            return
          </CharString>
          <CharString index="266">
            hhcurveto
            45 43 15 20 32 hvcurveto
            254 callsubr
            return
          </CharString>
          <CharString index="267">
            1 -7 -8 0 -7 hhcurveto
            -154 -99 -71 -125 return
          </CharString>
          <CharString index="268">
            vvcurveto
            -42 72 -77 36 92 callsubr
            vhcurveto
            13 return
          </CharString>
          <CharString index="269">
            -58 39 173 callgsubr
            return
          </CharString>
          <CharString index="270">
            97 callgsubr
            -62 hhcurveto
            return
          </CharString>
          <CharString index="271">
            473 callsubr
            51 -68 return
          </CharString>
          <CharString index="272">
            61 87 callgsubr
            return
          </CharString>
          <CharString index="273">
            hhcurveto
            -70 -17 432 callsubr
            return
          </CharString>
          <CharString index="274">
            vlineto
            -94 callsubr
            return
          </CharString>
          <CharString index="275">
            21 26 18 hvcurveto
            119 return
          </CharString>
          <CharString index="276">
            13 16 4 9 return
          </CharString>
          <CharString index="277">
            6 vhcurveto
            -10 29 -14 20 -18 18 -15 79 callsubr
            8 2 10 451 callgsubr
            return
          </CharString>
          <CharString index="278">
            -48 26 55 76 85 31 70 hvcurveto
            35 hlineto
            return
          </CharString>
          <CharString index="279">
            vlineto
            224 268 callgsubr
            return
          </CharString>
          <CharString index="280">
            rmoveto
            16 callsubr
            return
          </CharString>
          <CharString index="281">
            -26 -30 -28 -27 -38 -15 vhcurveto
            7 return
          </CharString>
          <CharString index="282">
            528 898 158 callsubr
            99 24 45 58 54 vvcurveto
            59 -1 -51 43 -93 hhcurveto
            -46 -62 -14 -31 -67 hvcurveto
            return
          </CharString>
          <CharString index="283">
            -101 callsubr
            321 -97 hlineto
            160 callsubr
            return
          </CharString>
          <CharString index="284">
            -205 3 96 -131 189 hhcurveto
            129 88 65 40 9 -4 12 -9 4 hvcurveto
            return
          </CharString>
          <CharString index="285">
            44 85 35 37 hhcurveto
            26 13 -14 -26 -52 -56 -56 -97 -82 -59 44 68 -57 73 callsubr
            81 62 91 return
          </CharString>
          <CharString index="286">
            66 vlineto
            271 callgsubr
            -65 48 -49 75 -29 vhcurveto
            7 7 9 17 3 13 rrcurveto
            -36 20 -28 29 44 vvcurveto
            38 21 22 35 375 callgsubr
            return
          </CharString>
          <CharString index="287">
            hhcurveto
            -61 -56 -24 -22 -26 hvcurveto
            9 -28 23 -32 14 -14 rrcurveto
            27 32 46 28 45 365 callgsubr
            return
          </CharString>
          <CharString index="288">
            343 callgsubr
            49 -13 -14 -48 -40 -16 vhcurveto
            endchar
          </CharString>
          <CharString index="289">
            317 callgsubr
            11 40 35 vvcurveto
            1 return
          </CharString>
          <CharString index="290">
            54 callsubr
            endchar
          </CharString>
          <CharString index="291">
            62 283 callsubr
            return
          </CharString>
          <CharString index="292">
            -184 vlineto
            -17 44 -19 return
          </CharString>
          <CharString index="293">
            116 callsubr
            37 35 -31 -79 -146 -117 -118 -144 -74 -37 33 49 64 return
          </CharString>
          <CharString index="294">
            231 callgsubr
            -82 -61 -102 -95 81 -88 110 242 callsubr
            39 vhcurveto
            284 vlineto
            return
          </CharString>
          <CharString index="295">
            84 65 83 12 -2 14 -4 13 hvcurveto
            13 1 13 2 12 3 22 3 20 4 16 6 rrcurveto
            -198 -104 callgsubr
          </CharString>
          <CharString index="296">
            62 91 57 -42 85 -71 hvcurveto
            -52 -106 -35 -21 hhcurveto
            -15 -18 15 37 55 38 17 return
          </CharString>
          <CharString index="297">
            427 callsubr
            55 vvcurveto
            34 17 22 34 51 13 -49 -81 vhcurveto
            return
          </CharString>
          <CharString index="298">
            148 callgsubr
            -39 51 -67 91 callgsubr
            return
          </CharString>
          <CharString index="299">
            -127 103 -92 141 104 79 51 54 43 return
          </CharString>
          <CharString index="300">
            348 callgsubr
            8 -2 479 callgsubr
            return
          </CharString>
          <CharString index="301">
            348 callsubr
            -51 hhcurveto
            return
          </CharString>
          <CharString index="302">
            -67 159 127 return
          </CharString>
          <CharString index="303">
            859 rmoveto
            -8 12 -9 12 317 callsubr
            -15 -7 -8 -10 -7 434 callsubr
            -122 24 -6 19 0 22 6 rlinecurve
            return
          </CharString>
          <CharString index="304">
            240 rmoveto
            -37 -33 -48 -25 -45 hhcurveto
            -40 -54 23 72 71 53 382 callgsubr
            -15 18 vhcurveto
            return
          </CharString>
          <CharString index="305">
            rmoveto
            -23 5 -18 0 -25 -5 -134 -123 rcurveline
            243 callsubr
            136 87 rcurveline
            294 callsubr
            13 7 11 rlinecurve
            endchar
          </CharString>
          <CharString index="306">
            -171 237 137 151 27 2 40 3 -6 37 1 10 rlinecurve
            -164 hlineto
            -38 4 -38 -10 1 hvcurveto
            59 -6 -172 -197 rlineto
            return
          </CharString>
          <CharString index="307">
            38 -28 -53 51 -87 hhcurveto
            -106 -66 -75 -109 -130 95 -69 80 59 44 38 53 36 hvcurveto
            -47 31 57 -46 76 hhcurveto
            103 77 84 115 return
          </CharString>
          <CharString index="308">
            -264 -36 610 rmoveto
            -27 12 -30 14 -17 vhcurveto
            116 55 callgsubr
            142 vlineto
            27 -11 30 -15 17 vhcurveto
            return
          </CharString>
          <CharString index="309">
            11 3 9 8 hvcurveto
            13 12 14 48 61 callgsubr
            return
          </CharString>
          <CharString index="310">
            rmoveto
            21 -4 13 0 19 4 23 196 rcurveline
            -35 6 -31 -2 -27 -9 rrcurveto
            return
          </CharString>
          <CharString index="311">
            1 -54 3 -22 55 -60 2 -49 2 -43 -38 -15 -67 return
          </CharString>
          <CharString index="312">
            -160 -20 -1 -13 0 -32 28 -3 rlinecurve
            49 -5 rlineto
            return
          </CharString>
          <CharString index="313">
            -63 193 callsubr
            3 return
          </CharString>
          <CharString index="314">
            -37 49 -75 hhcurveto
            -80 -57 -56 -69 -11 hvcurveto
            77 -49 -52 return
          </CharString>
          <CharString index="315">
            -10 -31 hhcurveto
            -48 210 callsubr
            return
          </CharString>
          <CharString index="316">
            hhcurveto
            -54 -37 30 44 56 67 33 75 18 hvcurveto
            -7 24 return
          </CharString>
          <CharString index="317">
            -52 32 75 217 callsubr
            return
          </CharString>
          <CharString index="318">
            611 306 callsubr
            return
          </CharString>
          <CharString index="319">
            -6 rrcurveto
            58 358 callsubr
            return
          </CharString>
          <CharString index="320">
            410 rmoveto
            27 -35 -49 25 -60 hhcurveto
            return
          </CharString>
          <CharString index="321">
            -27 vhcurveto
            -21 -24 -13 -29 -36 vvcurveto
            return
          </CharString>
          <CharString index="322">
            148 callsubr
            rrcurveto
            return
          </CharString>
          <CharString index="323">
            38 42 60 76 vvcurveto
            105 -71 70 return
          </CharString>
          <CharString index="324">
            34 272 callgsubr
            return
          </CharString>
          <CharString index="325" raw="1">
            b8c3bdb2 65680b  
          </CharString>
          <CharString index="326">
            -40 23 -50 76 -37 return
          </CharString>
          <CharString index="327">
            104 79 236 callsubr
            return
          </CharString>
          <CharString index="328">
            rmoveto
            28 -3 31 6 hvcurveto
            -59 4 rlineto
            278 vlineto
            18 -8 9 -12 -9 -16 -1 -6 -11 vhcurveto
            -87 -47 rlineto
            -7 14 -29 21 6 vhcurveto
            40 return
          </CharString>
          <CharString index="329">
            38 2 33 rrcurveto
            63 65 -1 -4 61 hvcurveto
            -303 -205 7 -22 25 -31 16 -10 rlinecurve
            258 195 rlineto
            -159 vlineto
            -17 44 -23 return
          </CharString>
          <CharString index="330">
            -79 callsubr
            138 310 callsubr
            return
          </CharString>
          <CharString index="331">
            hlineto
            -10 -17 -5 235 callgsubr
            -54 88 -34 vhcurveto
            6 3 11 17 2 10 rrcurveto
            -58 41 -11 31 29 vvcurveto
            45 34 27 37 57 return
          </CharString>
          <CharString index="332">
            hlineto
            -28 12 -42 callsubr
            return
          </CharString>
          <CharString index="333">
            -78 callgsubr
            35 45 55 return
          </CharString>
          <CharString index="334">
            195 callsubr
            -35 vhcurveto
            373 callgsubr
            return
          </CharString>
          <CharString index="335">
            585 vlineto
            23 -40 19 -44 vhcurveto
            -589 vlineto
            -19 46 -21 38 2 vhcurveto
            return
          </CharString>
          <CharString index="336">
            -521 -49 callsubr
          </CharString>
          <CharString index="337">
            vlineto
            7 callsubr
            return
          </CharString>
          <CharString index="338">
            -19 39 vhcurveto
            284 286 callsubr
            47 return
          </CharString>
          <CharString index="339">
            8 10 8 24 3 19 rrcurveto
            -121 34 return
          </CharString>
          <CharString index="340" raw="1">
            a5ae1ff8 0d1d0b  
          </CharString>
          <CharString index="341">
            hhcurveto
            -70 -85 -47 -106 return
          </CharString>
          <CharString index="342" raw="1">
            691e7d8a 720b  
          </CharString>
          <CharString index="343">
            51 54 43 vhcurveto
            18 callsubr
            return
          </CharString>
          <CharString index="344">
            -56 -36 -23 -34 -38 46 -63 31 -22 hvcurveto
            -3 5 7 -2 8 hhcurveto
            11 7 3 8 6 hvcurveto
            12 14 15 46 3 40 56 -4 return
          </CharString>
          <CharString index="345">
            vvcurveto
            -42 72 -77 37 325 callgsubr
            vhcurveto
            14 return
          </CharString>
          <CharString index="346">
            hvcurveto
            -29 -27 -13 -33 -33 vvcurveto
            -83 74 -75 133 return
          </CharString>
          <CharString index="347">
            27 -15 14 -35 -8 -33 -11 -28 -16 rrcurveto
            -41 12 return
          </CharString>
          <CharString index="348">
            -20 6 -26 rlinecurve
            10 -47 61 -54 25 -1 rrcurveto
            16 return
          </CharString>
          <CharString index="349">
            53 40 17 25 34 hvcurveto
            332 callsubr
            44 -19 return
          </CharString>
          <CharString index="350">
            8 -14 8 -9 14 -8 return
          </CharString>
          <CharString index="351">
            -23 26 413 callsubr
            return
          </CharString>
          <CharString index="352">
            -28 callgsubr
            10 36 44 vvcurveto
            return
          </CharString>
          <CharString index="353">
            vvcurveto
            -142 187 -79 135 -35 vhcurveto
            335 callsubr
            return
          </CharString>
          <CharString index="354">
            420 callgsubr
            205 rcurveline
            -187 -104 callgsubr
          </CharString>
          <CharString index="355">
            7 -20 30 423 callgsubr
            134 -109 12 return
          </CharString>
          <CharString index="356">
            -50 42 -28 vhcurveto
            -93 -56 -42 -41 -75 vvcurveto
            -96 70 -79 117 34 return
          </CharString>
          <CharString index="357">
            9 hvcurveto
            12 13 14 return
          </CharString>
          <CharString index="358">
            1 -1 -32 hvcurveto
            return
          </CharString>
          <CharString index="359">
            191 callgsubr
            377 callsubr
            -12 29 -14 18 vhcurveto
            return
          </CharString>
          <CharString index="360">
            -70 -93 -52 25 -41 27 -27 hvcurveto
            endchar
          </CharString>
          <CharString index="361">
            185 callsubr
            39 vhcurveto
            return
          </CharString>
          <CharString index="362">
            430 callgsubr
            -29 hhcurveto
            -19 return
          </CharString>
          <CharString index="363">
            14 19 28 hvcurveto
            -133 vlineto
            -17 return
          </CharString>
          <CharString index="364">
            rmoveto
            -60 273 60 vlineto
            endchar
          </CharString>
          <CharString index="365">
            hlineto
            -5 -14 -3 -15 -17 vvcurveto
            -98 87 -131 54 -70 vhcurveto
            300 callgsubr
            return
          </CharString>
          <CharString index="366">
            -13 hvcurveto
            53 -46 -58 42 -72 hhcurveto
            -45 -68 257 callgsubr
            6 -11 rrcurveto
            10 26 61 18 39 hhcurveto
            return
          </CharString>
          <CharString index="367">
            441 callsubr
            17 48 31 45 hhcurveto
            63 56 300 callsubr
            return
          </CharString>
          <CharString index="368">
            -22 -23 -28 hvcurveto
            8 -27 18 -30 17 -21 rrcurveto
            24 38 41 22 38 hhcurveto
            53 35 -24 -44 46 hvcurveto
            -240 -149 return
          </CharString>
          <CharString index="369">
            -33 hvcurveto
            13 -24 18 493 callgsubr
            48 37 70 77 103 vvcurveto
            102 -72 69 -90 -56 -44 258 callgsubr
          </CharString>
          <CharString index="370">
            145 callgsubr
            18 1 return
          </CharString>
          <CharString index="371">
            -10 161 callsubr
            15 11 return
          </CharString>
          <CharString index="372">
            -9 -15 rrcurveto
            -4 -5 -2 -12 -10 vvcurveto
            return
          </CharString>
          <CharString index="373">
            218 callgsubr
            65 return
          </CharString>
          <CharString index="374">
            hlineto
            -28 14 -101 callsubr
            return
          </CharString>
          <CharString index="375">
            -51 -62 -34 14 -33 25 -29 return
          </CharString>
          <CharString index="376">
            -31 349 callgsubr
            return
          </CharString>
          <CharString index="377">
            21 8 38 28 8 14 return
          </CharString>
          <CharString index="378">
            -7 -17 -4 -18 -18 vvcurveto
            return
          </CharString>
          <CharString index="379">
            3 21 -130 27 return
          </CharString>
          <CharString index="380">
            vvcurveto
            -47 38 -31 53 405 callgsubr
            -11 -18 -13 -26 hhcurveto
            -28 -20 return
          </CharString>
          <CharString index="381">
            2 163 -26 5 -32 -4 -22 -8 rlinecurve
            2 -156 -149 11 -8 -18 8 -39 13 -18 rlinecurve
            137 11 return
          </CharString>
          <CharString index="382">
            176 callsubr
            -127 107 -96 147 return
          </CharString>
          <CharString index="383">
            -12 18 -9 rrcurveto
            return
          </CharString>
          <CharString index="384">
            298 rmoveto
            -35 -22 -52 -17 -36 -6 rrcurveto
            26 -19 -28 19 -34 -49 -105 -35 -21 hhcurveto
            -11 -22 12 40 52 return
          </CharString>
          <CharString index="385">
            340 callgsubr
            -74 6 rlineto
            323 vlineto
            return
          </CharString>
          <CharString index="386">
            3 -18 -17 14 -44 -1 -88 -21 -50 rrcurveto
            -7 28 -15 8 5 vhcurveto
            41 48 21 70 -3 73 rrcurveto
            endchar
          </CharString>
          <CharString index="387">
            rmoveto
            242 callgsubr
            -1 return
          </CharString>
          <CharString index="388">
            480 callgsubr
            106 callgsubr
            return
          </CharString>
          <CharString index="389">
            342 callsubr
            43 11 16 return
          </CharString>
          <CharString index="390">
            71 -29 callgsubr
            return
          </CharString>
          <CharString index="391">
            -79 86 -79 29 rrcurveto
            return
          </CharString>
          <CharString index="392">
            53 40 17 24 34 return
          </CharString>
          <CharString index="393">
            vlineto
            46 35 50 return
          </CharString>
          <CharString index="394">
            5 8 8 vhcurveto
            return
          </CharString>
          <CharString index="395">
            hlineto
            -296 vmoveto
            328 callgsubr
            return
          </CharString>
          <CharString index="396">
            409 callsubr
            -90 403 callgsubr
            -107 449 callgsubr
            return
          </CharString>
          <CharString index="397">
            26 319 callgsubr
            return
          </CharString>
          <CharString index="398">
            -66 callsubr
            -73 6 rlineto
            return
          </CharString>
          <CharString index="399">
            hlineto
            164 callgsubr
            return
          </CharString>
          <CharString index="400">
            13 -18 vhcurveto
            -13 -20 -31 -8 -35 hhcurveto
            -82 return
          </CharString>
          <CharString index="401">
            135 -87 14 7 10 return
          </CharString>
          <CharString index="402">
            1 19 -13 50 -5 22 return
          </CharString>
          <CharString index="403">
            249 callsubr
            38 10 16 31 vhcurveto
            31 -46 return
          </CharString>
          <CharString index="404">
            241 rmoveto
            -47 -40 -67 -35 -50 hhcurveto
            -40 168 callgsubr
            73 69 callsubr
            return
          </CharString>
          <CharString index="405">
            -107 callgsubr
            378 -125 hlineto
            26 -35 -49 24 -58 hhcurveto
            -89 -98 -54 -115 return
          </CharString>
          <CharString index="406">
            75 -62 39 -62 -71 354 callgsubr
            return
          </CharString>
          <CharString index="407">
            -83 -76 39 hvcurveto
            51 -52 -65 42 return
          </CharString>
          <CharString index="408">
            -3 17 hhcurveto
            13 26 29 18 hvcurveto
            return
          </CharString>
          <CharString index="409">
            -31 269 callsubr
            return
          </CharString>
          <CharString index="410">
            383 callsubr
            48 -13 -13 return
          </CharString>
          <CharString index="411">
            hlineto
            37 -4 40 10 -1 hvcurveto
            return
          </CharString>
          <CharString index="412">
            15 37 55 39 17 104 hvcurveto
            return
          </CharString>
          <CharString index="413">
            rmoveto
            -106 callgsubr
            return
          </CharString>
          <CharString index="414">
            rlinecurve
            162 121 return
          </CharString>
          <CharString index="415">
            16 13 32 3 21 return
          </CharString>
          <CharString index="416">
            -46 -103 -98 87 -131 54 -70 hvcurveto
            9 62 callgsubr
            -36 48 -70 107 80 vvcurveto
            return
          </CharString>
          <CharString index="417">
            54 callgsubr
            -108 17 72 -111 150 hhcurveto
            return
          </CharString>
          <CharString index="418">
            -18 17 476 callsubr
            -13 207 callsubr
            return
          </CharString>
          <CharString index="419">
            298 191 callgsubr
            return
          </CharString>
          <CharString index="420">
            147 callsubr
            -52 -44 89 callgsubr
            return
          </CharString>
          <CharString index="421">
            21 -1 30 -2 23 -2 30 -5 29 -7 25 rrcurveto
            return
          </CharString>
          <CharString index="422">
            -20 -22 hvcurveto
            6 -17 22 -42 13 -15 rrcurveto
            18 28 return
          </CharString>
          <CharString index="423">
            -67 159 126 -35 443 callsubr
            return
          </CharString>
          <CharString index="424">
            169 callgsubr
            -136 87 return
          </CharString>
          <CharString index="425">
            393 callgsubr
            39 -57 return
          </CharString>
          <CharString index="426">
            -107 callgsubr
            121 return
          </CharString>
          <CharString index="427">
            -11 21 -20 23 -24 15 rrcurveto
            -46 -35 return
          </CharString>
          <CharString index="428">
            75 -29 vhcurveto
            8 7 8 return
          </CharString>
          <CharString index="429">
            109 58 77 119 return
          </CharString>
          <CharString index="430">
            -102 84 -125 56 -75 return
          </CharString>
          <CharString index="431">
            30 9 -21 -20 -28 return
          </CharString>
          <CharString index="432">
            15 287 callsubr
            return
          </CharString>
          <CharString index="433">
            -49 19 -53 hhcurveto
            return
          </CharString>
          <CharString index="434">
            314 106 callsubr
            144 hvcurveto
            118 220 vlineto
            return
          </CharString>
          <CharString index="435">
            174 callgsubr
            187 292 callsubr
            return
          </CharString>
          <CharString index="436">
            rmoveto
            16 46 303 callsubr
            -48 -39 -16 -13 39 -48 15 hvcurveto
            123 return
          </CharString>
          <CharString index="437">
            288 rmoveto
            -51 -34 -51 -37 -49 166 callsubr
            145 221 vlineto
            return
          </CharString>
          <CharString index="438">
            -15 rlineto
            261 vlineto
            240 -4 10 -115 rlineto
            10 -1 40 -4 35 vvcurveto
            145 return
          </CharString>
          <CharString index="439">
            -128 vlineto
            -17 return
          </CharString>
          <CharString index="440">
            34 14 161 callgsubr
            -18 -13 -26 hhcurveto
            -28 return
          </CharString>
          <CharString index="441">
            hhcurveto
            -77 -53 35 54 -25 hvcurveto
            99 23 47 62 72 -29 callgsubr
            -24 26 vhcurveto
            return
          </CharString>
          <CharString index="442">
            232 callsubr
            -138 52 103 vvcurveto
            62 57 42 77 return
          </CharString>
          <CharString index="443">
            rmoveto
            -10 22 -31 29 -27 416 callgsubr
            return
          </CharString>
          <CharString index="444">
            hhcurveto
            -52 -48 25 55 76 85 32 70 hvcurveto
            35 hlineto
            -1 29 -11 26 -14 19 rrcurveto
            return
          </CharString>
          <CharString index="445">
            -101 callsubr
            141 54 callgsubr
            return
          </CharString>
          <CharString index="446">
            -23 20 -25 25 -16 rrcurveto
            56 216 callsubr
            -91 -38 -40 -16 return
          </CharString>
          <CharString index="447">
            -52 rmoveto
            201 -240 rlineto
            -29 -33 -39 -19 -34 hhcurveto
            -72 -23 50 143 hvcurveto
            return
          </CharString>
          <CharString index="448">
            18 vvcurveto
            27 13 16 96 vhcurveto
            32 58 -1 25 hhcurveto
            14 21 27 17 hvcurveto
            endchar
          </CharString>
          <CharString index="449">
            rmoveto
            413 callgsubr
            -14 42 -49 15 16 48 return
          </CharString>
          <CharString index="450">
            -51 hlineto
            -65 -7 -41 -48 -65 vvcurveto
            -78 62 -48 return
          </CharString>
          <CharString index="451">
            -8 -9 -16 rrcurveto
            -4 -5 493 callsubr
            -42 return
          </CharString>
          <CharString index="452" raw="1">
            f75915f7 ec06a60b  
          </CharString>
          <CharString index="453">
            -27 callsubr
            -64 return
          </CharString>
          <CharString index="454">
            -37 -72 -89 76 -73 return
          </CharString>
          <CharString index="455">
            450 callsubr
            19 return
          </CharString>
          <CharString index="456">
            172 callgsubr
            56 -62 -62 vvcurveto
            -50 -33 -20 -37 return
          </CharString>
          <CharString index="457">
            32 -63 -95 -56 -66 -72 162 callsubr
            return
          </CharString>
          <CharString index="458">
            9 9 -61 callsubr
            return
          </CharString>
          <CharString index="459">
            -34 -7 -13 -29 vhcurveto
            -28 25 -9 25 18 vvcurveto
            29 22 16 93 vhcurveto
            endchar
          </CharString>
          <CharString index="460">
            13 2 6 7 hvcurveto
            15 11 11 return
          </CharString>
          <CharString index="461">
            -33 -24 -24 -33 -33 24 -23 33 return
          </CharString>
          <CharString index="462">
            hlineto
            466 callsubr
            return
          </CharString>
          <CharString index="463">
            3 -10 -10 2 -12 hhcurveto
            return
          </CharString>
          <CharString index="464">
            -34 285 callgsubr
            return
          </CharString>
          <CharString index="465">
            20 219 callgsubr
            return
          </CharString>
          <CharString index="466">
            179 rmoveto
            27 -11 29 return
          </CharString>
          <CharString index="467">
            479 callgsubr
            4 8 return
          </CharString>
          <CharString index="468">
            0 -1 4 hvcurveto
            return
          </CharString>
          <CharString index="469">
            80 -88 110 return
          </CharString>
          <CharString index="470">
            hhcurveto
            -67 -52 123 callgsubr
            return
          </CharString>
          <CharString index="471">
            33 25 25 32 31 -25 26 -33 -31 360 callgsubr
            31 hvcurveto
            return
          </CharString>
          <CharString index="472">
            34 27 26 35 34 -27 27 -34 -34 -27 -27 -34 -35 27 -26 34 hvcurveto
            return
          </CharString>
          <CharString index="473">
            -107 callgsubr
            148 11 callsubr
            return
          </CharString>
          <CharString index="474">
            198 142 -521 -104 callgsubr
          </CharString>
          <CharString index="475">
            -171 144 -19 callgsubr
            return
          </CharString>
          <CharString index="476">
            294 callsubr
            12 7 12 rlinecurve
            return
          </CharString>
          <CharString index="477">
            347 callgsubr
            -43 -59 vvcurveto
            return
          </CharString>
          <CharString index="478">
            vlineto
            92 callgsubr
            return
          </CharString>
          <CharString index="479">
            -281 hlineto
            -48 -37 -58 -29 -54 hhcurveto
            -51 return
          </CharString>
          <CharString index="480">
            -1 7 hhcurveto
            12 398 callsubr
            return
          </CharString>
          <CharString index="481">
            87 vvcurveto
            90 -69 68 return
          </CharString>
          <CharString index="482">
            22 -30 29 -28 4 return
          </CharString>
          <CharString index="483">
            12 7 25 25 7 return
          </CharString>
          <CharString index="484">
            224 hmoveto
            27 return
          </CharString>
          <CharString index="485">
            rmoveto
            -36 -32 -48 -25 -46 hhcurveto
            -40 -53 152 callgsubr
            43 return
          </CharString>
          <CharString index="486">
            33 388 callsubr
            return
          </CharString>
          <CharString index="487">
            -72 callsubr
            -307 267 callsubr
            return
          </CharString>
          <CharString index="488">
            hvcurveto
            59 21 -3 17 hhcurveto
            13 25 28 18 hvcurveto
            110 144 vlineto
            return
          </CharString>
          <CharString index="489">
            -57 -44 -28 -26 -29 vhcurveto
            endchar
          </CharString>
          <CharString index="490">
            42 10 16 -42 return
          </CharString>
          <CharString index="491">
            -30 -63 -34 -87 -19 hvcurveto
            -103 17 69 -108 144 hhcurveto
            53 return
          </CharString>
          <CharString index="492">
            182 callsubr
            41 return
          </CharString>
          <CharString index="493">
            85 69 -29 -87 -97 -90 -70 -110 hvcurveto
            124 449 rmoveto
            return
          </CharString>
          <CharString index="494">
            -1 callsubr
            -35 54 -25 return
          </CharString>
          <CharString index="495">
            240 callgsubr
            -14 18 vhcurveto
            return
          </CharString>
          <CharString index="496">
            -33 -52 vvcurveto
            -65 -66 -44 -80 vhcurveto
            101 return
          </CharString>
          <CharString index="497">
            251 callsubr
            235 218 vlineto
            return
          </CharString>
          <CharString index="498">
            vhcurveto
            8 4 19 12 6 11 rrcurveto
            61 return
          </CharString>
          <CharString index="499">
            -95 -74 67 129 -84 hvcurveto
            return
          </CharString>
          <CharString index="500">
            hhcurveto
            -39 -41 -16 -33 -37 hvcurveto
            return
          </CharString>
          <CharString index="501">
            477 callgsubr
            7 -21 return
          </CharString>
          <CharString index="502">
            19 -43 28 -53 23 9 return
          </CharString>
          <CharString index="503">
            13 431 callgsubr
            return
          </CharString>
          <CharString index="504">
            -19 -34 vvcurveto
            -38 45 -64 return
          </CharString>
          <CharString index="505">
            12 2 6 8 hvcurveto
            15 return
          </CharString>
          <CharString index="506">
            285 callgsubr
            79 return
          </CharString>
          <CharString index="507">
            -355 -624 rlineto
            return
          </CharString>
          <CharString index="508">
            34 vvcurveto
            39 -16 29 return
          </CharString>
          <CharString index="509">
            -2 -2 -15 hvcurveto
            return
          </CharString>
          <CharString index="510">
            -4 -5 -2 -11 return
          </CharString>
          <CharString index="511">
            hhcurveto
            -31 -29 4 7 -26 hvcurveto
            10 25 5 30 34 vvcurveto
            38 return
          </CharString>
          <CharString index="512">
            -62 hhcurveto
            -69 -51 30 50 -26 hvcurveto
            98 24 46 56 53 vvcurveto
            return
          </CharString>
          <CharString index="513">
            rmoveto
            -14 -50 455 callsubr
            return
          </CharString>
          <CharString index="514">
            -47 -106 -8 0 -8 1 -8 hvcurveto
            -10 -19 -14 -19 -17 -16 return
          </CharString>
          <CharString index="515">
            104 157 -72 hvcurveto
            -20 -5 -19 -11 -9 -8 rrcurveto
            -167 return
          </CharString>
          <CharString index="516">
            30 -11 -14 22 hvcurveto
            11 44 194 callsubr
            return
          </CharString>
          <CharString index="517">
            102 vvcurveto
            102 -73 70 -89 -56 -45 258 callgsubr
          </CharString>
          <CharString index="518">
            rcurveline
            -129 -89 callgsubr
          </CharString>
          <CharString index="519">
            vlineto
            50 35 55 return
          </CharString>
          <CharString index="520">
            -5 rrcurveto
            79 11 return
          </CharString>
          <CharString index="521">
            hlineto
            22 454 callgsubr
            return
          </CharString>
          <CharString index="522">
            vlineto
            -41 -3 -40 -2 6 -40 -1 -10 rlinecurve
            206 hlineto
            return
          </CharString>
          <CharString index="523">
            674 rmoveto
            -8 11 -9 13 169 callgsubr
            return
          </CharString>
          <CharString index="524">
            -264 330 -58 callsubr
            return
          </CharString>
          <CharString index="525">
            -35 435 callgsubr
            return
          </CharString>
          <CharString index="526">
            25 2 13 28 38 hhcurveto
            29 16 -15 -24 -55 -67 -14 return
          </CharString>
          <CharString index="527">
            hlineto
            21 454 callgsubr
            return
          </CharString>
          <CharString index="528">
            -66 -62 -48 -33 hvcurveto
            14 -23 18 -25 27 -16 rrcurveto
            49 return
          </CharString>
          <CharString index="529">
            -165 46 288 rmoveto
            -67 301 67 vlineto
            endchar
          </CharString>
          <CharString index="530">
            -36 17 -12 307 callsubr
            return
          </CharString>
          <CharString index="531">
            -6 -22 -15 -6 -9 rrcurveto
            -87 41 return
          </CharString>
          <CharString index="532">
            -107 callgsubr
            99 return
          </CharString>
          <CharString index="533">
            88 392 callgsubr
            return
          </CharString>
          <CharString index="534">
            18 3 12 rrcurveto
            -42 24 -41 32 return
          </CharString>
          <CharString index="535">
            -15 vhcurveto
            25 -20 -31 27 -25 hhcurveto
            return
          </CharString>
          <CharString index="536">
            48 41 11 18 32 return
          </CharString>
          <CharString index="537">
            451 callgsubr
            32 return
          </CharString>
          <CharString index="538">
            -10 1 hvcurveto
            73 return
          </CharString>
          <CharString index="539">
            49 143 hvcurveto
            return
          </CharString>
          <CharString index="540">
            1 -41 1 rrcurveto
            return
          </CharString>
          <CharString index="541">
            -14 rlinecurve
            134 return
          </CharString>
          <CharString index="542">
            hvcurveto
            -240 -146 6 -21 21 -31 15 -15 rlinecurve
            return
          </CharString>
          <CharString index="543">
            -58 2 -24 56 -64 2 -53 2 -46 -38 -16 -67 return
          </CharString>
          <CharString index="544">
            346 callsubr
            -40 -35 -98 -21 vhcurveto
            return
          </CharString>
          <CharString index="545">
            624 rmoveto
            -80 hlineto
            400 callsubr
            80 hlineto
            return
          </CharString>
          <CharString index="546">
            -26 9 rrcurveto
            -74 -32 -46 -43 -67 hhcurveto
            -53 -44 28 return
          </CharString>
          <CharString index="547">
            -23 -48 -92 147 -184 230 -30 hvcurveto
            12 return
          </CharString>
          <CharString index="548">
            -21 -18 -27 215 callgsubr
            14 return
          </CharString>
          <CharString index="549">
            85 -34 72 -65 27 vhcurveto
            endchar
          </CharString>
          <CharString index="550">
            vhcurveto
            -14 -1 -25 -7 -13 return
          </CharString>
          <CharString index="551">
            31 45 vvcurveto
            51 31 20 return
          </CharString>
          <CharString index="552">
            -51 -34 -51 -36 -48 hhcurveto
            return
          </CharString>
          <CharString index="553">
            22 19 -2 -3 15 hvcurveto
            return
          </CharString>
          <CharString index="554">
            -127 104 -92 140 return
          </CharString>
          <CharString index="555">
            rlineto
            172 hlineto
            -202 return
          </CharString>
          <CharString index="556">
            48 -60 104 rrcurveto
            return
          </CharString>
          <CharString index="557">
            rlineto
            34 -30 -53 return
          </CharString>
          <CharString index="558">
            30 10 17 -20 return
          </CharString>
          <CharString index="559">
            133 125 185 84 -34 73 -64 27 return
          </CharString>
          <CharString index="560">
            589 rmoveto
            33 24 24 33 32 -24 24 -33 return
          </CharString>
          <CharString index="561">
            18 vhcurveto
            -1096 -107 callgsubr
            return
          </CharString>
          <CharString index="562">
            -41 -16 -14 42 -50 296 callgsubr
            10 17 return
          </CharString>
          <CharString index="563">
            rmoveto
            15 46 42 10 16 -41 48 -13 -14 -48 return
          </CharString>
          <CharString index="564">
            -59 -51 30 -67 hhcurveto
            -41 -48 -14 -15 -36 hvcurveto
            return
          </CharString>
          <CharString index="565">
            31 4 7 27 hvcurveto
            -238 vlineto
            -17 44 -19 return
          </CharString>
          <CharString index="566">
            397 callsubr
            348 callgsubr
            return
          </CharString>
          <CharString index="567">
            24 -33 355 callgsubr
            hvcurveto
            return
          </CharString>
          <CharString index="568">
            hhcurveto
            -82 -80 41 88 104 77 43 116 39 return
          </CharString>
          <CharString index="569">
            -19 vhcurveto
            3 -9 10 -15 8 -6 rrcurveto
            57 20 return
          </CharString>
          <CharString index="570">
            431 rmoveto
            54 3 58 -9 1 -53 rrcurveto
            -37 return
          </CharString>
          <CharString index="571">
            48 56 vvcurveto
            38 -16 30 -19 22 vhcurveto
            endchar
          </CharString>
          <CharString index="572">
            hhcurveto
            -42 -44 -18 -41 -41 hvcurveto
            return
          </CharString>
          <CharString index="573">
            -27 callsubr
            -50 return
          </CharString>
          <CharString index="574">
            -33 245 callgsubr
            return
          </CharString>
          <CharString index="575">
            vvcurveto
            72 31 55 75 48 22 return
          </CharString>
          <CharString index="576">
            hlineto
            271 callsubr
            return
          </CharString>
          <CharString index="577">
            hlineto
            2 -27 15 -34 17 -28 return
          </CharString>
          <CharString index="578" raw="1">
            f8ad15f7 3806a60b  
          </CharString>
          <CharString index="579">
            -77 -50 -53 -63 -57 40 -57 return
          </CharString>
          <CharString index="580">
            62 callgsubr
            -38 return
          </CharString>
          <CharString index="581">
            78 374 callsubr
            -90 return
          </CharString>
          <CharString index="582">
            rcurveline
            8 19 23 4 25 hhcurveto
            return
          </CharString>
          <CharString index="583">
            vhcurveto
            22 17 rlineto
            42 return
          </CharString>
          <CharString index="584">
            -29 -36 -13 7 -19 return
          </CharString>
          <CharString index="585">
            -35 -97 -21 vhcurveto
            return
          </CharString>
          <CharString index="586">
            -23 -21 -4 -7 return
          </CharString>
          <CharString index="587">
            27 19 vvcurveto
            endchar
          </CharString>
          <CharString index="588">
            -9 26 38 vvcurveto
            55 32 21 43 95 62 return
          </CharString>
          <CharString index="589">
            25 26 -18 19 -26 -25 -19 -19 -26 vhcurveto
            return
          </CharString>
          <CharString index="590">
            vlineto
            36 -40 -5 -10 -1 vhcurveto
            -9 -111 return
          </CharString>
          <CharString index="591">
            hlineto
            -7 -3 -20 -26 -3 -15 rrcurveto
            23 -27 return
          </CharString>
          <CharString index="592">
            hlineto
            224 268 callgsubr
            return
          </CharString>
          <CharString index="593">
            -3 -45 hvcurveto
            -57 -3 -33 -19 -34 vvcurveto
            -38 return
          </CharString>
          <CharString index="594">
            -26 22 -35 11 -11 rrcurveto
            17 19 52 32 return
          </CharString>
          <CharString index="595">
            hlineto
            116 -33 -89 183 -128 hhcurveto
            return
          </CharString>
          <CharString index="596">
            -107 callgsubr
            141 hlineto
            return
          </CharString>
          <CharString index="597">
            -46 -50 -27 hvcurveto
            33 -17 -45 64 -82 hhcurveto
            return
          </CharString>
          <CharString index="598">
            -95 362 callsubr
            285 callsubr
            return
          </CharString>
          <CharString index="599">
            -16 -33 -37 vhcurveto
            endchar
          </CharString>
          <CharString index="600">
            -2 -11 -11 vvcurveto
            return
          </CharString>
          <CharString index="601">
            -18 rlineto
            -13 -1 return
          </CharString>
        <CharString name=".notdef">
          195 171 hmoveto
          410 701 -410 hlineto
          66 -61 rmoveto
          279 -579 -279 hlineto
          endchar
        </CharString>
        <CharString name="A">
          67 215 281 -99 callsubr
        </CharString>
        <CharString name="AE">
          318 296 360 rmoveto
          126 265 7 -1 rlineto
          -264 vlineto
          348 -297 rmoveto
          -260 -7 rlineto
          254 vlineto
          189 -11 4 26 0 31 -5 23 rlinecurve
          -188 331 callsubr
          vlineto
          -426 -1 -306 -54 callsubr
          -77 6 120 250 rlineto
          159 -252 hlineto
          -41 -90 callsubr
          484 144 hlineto
          36 -40 -5 -10 -1 vhcurveto
          endchar
        </CharString>
        <CharString name="Aacute">
          67 469 838 10 callsubr
          -53 -449 -99 callsubr
        </CharString>
        <CharString name="Abreve">
          67 439 886 129 callgsubr
          8 49 -72 101 hhcurveto
          99 50 72 62 8 hvcurveto
          -258 -589 -99 callsubr
        </CharString>
        <CharString name="Acircumflex">
          67 315 227 callgsubr
          -22 6 -19 0 -25 -6 rlinecurve
          -134 -122 243 callsubr
          rlinecurve
          36 -440 -99 callsubr
        </CharString>
        <CharString name="Adieresis">
          67 399 222 callgsubr
          360 callgsubr
          33 hvcurveto
          -13 -471 -99 callsubr
        </CharString>
        <CharString name="Agrave">
          67 246 887 66 callsubr
          -196 -477 -99 callsubr
        </CharString>
        <CharString name="Amacron">
          67 451 824 465 callgsubr
          -236 -483 -99 callsubr
        </CharString>
        <CharString name="Aogonek">
          67 215 281 rmoveto
          87 295 85 -295 rlineto
          192 -281 rmoveto
          38 -4 40 10 -1 hvcurveto
          -67 6 -191 624 -28 3 -20 0 -28 -3 rlinecurve
          -193 -54 callsubr
          -78 6 50 170 rlineto
          203 hlineto
          49 -172 -41 -90 callsubr
          133 hlineto
          -32 -22 -23 -32 -41 471 callgsubr
          14 20 14 vhcurveto
          2 10 -3 21 -6 4 rrcurveto
          -9 -12 -17 -14 -27 hhcurveto
          -28 -19 16 32 36 20 25 38 18 hvcurveto
          endchar
        </CharString>
        <CharString name="Aring">
          67 318 862 rmoveto
          27 17 -17 -27 -27 -17 -18 -27 -27 -18 18 27 27 18 17 27 hvcurveto
          -2 -132 rmoveto
          55 38 36 54 1 hvcurveto
          51 -35 35 -55 -57 -37 -36 -54 -51 35 -35 55 vhcurveto
          -101 -449 -99 callsubr
        </CharString>
        <CharString name="Atilde">
          67 453 237 callgsubr
          66 hhcurveto
          64 34 44 67 10 hvcurveto
          -269 -580 -99 callsubr
        </CharString>
        <CharString name="B">
          0 205 56 rmoveto
          271 vlineto
          49 1 rlineto
          125 1 61 -36 -102 vvcurveto
          -83 -43 -55 -128 2 vhcurveto
          -18 576 rmoveto
          94 6 62 -36 -92 vvcurveto
          -83 -44 -50 -121 vhcurveto
          -37 252 2 hlineto
          -133 53 rmoveto
          -32 1 -40 431 callsubr
          -6 rlineto
          -570 vlineto
          -42 -4 -30 -2 -2 -23 -1 -26 rlinecurve
          252 hlineto
          148 90 75 127 -1 hvcurveto
          93 -69 52 -78 13 vhcurveto
          71 27 44 52 78 vvcurveto
          84 -59 80 -151 vhcurveto
          endchar
        </CharString>
        <CharString name="C">
          13 345 694 rmoveto
          -202 -109 -159 -214 4 hvcurveto
          177 callsubr
          9 callsubr
          vhcurveto
          endchar
        </CharString>
        <CharString name="CR">
          -290 endchar
        </CharString>
        <CharString name="Cacute">
          13 345 694 rmoveto
          -202 -109 -159 -214 4 hvcurveto
          177 callsubr
          9 callsubr
          vhcurveto
          143 144 10 callsubr
          endchar
        </CharString>
        <CharString name="Ccaron">
          13 499 94 callsubr
          19 0 22 6 rlinecurve
          163 -622 rmoveto
          9 callsubr
          -202 -109 -159 -214 4 vhcurveto
          177 callsubr
          endchar
        </CharString>
        <CharString name="Ccedilla">
          13 288 -81 rmoveto
          10 callgsubr
          7 29 rlineto
          116 7 78 59 38 vvcurveto
          9 -4 12 -9 4 vhcurveto
          9 callsubr
          -202 -109 -159 -214 4 vhcurveto
          3 -197 89 -129 175 -9 rrcurveto
          endchar
        </CharString>
        <CharString name="D">
          120 204 56 rmoveto
          569 13 callsubr
          -569 35 callsubr
        </CharString>
        <CharString name="Dcaron">
          120 461 860 rmoveto
          -8 12 -9 12 -14 8 -135 -88 rcurveline
          -137 88 -14 -8 -8 -10 -7 -14 rlinecurve
          133 -122 25 -6 19 0 22 6 rlinecurve
          -124 -682 rmoveto
          569 13 callsubr
          -569 35 callsubr
        </CharString>
        <CharString name="Dcroat">
          29 callsubr
        </CharString>
        <CharString name="E">
          -88 callsubr
          endchar
        </CharString>
        <CharString name="Eacute">
          -88 callsubr
          259 476 381 callgsubr
          18 -9 rrcurveto
          endchar
        </CharString>
        <CharString name="Ecaron">
          0 475 94 callsubr
          18 0 23 6 rlinecurve
          117 -674 47 callgsubr
        </CharString>
        <CharString name="Ecircumflex">
          0 310 227 callgsubr
          -23 6 -19 0 -24 -6 rlinecurve
          -134 -122 243 callsubr
          rlinecurve
          286 -658 47 callgsubr
        </CharString>
        <CharString name="Edieresis">
          -88 callsubr
          18 390 88 callgsubr
          -25 -26 -31 -32 25 -25 31 hvcurveto
          endchar
        </CharString>
        <CharString name="Edotaccent">
          -88 callsubr
          107 413 rmoveto
          33 24 23 33 33 -24 24 -33 -32 -24 -24 -33 -33 24 -23 32 hvcurveto
          endchar
        </CharString>
        <CharString name="Egrave">
          -88 callsubr
          169 363 23 callsubr
        </CharString>
        <CharString name="Emacron">
          -88 callsubr
          -31 462 257 callsubr
        </CharString>
        <CharString name="Eogonek">
          0 526 35 rmoveto
          -7 -2 rlineto
          111 483 callsubr
          -38 callgsubr
          262 vlineto
          241 -4 9 -115 rlineto
          10 -1 40 -4 35 vvcurveto
          144 -426 vlineto
          -39 4 -39 431 callsubr
          -7 -78 callsubr
          415 hlineto
          -29 -22 -20 -31 -38 290 callgsubr
          -28 -20 15 33 39 25 27 47 19 hvcurveto
          endchar
        </CharString>
        <CharString name="Eth">
          29 callsubr
        </CharString>
        <CharString name="Euro">
          -22 369 217 rmoveto
          55 -191 vlineto
          -1 10 0 10 11 vvcurveto
          20 192 55 -187 vlineto
          117 16 56 72 77 hhcurveto
          64 38 -48 -69 hvcurveto
          39 1 28 19 42 vvcurveto
          63 -61 49 -94 -140 -85 -98 -148 -22 vhcurveto
          -62 -55 57 hlineto
          -1 -9 0 -10 -9 -8 0 -7 -8 vvcurveto
          -56 -55 61 hlineto
          -143 21 81 -90 128 hhcurveto
          93 80 48 45 11 -5 9 -7 4 hvcurveto
          -27 -31 -47 -31 -62 hhcurveto
          -91 -55 67 107 -18 hvcurveto
          endchar
        </CharString>
        <CharString name="F">
          -40 501 679 rmoveto
          -423 hlineto
          -39 4 -39 431 callsubr
          -7 -78 callsubr
          220 -66 callsubr
          -88 6 rlineto
          262 vlineto
          188 -11 5 26 -1 32 -5 22 rlinecurve
          -187 -15 rlineto
          252 vlineto
          234 -3 11 -110 rlineto
          10 -1 40 -4 35 vvcurveto
          endchar
        </CharString>
        <CharString name="G">
          86 399 309 -52 callsubr
        </CharString>
        <CharString name="Gbreve">
          86 459 886 129 callgsubr
          8 49 -72 101 hhcurveto
          99 50 72 62 8 hvcurveto
          -94 -561 -52 callsubr
        </CharString>
        <CharString name="H">
          170 612 56 rmoveto
          569 vlineto
          40 50 callgsubr
          119 callgsubr
          rlineto
          -257 -319 259 vlineto
          -81 callgsubr
          204 -66 callsubr
          -74 6 rlineto
          255 320 -257 -82 callsubr
          203 85 callgsubr
        </CharString>
        <CharString name="I">
          -236 205 56 rmoveto
          -1 569 1 hlineto
          -81 callgsubr
          204 85 callgsubr
        </CharString>
        <CharString name="Iacute">
          -236 317 838 10 callsubr
          89 -105 rmoveto
          -81 callgsubr
          204 291 callsubr
          -1 569 hlineto
          endchar
        </CharString>
        <CharString name="Icircumflex">
          -236 205 625 rmoveto
          -81 callgsubr
          204 291 callsubr
          -1 569 hlineto
          -7 249 rmoveto
          -22 6 -19 0 -25 -6 -134 -122 rcurveline
          243 callsubr
          136 87 rcurveline
          369 callsubr
          endchar
        </CharString>
        <CharString name="Idieresis">
          -236 132 809 rmoveto
          374 callgsubr
          360 callgsubr
          33 31 25 25 32 vhcurveto
          73 -184 rmoveto
          -81 callgsubr
          204 291 callsubr
          -1 569 hlineto
          43 241 rmoveto
          -31 360 callgsubr
          31 33 25 25 32 31 -25 26 -33 hvcurveto
          endchar
        </CharString>
        <CharString name="Idotaccent">
          -236 165 775 rmoveto
          33 23 23 33 33 -23 24 -33 354 callsubr
          hvcurveto
          40 -719 rmoveto
          -1 569 1 hlineto
          -81 callgsubr
          204 85 callgsubr
        </CharString>
        <CharString name="Igrave">
          -236 94 887 66 callsubr
          -54 -702 rmoveto
          -1 569 1 hlineto
          -81 callgsubr
          204 85 callgsubr
        </CharString>
        <CharString name="Imacron">
          -236 205 625 rmoveto
          -81 callgsubr
          204 291 callsubr
          -1 569 hlineto
          -178 199 257 callsubr
        </CharString>
        <CharString name="Iogonek">
          -236 282 37 rmoveto
          -3 -1 rlineto
          6 -1 5 3 vvcurveto
          -73 6 rlineto
          -1 569 1 hlineto
          -81 callgsubr
          168 hlineto
          -28 -22 -19 -29 -37 vvcurveto
          -47 38 -31 53 36 333 callsubr
          -20 15 33 39 26 27 47 19 hvcurveto
          endchar
        </CharString>
        <CharString name="J">
          -206 113 679 rmoveto
          -38 -32 callgsubr
          79 -6 rlineto
          1 -499 hlineto
          -96 -19 -27 -33 -35 -14 22 36 -1 vhcurveto
          -42 1 -17 -24 -31 vvcurveto
          -37 37 -30 51 101 59 83 112 vhcurveto
          492 vlineto
          38 199 callgsubr
        </CharString>
        <CharString name="K">
          54 407 679 rmoveto
          44 callgsubr
          -62 6 364 callgsubr
          endchar
        </CharString>
        <CharString name="L">
          -21 452 62 -43 callsubr
        </CharString>
        <CharString name="Lacute">
          -21 362 838 336 callsubr
          291 -668 -43 callsubr
        </CharString>
        <CharString name="Lcaron">
          42 386 541 rmoveto
          45 47 23 74 -3 73 -10 26 -71 6 -19 -18 14 -44 0 -94 -20 -50 rrcurveto
          -7 33 -18 8 5 vhcurveto
          66 -479 -43 callsubr
        </CharString>
        <CharString name="Lslash">
          -16 457 62 rmoveto
          -248 -6 rlineto
          242 vlineto
          149 117 -36 44 -113 -89 rlineto
          256 1 vlineto
          50 3 40 2 -6 40 1 10 rlinecurve
          -213 346 callgsubr
          72 -6 rlineto
          -323 vlineto
          -97 -76 36 -44 61 48 rlineto
          -175 -82 callsubr
          473 150 hlineto
          35 -40 -4 -10 -1 vhcurveto
          endchar
        </CharString>
        <CharString name="M">
          274 750 58 rmoveto
          -44 566 70 6 rlineto
          10 1 4 41 -37 hhcurveto
          -142 hlineto
          -176 -437 -195 437 rlineto
          -135 346 callgsubr
          70 -6 -43 -570 -43 -90 callsubr
          188 304 callsubr
          -75 6 35 493 195 -434 15 -3 21 3 14 4 rlinecurve
          186 447 37 -512 -39 -90 callsubr
          198 85 callgsubr
        </CharString>
        <CharString name="N">
          129 489 679 -82 callgsubr
        </CharString>
        <CharString name="NULL">
          -558 endchar
        </CharString>
        <CharString name="Nacute">
          129 497 838 10 callsubr
          193 -51 -82 callgsubr
        </CharString>
        <CharString name="Ncaron">
          129 509 196 callsubr
          113 -58 -82 callgsubr
        </CharString>
        <CharString name="Ntilde">
          129 481 237 callgsubr
          67 hhcurveto
          63 34 44 67 10 hvcurveto
          -23 -182 -82 callgsubr
        </CharString>
        <CharString name="O">
          97 341 694 rmoveto
          -85 callgsubr
          endchar
        </CharString>
        <CharString name="OE">
          338 857 hmoveto
          144 483 callsubr
          -261 -7 rlineto
          254 vlineto
          189 -11 5 26 -1 31 -4 23 rlinecurve
          -189 331 callsubr
          -385 vlineto
          10 -33 -35 5 -34 hhcurveto
          -208 -108 -158 -217 4 hvcurveto
          -204 3 106 -132 172 hhcurveto
          39 35 5 10 32 hvcurveto
          -295 339 rmoveto
          174 58 121 149 1 vhcurveto
          47 37 -11 -20 29 hvcurveto
          -523 vlineto
          -23 -30 -37 -12 -49 hhcurveto
          -156 -48 123 170 hvcurveto
          endchar
        </CharString>
        <CharString name="Oacute">
          97 341 694 rmoveto
          -85 callgsubr
          165 205 381 callgsubr
          17 -9 rrcurveto
          endchar
        </CharString>
        <CharString name="Ocircumflex">
          97 340 808 rmoveto
          135 -87 14 7 9 12 8 12 rlinecurve
          -132 122 -23 6 -19 0 -24 -6 rlinecurve
          -134 -122 7 -14 8 -9 15 -8 rlinecurve
          121 -675 rmoveto
          -138 -59 120 173 167 callgsubr
          hvcurveto
          139 1 61 -120 -178 vvcurveto
          -174 -65 -115 -138 -1 vhcurveto
          293 308 rmoveto
          256 -3 -138 84 -136 hhcurveto
          -195 -111 -148 -225 3 hvcurveto
          -209 3 100 -127 170 hhcurveto
          201 107 148 221 -1 hvcurveto
          endchar
        </CharString>
        <CharString name="Odieresis">
          97 341 694 rmoveto
          -85 callgsubr
          -76 119 88 callgsubr
          360 callgsubr
          31 hvcurveto
          endchar
        </CharString>
        <CharString name="Ograve">
          97 328 633 rmoveto
          139 1 61 -120 -178 vvcurveto
          -174 -65 -115 -138 -1 vhcurveto
          -138 -59 120 173 167 callgsubr
          hvcurveto
          13 61 rmoveto
          -195 -111 -148 -225 3 hvcurveto
          -209 3 100 -127 170 hhcurveto
          201 107 148 221 -1 hvcurveto
          256 -3 -138 84 -136 hhcurveto
          62 31 23 callsubr
        </CharString>
        <CharString name="Ohungarumlaut">
          97 618 802 -87 callgsubr
          22 108 -87 callgsubr
          103 hmoveto
          -85 callgsubr
          endchar
        </CharString>
        <CharString name="Omacron">
          97 341 694 rmoveto
          -85 callgsubr
          -125 191 rmoveto
          -60 272 60 vlineto
          endchar
        </CharString>
        <CharString name="Oslash">
          131 494 526 rmoveto
          23 -49 11 -65 -76 vvcurveto
          -174 -65 -115 -138 -1 vhcurveto
          -38 -31 9 16 -27 hvcurveto
          -49 48 rmoveto
          -35 52 -17 76 92 vvcurveto
          167 callgsubr
          52 41 -16 -31 32 vhcurveto
          123 82 rmoveto
          -59 29 -26 -45 rlineto
          30 -45 -53 12 -52 hhcurveto
          -195 -111 -148 -225 3 hvcurveto
          2 -123 35 -94 63 -57 -18 -32 rcurveline
          58 -32 16 27 rlineto
          -16 34 39 -9 44 hhcurveto
          201 107 148 221 -1 hvcurveto
          -1 118 -31 82 -45 53 rrcurveto
          endchar
        </CharString>
        <CharString name="Otilde">
          97 341 694 rmoveto
          -85 callgsubr
          -124 121 rmoveto
          24 8 21 23 26 47 28 -51 67 hhcurveto
          64 33 44 67 11 hvcurveto
          -31 9 rlineto
          -29 -7 -23 -23 -34 -54 -23 55 -61 hhcurveto
          -49 -42 -40 -68 -13 hvcurveto
          endchar
        </CharString>
        <CharString name="P">
          4 262 631 rmoveto
          127 7 62 -53 -105 vvcurveto
          -107 -66 -55 -131 vhcurveto
          -15 -18 1 -17 hhcurveto
          310 vlineto
          -130 52 rmoveto
          -28 -3 -31 -19 1 hvcurveto
          73 -6 rlineto
          -571 -82 callsubr
          210 304 callsubr
          -79 6 rlineto
          213 vlineto
          -1 19 23 -1 19 hhcurveto
          162 115 67 156 111 -82 80 -169 hvcurveto
          endchar
        </CharString>
        <CharString name="Q">
          107 128 339 rmoveto
          167 callgsubr
          vhcurveto
          139 1 61 -120 -178 vvcurveto
          -174 -65 -115 -138 -1 vhcurveto
          -138 -59 120 173 hvcurveto
          490 -393 rmoveto
          -11 -17 -20 -5 -14 hhcurveto
          -39 -80 25 35 -77 hvcurveto
          162 27 86 139 -1 198 rrcurveto
          256 -3 -138 84 -136 hhcurveto
          -195 -111 -148 -225 3 hvcurveto
          3 -191 84 -123 145 -19 rrcurveto
          -49 80 117 -80 87 hhcurveto
          41 31 24 35 13 -3 9 -5 6 hvcurveto
          endchar
        </CharString>
        <CharString name="R">
          34 205 629 -84 callsubr
        </CharString>
        <CharString name="Racute">
          34 433 838 10 callsubr
          -27 -101 -84 callsubr
        </CharString>
        <CharString name="Rcaron">
          34 444 94 callsubr
          19 0 22 6 rlinecurve
          -107 -108 -84 callsubr
        </CharString>
        <CharString name="S">
          -51 269 694 rmoveto
          -37 callgsubr
          8 callsubr
          endchar
        </CharString>
        <CharString name="Sacute">
          -51 269 694 rmoveto
          -37 callgsubr
          8 callsubr
          149 144 336 callsubr
          endchar
        </CharString>
        <CharString name="Scaron">
          -51 430 196 callsubr
          -2 -342 rmoveto
          8 callsubr
          -37 callgsubr
          endchar
        </CharString>
        <CharString name="T">
          54 20 679 -48 callsubr
        </CharString>
        <CharString name="Tcaron">
          54 476 860 -16 callgsubr
          -324 -58 -48 callsubr
        </CharString>
        <CharString name="Thorn">
          39 255 502 rmoveto
          128 63 -48 -103 -102 -66 -53 -133 -11 -17 0 1 -15 hvcurveto
          305 vlineto
          51 vmoveto
          73 1 vlineto
          41 3 40 2 -6 40 1 10 rlinecurve
          -204 hlineto
          -38 196 callgsubr
          73 -6 rlineto
          -570 -82 callsubr
          204 291 callsubr
          -1 90 hlineto
          18 24 -1 14 hhcurveto
          165 115 63 151 113 -83 81 -174 hvcurveto
          endchar
        </CharString>
        <CharString name="U">
          95 458 679 44 callsubr
        </CharString>
        <CharString name="Uacute">
          95 458 679 -96 callgsubr
          -151 159 rmoveto
          -10 375 callsubr
          -165 -130 rcurveline
          6 -12 9 276 callsubr
          endchar
        </CharString>
        <CharString name="Ucircumflex">
          95 330 227 callgsubr
          -23 6 -18 0 -25 -6 rlinecurve
          -134 -122 243 callsubr
          rlinecurve
          264 -42 44 callsubr
        </CharString>
        <CharString name="Udieresis">
          95 458 679 -96 callgsubr
          -392 73 88 callgsubr
          -25 -26 -31 -32 25 -25 31 hvcurveto
          endchar
        </CharString>
        <CharString name="Ugrave">
          95 458 679 -96 callgsubr
          -241 46 23 callsubr
        </CharString>
        <CharString name="Uhungarumlaut">
          95 608 802 -87 callgsubr
          22 108 -87 callgsubr
          230 -15 44 callsubr
        </CharString>
        <CharString name="Umacron">
          95 458 679 -96 callgsubr
          -441 145 257 callsubr
        </CharString>
        <CharString name="Uogonek">
          95 458 679 rmoveto
          119 callgsubr
          rlineto
          -375 vlineto
          -142 -64 -61 -105 -99 -51 62 147 vhcurveto
          371 vlineto
          41 50 callgsubr
          16 callsubr
          -367 vlineto
          -179 70 -92 154 vhcurveto
          -29 -22 -20 -30 -38 273 callsubr
          16 32 40 25 25 46 19 hvcurveto
          109 31 49 94 144 vvcurveto
          49 callsubr
          endchar
        </CharString>
        <CharString name="Uring">
          95 458 679 -96 callgsubr
          -300 227 rmoveto
          -56 -38 -36 -54 -51 36 -35 54 56 38 36 54 1 hvcurveto
          51 -35 35 -56 vhcurveto
          -2 -44 rmoveto
          27 18 -17 -27 -27 -18 -18 -27 -27 -17 18 27 27 17 17 27 hvcurveto
          endchar
        </CharString>
        <CharString name="V">
          65 455 679 rmoveto
          -37 3 18 callgsubr
          74 -6 -176 -509 -161 511 60 callsubr
          -199 hlineto
          -37 -32 callgsubr
          58 -6 210 -623 rlineto
          68 hlineto
          223 625 22 3 40 4 -6 37 1 10 rlinecurve
          endchar
        </CharString>
        <CharString name="W">
          395 788 679 rmoveto
          119 callgsubr
          -155 -509 -147 502 rlineto
          -66 hlineto
          -166 -500 -137 509 38 -69 callgsubr
          -194 hlineto
          -37 -32 callgsubr
          55 -6 186 -623 rlineto
          72 hlineto
          160 462 147 -462 rlineto
          73 hlineto
          201 626 18 2 40 3 -8 38 1 10 rlinecurve
          endchar
        </CharString>
        <CharString name="X">
          85 568 56 rmoveto
          -199 292 186 279 rlineto
          3 hlineto
          27 2 40 3 -6 28 callgsubr
          -180 hlineto
          -38 196 callgsubr
          69 -6 -141 -225 -154 227 rlineto
          0 vlineto
          34 3 39 3 -5 28 callgsubr
          -204 346 callgsubr
          61 -6 199 -294 -190 -276 -35 -90 callsubr
          185 -66 callsubr
          -69 6 rlineto
          0 vlineto
          145 225 154 -227 rlineto
          -1 hlineto
          -31 -2 -39 -3 5 -39 -1 -10 rlinecurve
          203 85 callgsubr
        </CharString>
        <CharString name="Y">
          46 434 681 -49 callgsubr
        </CharString>
        <CharString name="Yacute">
          46 468 838 10 callsubr
          167 -49 -49 callgsubr
        </CharString>
        <CharString name="Ydieresis">
          46 398 222 callgsubr
          -25 -26 -31 -32 25 -25 33 hvcurveto
          207 -71 -49 callgsubr
        </CharString>
        <CharString name="Z">
          -8 451 69 -47 callsubr
        </CharString>
        <CharString name="Zacute">
          -8 450 838 10 callsubr
          202 -661 -47 callsubr
        </CharString>
        <CharString name="Zcaron">
          -8 461 860 -16 callgsubr
          122 -668 -47 callsubr
        </CharString>
        <CharString name="Zdotaccent">
          -8 298 775 rmoveto
          33 23 23 33 33 -23 24 -33 354 callsubr
          hvcurveto
          153 -706 -47 callsubr
        </CharString>
        <CharString name="a">
          -50 341 94 -100 callsubr
        </CharString>
        <CharString name="aacute">
          -50 391 647 -87 callgsubr
          151 -445 -100 callsubr
        </CharString>
        <CharString name="abreve">
          -50 361 692 129 callgsubr
          9 48 -72 101 hhcurveto
          99 50 72 62 9 hvcurveto
          -55 -582 -100 callsubr
        </CharString>
        <CharString name="acircumflex">
          -50 237 622 rmoveto
          136 -87 13 7 10 13 7 11 rlinecurve
          -132 123 -22 5 -19 0 -25 206 callgsubr
          240 -441 -100 callsubr
        </CharString>
        <CharString name="acute">
          42 408 647 -87 callgsubr
          endchar
        </CharString>
        <CharString name="adieresis">
          -50 320 47 callsubr
          191 -472 -100 callsubr
        </CharString>
        <CharString name="ae">
          217 572 509 rmoveto
          -65 -63 -29 -55 -43 hvcurveto
          74 -32 -96 10 -38 hhcurveto
          -98 -66 -45 -59 -41 32 -15 35 4 hvcurveto
          39 1 21 57 76 hhcurveto
          72 33 -50 -76 hvcurveto
          -69 vlineto
          7 -28 -35 4 -37 hhcurveto
          -154 -46 -73 -73 -83 60 -51 93 84 65 41 43 39 hvcurveto
          -57 37 61 -27 72 hhcurveto
          103 79 54 36 10 -6 14 -9 6 hvcurveto
          -35 -43 -43 -18 -54 hhcurveto
          -112 -35 79 100 hvcurveto
          11 1 7 9 vvcurveto
          311 51 hlineto
          98 1 -44 102 -129 hhcurveto
          -331 -298 rmoveto
          40 36 -10 -12 24 hvcurveto
          -95 vlineto
          -27 -32 -40 -19 -47 hhcurveto
          -56 -33 28 54 51 38 30 70 hvcurveto
          321 239 rmoveto
          61 35 -51 -89 hvcurveto
          -219 hlineto
          87 15 44 53 64 hhcurveto
          endchar
        </CharString>
        <CharString name="agrave">
          -50 168 701 66 callsubr
          8 -478 -100 callsubr
        </CharString>
        <CharString name="amacron">
          -50 373 638 465 callgsubr
          -32 -484 -100 callsubr
        </CharString>
        <CharString name="ampersand">
          173 268 44 rmoveto
          -101 -45 59 68 51 27 51 52 36 hvcurveto
          12 -15 13 -15 15 -16 55 -60 60 -60 58 -48 rrcurveto
          -35 -44 -52 -16 -50 hhcurveto
          -4 579 rmoveto
          30 47 -22 -64 -59 -28 -65 -69 -32 hvcurveto
          -48 63 -23 49 38 vvcurveto
          52 32 40 59 vhcurveto
          353 -338 rmoveto
          38 2 -7 36 1 10 rrcurveto
          -155 hlineto
          -36 4 -37 -10 1 hvcurveto
          61 -6 -13 -53 -20 -43 -24 -34 rlinecurve
          -57 47 -61 60 -55 63 -8 9 -7 8 -7 8 rrcurveto
          72 27 73 68 96 vvcurveto
          91 -75 48 -76 -107 -63 -66 -90 -48 20 -52 53 -70 vhcurveto
          -98 -53 -33 -77 -64 vvcurveto
          -97 69 -76 143 78 73 25 52 60 vhcurveto
          -46 64 61 -30 51 hhcurveto
          56 24 36 30 13 -5 13 -9 8 hvcurveto
          -18 -12 -28 -10 -22 hhcurveto
          -32 -46 23 37 -51 hvcurveto
          31 44 26 56 16 68 rrcurveto
          endchar
        </CharString>
        <CharString name="aogonek">
          -50 341 94 rmoveto
          -28 -33 -40 -18 -47 hhcurveto
          -56 -32 30 52 50 38 31 69 40 34 -8 -13 27 hvcurveto
          85 -147 rmoveto
          285 vlineto
          148 -109 33 -82 -98 -66 -45 -58 -42 31 -15 36 4 vhcurveto
          45 2 25 51 70 hhcurveto
          72 34 -47 -79 hvcurveto
          -69 vlineto
          7 -29 -35 4 -36 hhcurveto
          -155 -45 -75 -69 -86 60 -50 92 63 52 25 33 37 hvcurveto
          5 -24 12 -19 24 -9 rrcurveto
          -30 -22 -22 -31 -39 273 callsubr
          15 33 30 15 23 27 17 hvcurveto
          34 4 18 18 28 vvcurveto
          endchar
        </CharString>
        <CharString name="apostrophemod">
          -351 103 685 187 callgsubr
          endchar
        </CharString>
        <CharString name="approxequal">
          5 442 341 rmoveto
          -32 10 -9 -28 -25 -22 -36 1 rlinecurve
          436 callsubr
          2 -1 rcurveline
          -2 -9 33 -13 10 24 23 22 28 -1 rlinecurve
          439 callgsubr
          -2 1 rcurveline
          endchar
        </CharString>
        <CharString name="aring">
          -50 240 677 rmoveto
          27 17 -17 -28 -27 -17 -17 -27 -27 -17 17 27 28 17 17 27 hvcurveto
          -2 -133 rmoveto
          55 38 36 54 1 hvcurveto
          52 -35 35 -55 -57 -37 -36 -55 -51 35 -35 55 vhcurveto
          103 -450 -100 callsubr
        </CharString>
        <CharString name="asciicircum">
          -62 441 204 rmoveto
          -165 449 rlineto
          -47 hlineto
          -175 -449 rlineto
          78 hlineto
          119 311 113 -311 rlineto
          endchar
        </CharString>
        <CharString name="asciitilde">
          5 133 238 rmoveto
          10 24 23 22 28 -1 439 callgsubr
          -32 10 rcurveline
          -9 -28 -25 -22 -36 1 436 callsubr
          rrcurveto
          endchar
        </CharString>
        <CharString name="asterisk">
          -14 266 558 rmoveto
          27 153 -25 8 -45 1 -26 -9 rlinecurve
          29 -154 -138 74 -16 -20 -11 -43 -1 -30 rlinecurve
          155 -19 -112 -107 15 -23 36 -26 27 -7 rlinecurve
          65 138 65 -139 28 8 35 26 16 22 rlinecurve
          -114 109 156 19 rlineto
          27 -12 42 -16 23 vhcurveto
          endchar
        </CharString>
        <CharString name="at">
          432 568 159 rmoveto
          -30 -39 -31 -19 -42 hhcurveto
          -83 -22 71 85 13 hvcurveto
          73 10 40 90 91 hhcurveto
          45 34 -21 -18 16 hvcurveto
          149 -444 rmoveto
          -40 -61 -84 -17 -80 hhcurveto
          -238 -158 146 217 228 157 151 235 207 138 -111 -167 -151 -90 -98 -134 3 hvcurveto
          51 373 -80 -7 -1 -10 rlineto
          15 -29 -30 8 -39 hhcurveto
          -135 -82 -97 -139 -16 hvcurveto
          -145 -17 71 -59 88 hhcurveto
          58 45 26 30 36 hvcurveto
          -42 -2 25 -7 40 hhcurveto
          180 120 124 186 193 -161 128 -242 -273 -183 -174 -262 -247 180 -165 269 100 80 24 36 67 hvcurveto
          endchar
        </CharString>
        <CharString name="atilde">
          -50 377 675 rmoveto
          -8 -28 -23 -22 -34 204 callsubr
          31 -12 rcurveline
          9 23 21 207 callgsubr
          13 66 rrcurveto
          -67 -571 -100 callsubr
        </CharString>
        <CharString name="b">
          4 174 383 rmoveto
          37 41 34 21 49 hhcurveto
          97 40 -85 -108 -102 -33 -99 -105 -56 -45 27 20 -22 hvcurveto
          609 vmoveto
          205 callsubr
          -592 vlineto
          81 -28 rlineto
          -15 33 33 -10 47 hhcurveto
          159 85 116 167 -3 hvcurveto
          171 -4 -94 70 -99 hhcurveto
          -68 -49 -31 -35 -37 hvcurveto
          endchar
        </CharString>
        <CharString name="backslash">
          -164 373 -119 rmoveto
          -277 815 rlineto
          -77 hlineto
          277 -815 rlineto
          endchar
        </CharString>
        <CharString name="bar">
          -286 100 -195 rmoveto
          72 911 -72 hlineto
          endchar
        </CharString>
        <CharString name="braceleft">
          -224 236 716 rmoveto
          -77 -58 -52 -80 hvcurveto
          -73 16 -57 -75 vvcurveto
          -36 -8 -20 -15 -17 vhcurveto
          -7 -9 -10 -8 -27 -11 rrcurveto
          -30 vlineto
          26 -11 9 -6 9 -11 rrcurveto
          15 -18 8 -18 -34 -81 -16 -57 -71 vvcurveto
          -80 56 -52 75 33 35 5 8 20 vhcurveto
          -5 41 rlineto
          -1 -9 -11 -1 -10 hhcurveto
          -68 -40 25 60 hvcurveto
          50 17 78 61 vvcurveto
          74 -23 40 -30 10 vhcurveto
          8 vlineto
          30 9 23 40 75 74 -17 64 50 vvcurveto
          59 40 26 68 10 11 -1 -1 9 vhcurveto
          5 41 rlineto
          8 -14 -34 5 -36 hhcurveto
          endchar
        </CharString>
        <CharString name="braceright">
          -224 8 662 rmoveto
          1 9 11 1 10 hhcurveto
          68 40 -26 -59 hvcurveto
          -50 -17 -64 -74 vvcurveto
          -75 23 -40 30 -9 vhcurveto
          -8 vlineto
          -30 -10 -23 -40 -74 -61 17 -78 -50 vvcurveto
          -60 -40 -25 -68 -10 -11 1 1 -9 vhcurveto
          -5 -41 rlineto
          -8 20 35 -5 33 hhcurveto
          75 56 52 80 hvcurveto
          71 -16 57 81 vvcurveto
          34 8 18 15 18 vhcurveto
          9 11 9 6 26 11 rrcurveto
          30 vlineto
          -27 11 -10 8 -7 9 rrcurveto
          -15 17 -8 20 36 75 16 57 73 vvcurveto
          80 -58 52 -77 -36 -34 -5 -8 -14 vhcurveto
          endchar
        </CharString>
        <CharString name="bracketleft">
          -317 141 656 rmoveto
          81 51 -153 -876 153 51 -81 hlineto
          endchar
        </CharString>
        <CharString name="bracketright">
          -323 100 -118 rmoveto
          -81 -51 153 876 -153 -51 81 hlineto
          endchar
        </CharString>
        <CharString name="breve">
          42 287 613 rmoveto
          -77 -36 51 29 -11 hvcurveto
          -35 -17 rlineto
          -62 9 48 -72 101 hhcurveto
          100 49 72 62 9 hvcurveto
          -35 16 rlineto
          -29 -11 -26 -50 -85 hhcurveto
          endchar
        </CharString>
        <CharString name="brokenbar">
          -286 172 175 rmoveto
          -72 -370 72 hlineto
          -72 541 rmoveto
          72 370 -72 hlineto
          endchar
        </CharString>
        <CharString name="bullet">
          -101 228 238 rmoveto
          55 43 42 55 54 -43 43 -55 -54 -43 -43 -54 -55 43 -42 54 hvcurveto
          endchar
        </CharString>
        <CharString name="c">
          -100 277 509 rmoveto
          -152 -88 -117 -163 1 hvcurveto
          202 callgsubr
          25 callsubr
          vhcurveto
          endchar
        </CharString>
        <CharString name="cacute">
          -100 419 647 -87 callgsubr
          59 -30 rmoveto
          -152 -88 -117 -163 1 hvcurveto
          202 callgsubr
          25 callsubr
          vhcurveto
          endchar
        </CharString>
        <CharString name="caron">
          42 269 618 rmoveto
          63 callgsubr
          18 0 23 5 rlinecurve
          132 123 -7 11 -10 13 -14 7 rlinecurve
          endchar
        </CharString>
        <CharString name="ccaron">
          -100 430 674 12 callgsubr
          19 0 22 5 rlinecurve
          115 -446 rmoveto
          25 callsubr
          -152 -88 -117 -163 1 vhcurveto
          202 callgsubr
          endchar
        </CharString>
        <CharString name="ccedilla">
          -100 198 -81 rmoveto
          10 callgsubr
          7 28 rlineto
          89 5 81 48 37 vvcurveto
          10 -6 14 -10 6 vhcurveto
          25 callsubr
          -152 -88 -117 -163 1 vhcurveto
          1 -133 62 -95 115 -14 rrcurveto
          endchar
        </CharString>
        <CharString name="cedilla">
          42 315 18 rmoveto
          -43 hlineto
          -26 -99 rlineto
          10 callgsubr
          endchar
        </CharString>
        <CharString name="cent">
          -66 311 600 rmoveto
          -19 8 -37 0 -17 -8 7 -94 rcurveline
          -127 -20 -70 -109 2 -153 1 -133 68 -102 127 -5 -8 -92 rcurveline
          17 -8 37 0 19 8 -7 96 rcurveline
          76 12 62 39 35 vvcurveto
          8 -5 14 -11 7 vhcurveto
          -35 -41 -44 -17 -51 hhcurveto
          -118 -33 97 104 109 45 88 90 70 26 -53 -47 1 hvcurveto
          29 -2 36 13 49 vvcurveto
          56 -50 39 -82 5 vhcurveto
          endchar
        </CharString>
        <CharString name="circumflex">
          42 303 689 198 callsubr
        </CharString>
        <CharString name="colon">
          -345 107 -15 rmoveto
          35 27 27 35 36 -27 27 -35 -36 -27 -27 -36 -35 27 -27 36 hvcurveto
          317 vmoveto
          35 27 27 36 36 -27 27 -35 -36 -27 -27 -36 -36 27 -27 36 hvcurveto
          endchar
        </CharString>
        <CharString name="comma">
          -349 104 105 -98 callsubr
          endchar
        </CharString>
        <CharString name="copyright">
          114 337 598 rmoveto
          -175 -112 -118 -170 -173 114 -113 173 172 113 115 171 175 -116 113 -169 hvcurveto
          -60 vmoveto
          127 92 -86 -142 -138 -88 -88 -131 -133 -87 88 138 134 83 94 137 hvcurveto
          104 -132 rmoveto
          35 -32 24 -54 -89 -52 -67 -98 1 vhcurveto
          -79 46 -60 82 55 46 29 23 7 -3 11 -6 4 vhcurveto
          -19 -24 -25 -6 -26 hhcurveto
          -66 -16 50 57 58 25 45 44 37 17 -25 -23 hvcurveto
          16 -1 24 9 26 vvcurveto
          endchar
        </CharString>
        <CharString name="currency">
          31 488 281 rmoveto
          48 -13 42 -24 32 vhcurveto
          90 76 -15 19 -22 23 -17 9 rlinecurve
          -78 -88 rlineto
          21 -30 -39 11 -44 hhcurveto
          -45 -39 -12 -21 -32 hvcurveto
          -79 89 -17 -9 -22 -23 -14 -19 rlinecurve
          92 -78 rlineto
          -24 -32 -12 -41 -47 vvcurveto
          -46 12 -40 22 -31 vhcurveto
          -90 -77 14 -19 22 -23 17 -10 rlinecurve
          79 89 rlineto
          -22 31 39 -12 46 hhcurveto
          45 39 10 22 31 hvcurveto
          76 -87 17 10 22 23 15 19 rlinecurve
          -88 75 rlineto
          23 31 12 41 47 vvcurveto
          -191 -125 rmoveto
          -73 -49 51 74 75 49 51 73 71 49 -51 -75 -74 -49 -51 -71 hvcurveto
          endchar
        </CharString>
        <CharString name="d">
          -5 113 callsubr
          84 -356 rmoveto
          659 vlineto
          205 callsubr
          -145 43 callgsubr
          endchar
        </CharString>
        <CharString name="dagger">
          -58 288 523 rmoveto
          274 callsubr
          9 -625 16 -4 24 0 17 4 rlinecurve
          8 625 483 callgsubr
          endchar
        </CharString>
        <CharString name="daggerdbl">
          -58 285 326 rmoveto
          2 144 483 callgsubr
          -136 -11 274 callsubr
          2 -144 -152 10 -8 -18 8 -38 13 -18 rlinecurve
          139 11 6 -428 17 -4 24 0 17 4 rlinecurve
          6 429 152 -12 8 18 -8 38 -13 18 rlinecurve
          endchar
        </CharString>
        <CharString name="danda">
          -189 222 -19 rmoveto
          228 callsubr
          endchar
        </CharString>
        <CharString name="dcaron">
          74 113 callsubr
          84 303 rmoveto
          205 callsubr
          -145 43 callgsubr
          -65 7 rlineto
          140 683 rmoveto
          -11 22 -58 279 callsubr
        </CharString>
        <CharString name="dcroat">
          9 113 callsubr
          162 136 rmoveto
          52 -78 115 vlineto
          205 callsubr
          -42 -75 -52 75 -51 43 callgsubr
          -65 7 rlineto
          492 vlineto
          endchar
        </CharString>
        <CharString name="degree">
          -214 54 579 rmoveto
          -67 49 -46 69 67 50 47 66 68 -49 45 -68 -67 -51 -45 -68 vhcurveto
          60 1 rmoveto
          35 22 24 36 35 23 -24 -36 -35 -22 -26 -36 -35 -23 26 36 vhcurveto
          endchar
        </CharString>
        <CharString name="dieresis">
          42 170 48 callgsubr
          endchar
        </CharString>
        <CharString name="divide">
          -71 50 312 447 callgsubr
          -195 -249 rmoveto
          365 callsubr
          314 vmoveto
          365 callsubr
          endchar
        </CharString>
        <CharString name="dollar">
          -81 267 699 rmoveto
          -18 8 -38 0 -16 -8 8 -94 rcurveline
          -80 -17 -65 -55 -89 vvcurveto
          -89 85 -42 92 -37 vhcurveto
          70 -29 58 -27 -75 vvcurveto
          -72 -58 -32 -70 -74 -46 34 75 -10 vhcurveto
          -43 -20 -27 -33 -63 83 -36 77 -6 hvcurveto
          -7 -91 16 -8 38 0 18 8 rlinecurve
          -7 92 rlineto
          107 15 68 81 97 vvcurveto
          91 -62 35 -98 41 vhcurveto
          -75 30 -68 28 67 vvcurveto
          52 45 31 62 77 30 -38 -64 vhcurveto
          33 -3 30 20 41 vvcurveto
          76 -89 23 -60 2 vhcurveto
          endchar
        </CharString>
        <CharString name="dotaccent">
          -81 160 589 rmoveto
          33 24 24 33 32 -24 460 callsubr
          endchar
        </CharString>
        <CharString name="dotlessi">
          139 callsubr
          endchar
        </CharString>
        <CharString name="dottedcircle">
          102 139 517 rmoveto
          -26 18 -19 26 26 18 19 26 25 -18 19 -26 -26 -18 -19 -25 vhcurveto
          -82 -110 rmoveto
          -25 20 -19 26 24 20 19 25 25 -20 19 -24 -26 -20 -19 -25 vhcurveto
          -13 -126 rmoveto
          -25 19 -18 25 26 18 18 482 callsubr
          52 -116 rmoveto
          -26 18 -18 26 25 19 18 26 25 -19 19 -25 -26 -18 -19 -25 vhcurveto
          101 -75 rmoveto
          -26 19 -20 26 25 19 20 26 24 -19 20 -25 -26 -19 -20 -24 vhcurveto
          127 -16 rmoveto
          -26 18 -18 26 26 19 18 26 26 -19 18 -26 -26 -18 -18 -26 vhcurveto
          121 53 rmoveto
          -26 19 -18 25 25 20 18 26 25 -20 19 -25 -25 -19 -19 -25 vhcurveto
          73 98 rmoveto
          -25 19 -19 26 24 19 19 25 26 -19 19 -24 -26 -19 -19 -26 vhcurveto
          10 134 rmoveto
          -26 18 -18 26 25 19 18 26 26 -19 18 -25 -26 -18 -18 -26 vhcurveto
          -50 118 rmoveto
          -25 19 -19 25 26 18 19 482 callsubr
          -95 68 rmoveto
          -24 19 -20 26 25 18 20 24 26 -18 19 -25 -26 -19 -19 -26 vhcurveto
          -126 15 rmoveto
          -26 18 -18 26 26 18 18 26 26 -18 18 -26 -26 -18 -18 -26 vhcurveto
          endchar
        </CharString>
        <CharString name="doubledanda">
          25 222 -19 rmoveto
          228 callsubr
          219 hmoveto
          228 callsubr
          endchar
        </CharString>
        <CharString name="dvA">
          176 769 -64 callgsubr
          -314 -76 callgsubr
          vlineto
          endchar
        </CharString>
        <CharString name="dvAA">
          454 1047 -64 callgsubr
          -592 -76 callgsubr
          195 -521 -104 callgsubr
        </CharString>
        <CharString name="dvAI">
          17 181 537 281 callgsubr
          21 -36 14 -12 rrcurveto
          63 24 50 46 76 vvcurveto
          207 125 vlineto
          -101 callgsubr
          -120 hlineto
          82 -33 -106 196 -150 hhcurveto
          -49 404 callgsubr
          68 18 50 hhcurveto
          83 79 -133 -69 32 hvcurveto
          -418 -4 callsubr
        </CharString>
        <CharString name="dvAU">
          432 1025 -58 callsubr
          -143 488 callsubr
          -51 -54 260 callsubr
          -52 hhcurveto
          -50 -53 -25 -22 -25 hvcurveto
          8 487 callsubr
          45 hhcurveto
          54 57 -48 -43 34 hvcurveto
          -357 -76 callgsubr
          173 -521 -89 callgsubr
        </CharString>
        <CharString name="dvAbbreviationsign">
          -168 177 498 rmoveto
          -73 -42 -56 -73 -98 74 -59 72 63 52 45 80 90 -62 71 -84 hvcurveto
          14 -59 rmoveto
          43 31 -32 -55 -49 -25 -33 -45 -52 -21 44 44 50 27 31 42 hvcurveto
          endchar
        </CharString>
        <CharString name="dvAnusvara">
          -558 -152 698 rmoveto
          357 callgsubr
          49 -13 -14 -48 -40 -15 -14 40 -48 15 hvcurveto
          endchar
        </CharString>
        <CharString name="dvAnusvara.amI">
          -558 -27 904 rmoveto
          -7 -62 -58 -7 -6 59 -61 7 7 61 58 4 8 -59 62 -6 hvcurveto
          endchar
        </CharString>
        <CharString name="dvAvagraha">
          -24 205 499 rmoveto
          37 37 6 56 vhcurveto
          164 hlineto
          27 -11 30 -89 callsubr
          -169 hlineto
          -88 -52 -36 -63 -65 59 -63 77 -66 hvcurveto
          67 -58 78 -56 -67 vvcurveto
          -44 -36 -21 -60 vhcurveto
          -131 1 -63 98 -38 52 -18 -4 -25 -17 -9 -11 rrcurveto
          -133 82 114 -69 113 hhcurveto
          82 75 37 85 105 -116 92 -62 50 hvcurveto
          -66 53 -46 45 37 vvcurveto
          endchar
        </CharString>
        <CharString name="dvB">
          -203 230 callgsubr
          398 -70 callgsubr
          -48 -428 rmoveto
          -16 -28 280 callgsubr
          254 -63 rmoveto
          -10 -24 -17 -24 -21 -20 -161 162 rcurveline
          8 19 22 4 25 hhcurveto
          44 30 -11 -14 21 hvcurveto
          12 44 53 callsubr
          85 71 55 58 36 hvcurveto
          endchar
        </CharString>
        <CharString name="dvBA">
          0 187 -21 callgsubr
          451 190 -72 callsubr
          -604 -107 callgsubr
          380 -127 hlineto
          27 -34 -49 25 -61 hhcurveto
          -89 -98 -54 -115 -101 73 -98 125 57 41 21 26 35 hvcurveto
          -125 -40 callsubr
        </CharString>
        <CharString name="dvBH">
          -90 180 623 rmoveto
          -70 -56 -35 -68 -74 69 -53 76 -30 hvcurveto
          8 7 8 190 callsubr
          1 -45 0 -69 -1 -25 rrcurveto
          -61 -2 -24 -12 -33 vvcurveto
          -56 73 -60 26 406 callgsubr
          61 1 89 -4 67 -6 -4 72 rcurveline
          -42 3 -136 5 -37 389 callgsubr
          -85 vhcurveto
          305 -12 rmoveto
          -76 -37 callsubr
          77 -41 callgsubr
          endchar
        </CharString>
        <CharString name="dvBHA">
          160 754 -58 callsubr
          -319 -37 callsubr
          96 -243 hlineto
          -54 3 -111 4 -33 389 callgsubr
          -85 -70 -56 -35 -68 -74 69 -53 76 -30 vhcurveto
          8 7 8 190 callsubr
          -139 vlineto
          -61 -2 -24 -12 -33 vvcurveto
          -54 71 -62 28 406 callgsubr
          55 1 77 -3 64 -5 rrcurveto
          -207 -89 callgsubr
        </CharString>
        <CharString name="dvBH_LA">
          585 1179 -58 callsubr
          -737 -107 callgsubr
          513 -96 hlineto
          356 callsubr
          -70 -46 398 callgsubr
          -45 63 -82 hhcurveto
          -69 -84 -46 -102 -2 hvcurveto
          2 -55 -67 1 -26 49 callgsubr
          54 52 -1 -3 51 hvcurveto
          31 -98 93 -82 71 76 callsubr
        </CharString>
        <CharString name="dvBH_NA">
          149 743 -64 callgsubr
          -335 -107 callgsubr
          110 -215 hlineto
          4 -56 -108 1 -33 hhcurveto
          134 vlineto
          110 -65 52 -83 -71 -56 -35 -66 -64 54 -46 75 -29 vhcurveto
          8 6 8 18 4 13 rrcurveto
          -43 23 -25 26 44 vvcurveto
          32 21 22 33 50 11 -49 -67 vhcurveto
          -125 vlineto
          -52 -25 -13 -33 -50 62 -56 21 -8 hvcurveto
          -1 5 7 -1 7 hhcurveto
          11 10 2 6 8 hvcurveto
          15 10 10 47 2 33 rrcurveto
          63 67 -2 -4 61 hvcurveto
          -145 -76 -27 -13 -59 -31 -14 -9 rlinecurve
          -26 -17 -19 -20 8 -25 rrcurveto
          -47 13 61 -48 25 hhcurveto
          17 1 20 18 11 vvcurveto
          -1 18 -15 49 -6 22 172 105 rcurveline
          -178 -89 callgsubr
        </CharString>
        <CharString name="dvBH_R">
          -67 503 611 rmoveto
          -98 hlineto
          -28 15 -101 callsubr
          95 -70 callgsubr
          -317 12 rmoveto
          -71 -55 -35 -68 -69 54 -46 75 -29 hvcurveto
          93 callgsubr
          57 72 -1 -3 60 hvcurveto
          -302 -206 6 -22 26 -31 16 -10 rlinecurve
          301 229 -2 107 rlineto
          5 -49 -149 2 -36 hhcurveto
          134 359 callgsubr
          vhcurveto
          endchar
        </CharString>
        <CharString name="dvBH_RA">
          160 754 -30 callsubr
          -323 hlineto
          -28 15 -101 callsubr
          96 -215 hlineto
          4 -56 -105 1 -32 hhcurveto
          134 359 callgsubr
          -71 -55 -35 -68 -69 54 -46 75 -29 vhcurveto
          93 callgsubr
          63 66 -1 -4 61 hvcurveto
          -303 -205 6 -22 26 -31 16 -10 rlinecurve
          258 196 rlineto
          -160 vlineto
          -17 43 -23 -106 callsubr
        </CharString>
        <CharString name="dvBH_R_YA">
          448 818 -94 callgsubr
          7 callsubr
          -629 -37 callsubr
          141 -26 callsubr
          -55 -30 -34 -70 -22 vhcurveto
          -29 2 -36 1 -32 1 -30 1 -21 0 -18 -1 rrcurveto
          117 359 callgsubr
          -70 -56 -35 -68 -69 56 -46 75 -30 vhcurveto
          8 7 8 17 4 12 rrcurveto
          -43 24 -27 28 44 486 callgsubr
          -109 vlineto
          -41 -29 -7 -19 -10 hvcurveto
          -4 -5 -1 -10 -9 vvcurveto
          -43 69 -72 32 -3 vhcurveto
          5 6 -1 1 6 hvcurveto
          9 9 3 5 6 hvcurveto
          14 12 12 44 37 vvcurveto
          31 1 19 0 26 -1 22 -1 22 -1 22 -1 8 -21 9 -19 12 -19 -269 -160 rcurveline
          7 -22 25 -31 16 -10 261 177 rcurveline
          -34 38 51 -21 66 -15 callsubr
        </CharString>
        <CharString name="dvBH_VA">
          438 808 241 rmoveto
          -47 -40 -67 -35 -50 56 callgsubr
          -603 -79 callsubr
          380 -12 callgsubr
          -89 -94 -52 -111 -4 hvcurveto
          2 -54 -66 1 -25 49 callgsubr
          53 50 -1 -3 50 hvcurveto
          -74 24 66 -59 97 hhcurveto
          58 -38 callsubr
        </CharString>
        <CharString name="dvBH_YA">
          439 809 245 rmoveto
          -30 -27 -45 107 callsubr
          -60 -36 -35 -85 -21 vhcurveto
          2 -49 -57 1 -27 hhcurveto
          123 284 callgsubr
          -83 -71 -56 -35 -68 -65 48 -49 321 callsubr
          17 3 13 rrcurveto
          -35 426 callgsubr
          34 51 11 -49 -67 vhcurveto
          -115 vlineto
          -60 -2 -25 -12 -33 vvcurveto
          -50 70 -62 21 -7 vhcurveto
          -2 4 7 373 callsubr
          11 11 49 2 33 rrcurveto
          52 37 -1 -3 42 hvcurveto
          -82 32 70 -70 119 -14 callgsubr
        </CharString>
        <CharString name="dvB_BA">
          338 525 -21 callgsubr
          -175 -162 rmoveto
          -17 -27 -31 -10 -32 hhcurveto
          -52 -49 34 73 217 callsubr
          788 189 -92 callgsubr
          -941 -79 callsubr
          718 -126 hlineto
          27 -36 -49 24 -59 hhcurveto
          -89 -98 -54 -115 -12 1 -13 2 -12 hvcurveto
          -9 -13 -11 -14 -13 -12 -159 161 rcurveline
          8 19 22 4 25 hhcurveto
          44 127 callsubr
          72 61 39 46 39 hvcurveto
          -50 33 56 -36 76 hhcurveto
          57 41 21 26 35 hvcurveto
          -125 -40 callsubr
        </CharString>
        <CharString name="dvB_BHA">
          328 315 171 rmoveto
          -15 -27 -31 -9 -34 hhcurveto
          -52 -49 402 callgsubr
          18 20 hvcurveto
          771 201 -92 callgsubr
          -318 -79 callsubr
          94 -241 hlineto
          -55 3 -107 4 -32 -1 rrcurveto
          168 vlineto
          103 -62 50 -84 -23 -22 -4 -8 -18 vhcurveto
          -327 -37 callsubr
          247 -2 hlineto
          -41 35 -31 26 -13 vhcurveto
          8 7 10 7 4 9 rrcurveto
          -11 16 -6 14 18 vvcurveto
          28 21 18 32 51 12 -48 -62 vhcurveto
          1 -45 0 -87 -1 -25 rrcurveto
          -61 -2 -24 -12 -33 vvcurveto
          -13 4 -13 7 -13 vhcurveto
          -153 154 rlineto
          8 19 23 4 25 hhcurveto
          44 30 -11 -15 21 hvcurveto
          12 45 53 callsubr
          62 55 29 39 39 hvcurveto
          13 -11 13 -6 8 -2 12 -3 20 2 10 7 14 11 12 45 2 37 54 1 75 -2 63 -5 rrcurveto
          -210 -104 callgsubr
        </CharString>
        <CharString name="dvB_BH_RA">
          354 292 178 rmoveto
          -17 -27 -31 -10 -31 hhcurveto
          -52 -49 402 callgsubr
          17 21 hvcurveto
          818 196 -92 callgsubr
          -323 hlineto
          -28 15 -29 13 -17 vhcurveto
          96 -215 hlineto
          4 -57 -103 1 -32 hhcurveto
          134 vlineto
          110 -68 52 -83 -25 -23 -4 -8 -19 vhcurveto
          -351 -107 callgsubr
          267 -7 hlineto
          -49 43 -29 44 -12 vhcurveto
          8 7 9 14 4 13 rrcurveto
          -24 12 -5 18 18 vvcurveto
          28 24 17 30 50 11 -49 -49 vhcurveto
          -139 vlineto
          -60 -1 -25 -14 -33 vvcurveto
          -9 2 -9 4 -9 vhcurveto
          -10 -16 -12 -15 -14 -14 -160 162 rcurveline
          8 19 22 4 25 hhcurveto
          44 30 -11 -15 22 hvcurveto
          11 45 53 callsubr
          84 69 53 57 37 hvcurveto
          16 -15 15 -10 8 -3 144 callsubr
          16 11 10 222 callsubr
          -106 callsubr
        </CharString>
        <CharString name="dvB_DA">
          312 307 184 rmoveto
          -17 -27 -31 -10 -32 hhcurveto
          -52 -49 35 73 33 272 callgsubr
          614 190 rmoveto
          147 -85 callsubr
          -916 -107 callgsubr
          686 -88 hlineto
          1 -17 -18 1 -18 hhcurveto
          -149 -84 -79 -109 -4 hvcurveto
          -10 -17 -12 -16 -15 -14 -161 162 475 callsubr
          44 29 -11 -14 22 hvcurveto
          11 44 348 callsubr
          -50 467 callgsubr
          78 -91 119 67 58 34 42 40 hvcurveto
          -82 33 83 -56 103 hhcurveto
          48 42 11 18 32 hvcurveto
          30 -46 19 -43 27 -53 23 305 callgsubr
          -44 45 -43 40 rrcurveto
          20 24 11 31 401 callsubr
          -31 -30 349 callgsubr
          -28 13 -18 vhcurveto
          -13 -20 -32 -8 -34 41 callgsubr
        </CharString>
        <CharString name="dvB_DHA">
          387 314 158 rmoveto
          -12 -26 -29 -8 -31 hhcurveto
          -62 -49 34 74 33 10 28 18 20 hvcurveto
          835 210 380 callsubr
          81 -284 hlineto
          -48 -36 -60 -36 -58 -11 callgsubr
          479 callsubr
          -19 vhcurveto
          -476 -79 callsubr
          374 hlineto
          318 callsubr
          75 -27 vhcurveto
          -17 -19 -12 -23 -4 -27 -12 -27 -26 -34 -35 -26 -170 172 rcurveline
          8 19 22 4 25 hhcurveto
          41 29 -10 -15 20 hvcurveto
          11 45 rlineto
          34 -28 -51 18 -49 hhcurveto
          -91 -96 -53 -117 -106 449 callgsubr
          85 79 43 59 49 hvcurveto
          -47 29 58 -27 67 hhcurveto
          57 51 17 27 41 hvcurveto
          -131 -104 callgsubr
        </CharString>
        <CharString name="dvB_DH_VA">
          691 1058 37 callgsubr
          -746 -194 rmoveto
          -12 -25 -28 -8 -31 hhcurveto
          -64 -49 34 73 33 272 callgsubr
          1139 213 -72 callsubr
          -594 -37 callsubr
          371 -12 callgsubr
          -91 -96 -54 -116 -21 3 -20 6 -19 hvcurveto
          -37 -37 -52 -26 -50 77 callsubr
          479 callsubr
          -19 vhcurveto
          -490 -79 callsubr
          388 hlineto
          318 callsubr
          74 -27 vhcurveto
          -19 -21 -12 -25 -2 -30 -13 -26 -24 -31 -32 -26 -171 172 475 callsubr
          41 29 -11 -14 20 hvcurveto
          11 44 rlineto
          34 -28 -51 19 -49 467 callgsubr
          449 callgsubr
          86 77 44 60 48 hvcurveto
          -46 30 56 -26 66 hhcurveto
          67 60 22 37 46 hvcurveto
          -40 33 52 -27 65 hhcurveto
          58 -38 callsubr
        </CharString>
        <CharString name="dvB_JA">
          578 312 195 rmoveto
          -14 -26 -29 -7 -30 hhcurveto
          -61 -50 35 72 34 10 27 18 21 hvcurveto
          1028 174 -83 callgsubr
          -1181 -79 callsubr
          958 -122 -245 -77 callsubr
          -2 -86 -26 -64 -40 -40 -165 167 rcurveline
          8 19 22 4 24 hhcurveto
          45 289 callsubr
          95 101 64 116 30 hvcurveto
          -123 51 77 -97 108 27 callsubr
          188 -323 -49 callsubr
        </CharString>
        <CharString name="dvB_JHA">
          514 883 277 callsubr
          35 17 98 381 callsubr
          -572 -339 rmoveto
          -13 -27 -30 -8 -33 hhcurveto
          -57 -49 34 73 34 10 27 18 21 hvcurveto
          965 171 -72 callsubr
          -1127 -107 callgsubr
          676 478 callgsubr
          -50 -40 -68 -19 4 -19 6 -17 hvcurveto
          -13 -25 -19 -23 -24 -19 -169 170 475 callsubr
          44 30 -10 -15 21 hvcurveto
          11 44 rlineto
          35 -29 -53 18 -51 hhcurveto
          -91 -96 -54 -116 -107 79 -90 117 96 80 54 61 41 hvcurveto
          -25 26 31 -15 28 39 84 34 38 hhcurveto
          26 12 -16 -24 -59 -76 -44 -78 138 callsubr
          5 0 5 hhcurveto
          124 188 callsubr
        </CharString>
        <CharString name="dvB_J_YA">
          891 1260 -48 callgsubr
          -942 -354 rmoveto
          -14 -26 -29 -7 -30 hhcurveto
          -61 -51 36 72 33 272 callgsubr
          1336 185 -83 callgsubr
          -1489 -107 callgsubr
          1000 hlineto
          -27 callsubr
          -32 -10 -25 -23 -19 vhcurveto
          15 -64 -78 14 -70 hhcurveto
          -83 hlineto
          -8 -3 -19 -27 -4 -14 rrcurveto
          23 -27 56 -62 -62 vvcurveto
          -51 -33 -19 -38 -106 316 callsubr
          -10 -2 -86 -25 -64 -40 -41 -165 168 rcurveline
          8 19 22 4 24 hhcurveto
          45 30 -11 -14 21 hvcurveto
          12 44 53 callsubr
          95 100 64 114 30 hvcurveto
          -122 52 76 -96 108 112 callgsubr
          29 hvcurveto
          134 hlineto
          -107 18 73 -108 147 -95 callsubr
        </CharString>
        <CharString name="dvB_JxA">
          583 719 32 rmoveto
          413 callgsubr
          144 callgsubr
          -410 164 rmoveto
          -15 -26 -30 -7 -31 hhcurveto
          -56 -50 37 70 33 10 27 17 21 hvcurveto
          1034 175 -72 callsubr
          -1184 -37 callsubr
          960 -122 -249 hlineto
          -7 -3 -20 494 callgsubr
          24 -27 54 -62 -62 vvcurveto
          -50 -34 -19 -35 -107 -67 158 436 callgsubr
          -28 -64 -41 -41 -165 167 rcurveline
          9 18 22 4 24 hhcurveto
          49 289 callsubr
          97 99 68 119 27 hvcurveto
          -126 51 77 -101 110 hhcurveto
          84 38 61 65 62 -36 52 -25 29 hvcurveto
          192 -323 81 callsubr
        </CharString>
        <CharString name="dvB_LA">
          495 307 184 363 callgsubr
          944 190 -92 callgsubr
          -1098 -107 callgsubr
          873 -96 hlineto
          3 129 callsubr
          -70 -85 407 callsubr
          -161 162 rcurveline
          8 19 22 4 25 hhcurveto
          44 30 -11 -14 22 hvcurveto
          11 44 53 callsubr
          76 64 43 50 38 hvcurveto
          41 -80 77 -67 61 -44 14 -68 callgsubr
          74 hhcurveto
          5 4 361 callsubr
          -363 -104 callgsubr
        </CharString>
        <CharString name="dvB_L_YA">
          888 1257 163 callsubr
          -77 -52 -56 callgsubr
          -25 26 vhcurveto
          187 hlineto
          -951 -354 rmoveto
          -16 -28 280 callgsubr
          1343 190 -92 callgsubr
          -1499 -107 callgsubr
          1006 355 callsubr
          -25 -32 -58 -22 vhcurveto
          76 -24 -51 23 -47 hhcurveto
          -69 -45 490 callsubr
          -70 -86 407 callsubr
          -162 162 475 callsubr
          44 30 -11 -14 21 hvcurveto
          12 44 53 callsubr
          75 64 43 51 39 hvcurveto
          41 -81 78 -67 61 -44 52 callsubr
          39 98 71 hhcurveto
          24 19 -20 -29 10 hvcurveto
          -1 hlineto
          -108 17 72 -111 150 -95 callsubr
        </CharString>
        <CharString name="dvB_NA">
          1 115 callgsubr
          226 184 -92 callgsubr
          -605 298 callsubr
          -74 44 -73 79 -28 hvcurveto
          -23 -11 -22 -10 -9 -6 -27 -14 -20 -19 6 -26 10 -47 61 -54 25 -1 rrcurveto
          16 -1 22 16 11 vvcurveto
          295 callsubr
          184 99 rcurveline
          -130 -104 callgsubr
        </CharString>
        <CharString name="dvB_R">
          -212 230 callgsubr
          390 -85 callsubr
          -47 -422 rmoveto
          -14 -26 -30 -8 -30 hhcurveto
          -52 -47 32 69 32 10 27 17 20 hvcurveto
          252 -64 rmoveto
          -10 -23 -18 -22 -22 -19 -158 160 rcurveline
          7 18 21 4 23 hhcurveto
          49 30 -11 -14 21 hvcurveto
          12 44 89 callsubr
          -85 57 -77 95 -18 hvcurveto
          -132 -73 8 -23 22 -30 16 -12 rlinecurve
          327 214 rlineto
          endchar
        </CharString>
        <CharString name="dvB_RA">
          -2 115 callgsubr
          224 184 -92 callgsubr
          -603 298 callsubr
          -81 53 -80 94 -21 hvcurveto
          -130 -73 8 -23 22 -30 16 -12 rlinecurve
          266 174 rlineto
          -131 -89 callgsubr
        </CharString>
        <CharString name="dvB_SA">
          431 801 472 callgsubr
          -45 hhcurveto
          -31 27 callgsubr
          216 hlineto
          -495 -353 rmoveto
          -16 -28 -31 -10 -31 hhcurveto
          -52 -49 34 73 34 10 27 18 21 hvcurveto
          882 190 -92 callgsubr
          -1035 -107 callgsubr
          508 hlineto
          21 -42 13 -49 -39 vvcurveto
          -20 -3 86 callsubr
          -7 1 -7 2 -8 hvcurveto
          -11 -22 -16 -22 -20 -19 -160 162 475 callsubr
          44 30 -10 -15 21 hvcurveto
          11 45 rlineto
          34 -29 -54 18 -50 hhcurveto
          -91 403 callgsubr
          -107 80 -90 118 81 71 49 58 39 hvcurveto
          53 -86 94 -107 39 -37 137 callsubr
        </CharString>
        <CharString name="dvB_SHA">
          499 310 181 rmoveto
          -14 -25 -31 -9 -35 hhcurveto
          -51 -53 34 73 34 10 28 19 20 hvcurveto
          950 190 -83 callgsubr
          -1110 -79 callsubr
          480 hlineto
          -10 -17 -5 331 callgsubr
          28 vvcurveto
          48 34 25 38 54 23 -44 -56 -87 -74 -77 -64 -15 vhcurveto
          24 -22 -25 23 -33 hhcurveto
          -37 -20 -29 -31 -23 hvcurveto
          -8 -11 -10 -11 -11 -10 -165 167 rcurveline
          8 18 22 4 24 hhcurveto
          46 127 callsubr
          82 69 46 61 46 hvcurveto
          -14 17 26 -3 15 hhcurveto
          278 callgsubr
          86 33 107 87 110 vvcurveto
          44 -16 36 -25 26 vhcurveto
          149 229 callsubr
        </CharString>
        <CharString name="dvB_TA">
          335 308 184 rmoveto
          -17 -27 280 callgsubr
          784 190 -72 callsubr
          -938 -107 callgsubr
          714 369 callgsubr
          -7 0 -8 1 -7 hvcurveto
          -9 -15 -12 -14 -13 -13 -161 162 475 callsubr
          44 30 -11 -14 21 hvcurveto
          11 44 rlineto
          34 -29 -54 19 -50 467 callgsubr
          79 -91 118 69 59 36 44 40 hvcurveto
          29 -73 50 -73 38 -50 9 30 callsubr
        </CharString>
        <CharString name="dvB_VA">
          346 714 70 callsubr
          -407 -165 363 callgsubr
          794 190 -83 callgsubr
          -948 -107 callgsubr
          724 121 callsubr
          -10 1 -11 1 -10 hvcurveto
          -9 -16 -13 -15 -14 -14 -161 162 rcurveline
          8 19 22 4 25 hhcurveto
          44 30 -11 -14 22 hvcurveto
          11 44 53 callsubr
          74 63 41 49 39 hvcurveto
          -52 32 58 -37 77 hhcurveto
          57 41 20 26 35 hvcurveto
          -125 -104 callgsubr
        </CharString>
        <CharString name="dvB_YA">
          367 736 -48 callgsubr
          -428 -354 rmoveto
          -15 -26 -30 -10 -32 hhcurveto
          -56 -49 34 73 217 callsubr
          818 189 -83 callgsubr
          -971 -107 callgsubr
          482 417 callgsubr
          3 -21 6 -21 7 -21 -10 -19 -15 -18 -16 -16 -162 163 rcurveline
          8 19 22 4 25 hhcurveto
          44 127 callsubr
          77 71 46 59 43 hvcurveto
          -51 39 60 -37 86 -95 callsubr
        </CharString>
        <CharString name="dvC">
          -162 357 442 rmoveto
          189 callgsubr
          -79 69 -87 121 64 54 25 42 48 vhcurveto
          -8 116 rlineto
          -70 -31 -73 -44 -67 hhcurveto
          -51 171 callsubr
          -2 30 -10 25 -14 20 rrcurveto
          50 169 rmoveto
          -443 -107 callgsubr
          443 -70 callgsubr
          endchar
        </CharString>
        <CharString name="dvCA">
          71 665 -58 callsubr
          -675 -107 callgsubr
          451 372 callsubr
          171 callsubr
          -2 30 -10 25 -14 20 rrcurveto
          189 callgsubr
          -79 69 -87 121 51 45 16 28 40 vhcurveto
          -138 -104 callgsubr
        </CharString>
        <CharString name="dvCH">
          100 668 611 rmoveto
          -704 -107 callgsubr
          703 -85 callsubr
          -504 -126 rmoveto
          157 callsubr
          179 134 125 185 107 -55 88 -102 -74 -48 -51 -70 -51 callsubr
          endchar
        </CharString>
        <CharString name="dvCHA">
          108 529 537 rmoveto
          164 -85 callsubr
          -704 -107 callgsubr
          465 -51 hlineto
          -65 -7 -41 -48 -65 vvcurveto
          -51 callsubr
          157 callsubr
          179 134 125 185 442 callsubr
        </CharString>
        <CharString name="dvCH_RA">
          100 529 537 rmoveto
          164 -85 callsubr
          -704 -107 callgsubr
          465 -51 hlineto
          -65 -7 -41 -48 -65 vvcurveto
          -51 callsubr
          157 callsubr
          vhcurveto
          10 hlineto
          -172 -106 248 callsubr
          7 25 25 7 13 rlinecurve
          -165 123 rlineto
          145 27 101 116 161 vvcurveto
          442 callsubr
        </CharString>
        <CharString name="dvCH_R_YA">
          698 100 callsubr
          -1307 -107 callgsubr
          461 0 callgsubr
          -81 71 -74 129 -3 vhcurveto
          -189 -116 248 callsubr
          6 25 26 7 13 rlinecurve
          -171 128 rlineto
          165 12 121 121 176 vvcurveto
          20 -2 20 -4 18 vhcurveto
          37 55 75 32 62 1 callgsubr
        </CharString>
        <CharString name="dvCH_YA">
          701 100 callsubr
          -1310 -37 callsubr
          465 0 callgsubr
          -83 74 -75 133 179 134 125 185 20 -2 20 -4 18 vhcurveto
          37 55 75 32 62 1 callgsubr
        </CharString>
        <CharString name="dvC_CA">
          352 439 367 rmoveto
          -24 -18 -19 -33 -40 vvcurveto
          -14 2 -14 4 -14 vhcurveto
          -35 -35 -48 -20 -45 hhcurveto
          -52 -48 26 55 76 85 31 70 hvcurveto
          617 170 -83 callgsubr
          -956 -107 callgsubr
          732 372 callsubr
          171 callsubr
          -2 30 -10 22 -14 19 rrcurveto
          -629 hlineto
          1 -29 11 -21 16 -21 rrcurveto
          103 hlineto
          -25 -18 -18 -33 -40 vvcurveto
          -79 68 -87 121 60 47 21 37 48 vhcurveto
          -34 33 49 -24 63 hhcurveto
          52 42 16 29 42 hvcurveto
          -139 -104 callgsubr
        </CharString>
        <CharString name="dvC_CHA">
          459 889 537 rmoveto
          164 -85 callsubr
          -1077 -107 callgsubr
          838 343 callsubr
          61 -27 vhcurveto
          11 8 9 13 2 13 rrcurveto
          -39 27 -25 31 45 vvcurveto
          51 31 25 callgsubr
          -33 -9 -35 16 callgsubr
          16 vhcurveto
          9 2 9 358 callgsubr
          -29 475 callgsubr
          -56 38 -55 69 -23 hvcurveto
          -64 -51 -64 -43 -89 hhcurveto
          -60 -49 27 56 72 73 32 71 hvcurveto
          26 hlineto
          -1 30 -11 25 -13 20 rrcurveto
          -335 hlineto
          1 -29 10 -26 15 -20 rrcurveto
          130 hlineto
          -24 -18 -19 -33 -39 vvcurveto
          -82 70 -85 129 58 55 16 31 47 vhcurveto
          -68 18 70 -55 114 hhcurveto
          179 452 callsubr
          hvcurveto
          endchar
        </CharString>
        <CharString name="dvC_CH_VA">
          484 810 -81 rmoveto
          -43 -35 -50 -21 -46 hhcurveto
          -54 -36 31 45 61 60 25 61 10 hvcurveto
          32 4 35 8 33 13 rrcurveto
          113 485 rmoveto
          155 -41 callgsubr
          -1088 -107 callgsubr
          859 -36 -4 hlineto
          -73 -50 -53 -69 -75 59 -49 64 -28 hvcurveto
          9 7 11 14 2 13 rrcurveto
          -39 26 -25 30 47 vvcurveto
          50 29 21 31 32 40 -26 -82 -131 -114 -106 -140 -67 -46 19 51 54 70 29 54 5 vhcurveto
          -10 29 -14 18 -18 18 -22 -4 -28 -7 -33 -18 rrcurveto
          -35 7 -43 30 48 vvcurveto
          35 24 29 46 38 19 -20 -22 16 vhcurveto
          8 2 9 358 callgsubr
          -27 64 -86 hhcurveto
          -77 -49 -53 -62 -59 42 -51 66 -22 hvcurveto
          -69 -52 -65 -48 -90 hhcurveto
          -60 -49 26 56 72 72 33 71 hvcurveto
          27 hlineto
          -2 29 -10 26 -14 19 rrcurveto
          -335 -107 callgsubr
          131 hlineto
          -25 -19 -19 -33 -39 vvcurveto
          -81 70 -86 124 67 60 20 37 47 vhcurveto
          15 -30 29 -27 42 -16 rrcurveto
          -37 -22 -26 -32 -48 vvcurveto
          -75 66 -80 114 45 39 12 17 31 vhcurveto
          -87 vlineto
          -17 37 -19 39 vhcurveto
          394 vlineto
          65 45 49 70 104 vvcurveto
          74 -28 63 -49 31 vhcurveto
          endchar
        </CharString>
        <CharString name="dvC_MA">
          395 764 298 11 callgsubr
          377 callsubr
          -11 29 -14 18 vhcurveto
          -997 -107 callgsubr
          472 -236 hlineto
          -40 -1 -30 106 callgsubr
          -11 5 -14 9 -14 vhcurveto
          -20 -31 -35 -11 -35 hhcurveto
          -51 171 callsubr
          -2 30 -10 25 -14 20 rrcurveto
          -353 hlineto
          1 -29 10 -26 15 -20 rrcurveto
          129 315 callgsubr
          50 46 16 27 40 vhcurveto
          -14 17 16 -9 13 hhcurveto
          13 16 4 9 7 hvcurveto
          -34 callgsubr
        </CharString>
        <CharString name="dvC_NA">
          74 668 -58 callsubr
          -678 -107 callgsubr
          454 372 callsubr
          -49 26 55 76 85 31 71 hvcurveto
          34 hlineto
          -1 30 -10 25 -14 20 rrcurveto
          189 callgsubr
          -60 39 -64 72 -28 vhcurveto
          -58 -25 -27 -14 -20 241 callsubr
          -1 22 17 10 vvcurveto
          295 callsubr
          197 94 rcurveline
          -132 -40 callsubr
        </CharString>
        <CharString name="dvC_R">
          -168 401 611 rmoveto
          -437 -107 callgsubr
          437 -70 callgsubr
          -46 -165 rmoveto
          387 callgsubr
          -19 -34 -39 vvcurveto
          -70 52 -75 96 -17 vhcurveto
          -125 -69 269 callgsubr
          rlinecurve
          134 86 147 101 14 10 -16 115 rcurveline
          -70 -31 -73 -43 -66 337 callsubr
          endchar
        </CharString>
        <CharString name="dvC_RA">
          71 664 -64 callgsubr
          -675 -107 callgsubr
          450 -278 hlineto
          -47 -36 -59 -28 -53 337 callsubr
          387 callgsubr
          -18 -34 -39 vvcurveto
          -69 51 -74 91 -19 vhcurveto
          -118 -67 269 callgsubr
          rlinecurve
          255 170 rlineto
          -141 -104 callgsubr
        </CharString>
        <CharString name="dvC_YA">
          403 773 -94 callgsubr
          7 callsubr
          -1008 -107 callgsubr
          519 54 callgsubr
          4 -28 8 -27 12 -27 rrcurveto
          -43 -36 -56 -27 -53 hhcurveto
          -52 171 callsubr
          -1 30 -11 25 -14 20 rrcurveto
          -353 hlineto
          1 -29 10 -26 15 -20 rrcurveto
          129 315 callgsubr
          67 59 29 46 49 vhcurveto
          -44 39 57 -29 77 -15 callsubr
        </CharString>
        <CharString name="dvCandrabindu">
          65 callgsubr
        </CharString>
        <CharString name="dvD">
          -40 342 -59 15 callsubr
          64 596 rmoveto
          148 -70 callgsubr
          -564 -107 callgsubr
          334 -88 166 callgsubr
          -153 -84 -83 -113 -125 100 -98 136 429 callsubr
          hvcurveto
          -23 callgsubr
        </CharString>
        <CharString name="dvDA">
          -40 406 537 rmoveto
          148 -70 callgsubr
          -564 -107 callgsubr
          334 -88 166 callgsubr
          -153 -84 -83 -113 -125 100 -98 136 429 callsubr
          hvcurveto
          -23 callgsubr
        </CharString>
        <CharString name="dvDA_mvR">
          -127 360 537 rmoveto
          107 -70 callgsubr
          -477 -107 callgsubr
          291 -55 hlineto
          1 -10 -48 0 -11 hhcurveto
          -84 -1 -76 -23 -77 vvcurveto
          -47 28 -38 38 -34 vhcurveto
          -38 -25 -23 -34 -47 vvcurveto
          -85 73 -61 105 84 58 30 39 46 vhcurveto
          -9 23 -13 21 -16 17 rrcurveto
          -25 -24 -51 -40 -82 hhcurveto
          -58 -38 28 44 70 90 22 129 1 hvcurveto
          -4 24 -12 28 -12 14 rrcurveto
          -59 -54 -7 -15 -43 hvcurveto
          -22 20 -17 25 30 vvcurveto
          33 20 18 92 vhcurveto
          26 40 -3 21 hhcurveto
          12 21 29 19 hvcurveto
          endchar
        </CharString>
        <CharString name="dvDD">
          -58 419 537 rmoveto
          114 hlineto
          35 callgsubr
          -59 44 68 -57 73 callsubr
          80 62 91 57 -42 85 -70 hvcurveto
          -52 -106 -35 -21 hhcurveto
          -16 -18 305 callsubr
          52 17 54 callsubr
          -110 -486 255 callsubr
          -22 402 callsubr
          -1 -18 7 -40 116 callgsubr
          -64 31 -37 13 8 13 11 7 11 -33 41 284 callsubr
          endchar
        </CharString>
        <CharString name="dvDDA">
          -69 411 537 rmoveto
          114 hlineto
          6 callgsubr
          rrcurveto
          -98 72 90 -52 98 hhcurveto
          105 81 62 91 57 -43 85 -70 hvcurveto
          19 callgsubr
          endchar
        </CharString>
        <CharString name="dvDDH">
          -18 331 174 rmoveto
          43 24 122 callsubr
          -11 19 -8 24 24 vvcurveto
          79 363 rmoveto
          164 hlineto
          27 -12 29 -14 149 callsubr
          354 callgsubr
          hvcurveto
          -1 -9 -11 -1 -10 298 callgsubr
          -72 -460 157 callgsubr
          8 12 10 7 11 412 callgsubr
        </CharString>
        <CharString name="dvDDHA">
          -18 353 107 rmoveto
          -12 19 -8 24 24 vvcurveto
          409 callgsubr
          59 430 rmoveto
          164 hlineto
          27 -11 29 -15 149 callsubr
          -41 268 callsubr
          hvcurveto
          -1 -10 -10 -1 -11 298 callgsubr
          endchar
        </CharString>
        <CharString name="dvDDH_DDHA">
          -32 321 -140 rmoveto
          37 21 27 30 20 19 -13 -30 -30 -32 -29 -44 -15 vhcurveto
          -8 15 -6 19 19 vvcurveto
          400 vmoveto
          36 21 27 30 20 19 -13 -30 -30 -32 -28 -43 -16 vhcurveto
          -9 15 -6 19 20 vvcurveto
          73 -98 rmoveto
          49 27 28 44 43 vvcurveto
          66 -65 35 -52 -58 -32 -44 -48 -30 13 -31 21 -27 vhcurveto
          -2 -11 -10 -1 -11 hhcurveto
          -94 -41 50 60 62 31 59 134 422 callgsubr
          77 167 167 callsubr
          -571 -107 callgsubr
          331 -50 hlineto
          2 -15 -12 1 -23 hhcurveto
          -137 -80 -73 -97 -98 76 -90 142 17 17 1 3 15 hvcurveto
          -48 vlineto
          1 -15 -12 2 -23 hhcurveto
          -137 -80 -73 -97 -98 76 -91 142 122 77 73 72 66 -65 35 -52 -58 -32 -44 -49 -30 13 -31 21 -27 hvcurveto
          -1 -11 -10 -1 -11 hhcurveto
          -94 -41 49 61 62 36 59 129 422 callgsubr
          endchar
        </CharString>
        <CharString name="dvDDH_R">
          -18 333 174 rmoveto
          409 callgsubr
          -12 19 -8 24 24 vvcurveto
          118 -303 rmoveto
          376 callsubr
          14 -161 119 rcurveline
          110 14 63 67 77 vvcurveto
          75 -62 39 -61 -72 -41 268 callsubr
          vhcurveto
          -1 -10 -10 -1 -11 298 callgsubr
          121 164 167 callsubr
          -586 -107 callgsubr
          340 -88 hlineto
          2 -17 -15 1 -21 hhcurveto
          -153 -83 -85 -107 -124 90 -95 145 -7 hvcurveto
          -175 -107 7 -20 29 423 callsubr
          rlineto
          56 -110 252 callgsubr
          218 callgsubr
          65 -65 264 callgsubr
          endchar
        </CharString>
        <CharString name="dvDDH_RA">
          -1 356 107 rmoveto
          -11 19 -9 24 24 vvcurveto
          43 25 122 callsubr
          60 430 rmoveto
          163 -85 callsubr
          -586 -107 callgsubr
          340 -88 hlineto
          453 callgsubr
          -123 89 -94 143 -8 hvcurveto
          -175 -108 7 -20 29 -36 17 -12 151 callgsubr
          -161 119 rlineto
          113 13 64 67 78 vvcurveto
          299 callsubr
          vhcurveto
          238 callgsubr
        </CharString>
        <CharString name="dvDDH_YA">
          537 906 209 rmoveto
          -29 -27 -45 -25 405 callsubr
          86 -117 22 -129 -37 -41 -2 -4 -39 vhcurveto
          67 499 vlineto
          -498 -281 rmoveto
          25 24 -16 -33 -44 -38 -38 -54 -14 hvcurveto
          -11 18 -9 24 25 vvcurveto
          42 24 36 39 vhcurveto
          722 281 -92 callgsubr
          -1140 -79 callsubr
          335 -77 hlineto
          -21 -4 -20 -4 -17 -4 rrcurveto
          -137 -23 -78 -64 -110 vvcurveto
          -120 99 -97 151 154 63 89 71 77 -60 42 -63 -71 -42 -50 -64 -32 13 -38 23 -30 vhcurveto
          -19 -2 -20 1 -19 3 rrcurveto
          -81 6 -49 52 76 vvcurveto
          65 45 58 131 26 vhcurveto
          12 48 96 13 105 hhcurveto
          98 49 -13 -25 384 callsubr
          42 17 18 28 hvcurveto
          -96 -104 callgsubr
        </CharString>
        <CharString name="dvDDHxA">
          -24 309 -30 72 callgsubr
          45 137 rmoveto
          -11 19 -8 24 24 vvcurveto
          43 24 122 callsubr
          60 430 rmoveto
          164 -70 callgsubr
          -586 -107 callgsubr
          340 -88 hlineto
          2 -17 -15 1 -21 hhcurveto
          -153 -84 -85 -107 -129 97 -97 156 135 248 callgsubr
          hvcurveto
          -1 -9 -11 -1 -10 hhcurveto
          -96 -66 54 86 71 45 73 149 25 28 111 callgsubr
          endchar
        </CharString>
        <CharString name="dvDD_DDA">
          -20 416 537 rmoveto
          158 -70 callgsubr
          -584 -107 callgsubr
          350 -55 -115 hlineto
          -91 -48 -40 -68 -77 76 -66 53 hvcurveto
          43 78 34 35 hhcurveto
          24 18 -14 -24 -41 -50 -46 -96 -79 -52 31 74 -58 hvcurveto
          -13 -8 -16 -13 -9 -12 30 -41 33 -31 33 -21 rrcurveto
          -34 -20 -16 -29 -35 vvcurveto
          -74 76 -68 53 vhcurveto
          44 78 34 34 hhcurveto
          24 18 -13 -25 -39 -49 -49 -96 -78 -54 32 74 -58 hvcurveto
          -13 -7 -17 -12 -8 -14 rrcurveto
          -99 73 83 -43 91 hhcurveto
          104 76 57 77 54 -43 79 -67 -51 -91 -34 -1 -21 hvcurveto
          -14 -1 -25 12 35 vvcurveto
          45 28 4 104 12 vhcurveto
          78 9 102 32 91 vvcurveto
          51 -39 83 -72 -51 -91 -34 -1 -21 vhcurveto
          -18 -2 -20 20 33 vvcurveto
          47 39 13 99 vhcurveto
          52 11 -3 26 hhcurveto
          12 22 27 18 hvcurveto
          endchar
        </CharString>
        <CharString name="dvDD_DDHA">
          -57 355 -195 rmoveto
          -8 14 -9 18 20 vvcurveto
          36 20 29 30 26 14 -18 -23 -32 -30 -30 -43 -14 vhcurveto
          59 732 rmoveto
          123 -85 callsubr
          -548 -107 callgsubr
          348 -64 -109 hlineto
          -93 -53 -37 -66 -81 73 -68 57 hvcurveto
          42 80 36 35 hhcurveto
          24 16 -14 -26 -43 -54 -45 -89 -79 -55 34 71 -58 hvcurveto
          -13 -6 -16 -13 -8 -14 37 -52 44 -39 48 -23 rrcurveto
          -67 -31 -35 -61 -68 vvcurveto
          -104 1 85 -92 138 hhcurveto
          122 78 64 81 61 -58 42 -58 -65 -28 -49 -45 -37 15 -30 16 -21 hvcurveto
          -17 -1 -18 1 -17 2 rrcurveto
          -73 6 -45 46 69 vvcurveto
          91 85 35 61 14 vhcurveto
          80 15 97 21 98 vvcurveto
          58 -40 75 -69 vhcurveto
          -46 -102 -35 -20 hhcurveto
          -15 -20 18 34 46 34 14 115 hvcurveto
          47 9 -3 24 hhcurveto
          11 22 29 16 hvcurveto
          endchar
        </CharString>
        <CharString name="dvDD_R">
          -69 406 -163 rmoveto
          12 6 25 25 7 14 -159 118 rcurveline
          99 4 76 61 88 vvcurveto
          57 -43 85 -70 vhcurveto
          19 callgsubr
          112 114 vlineto
          6 callgsubr
          61 -83 75 -51 81 -13 -181 -111 rcurveline
          7 -19 29 -37 17 -11 162 121 rcurveline
          50 -96 15 callsubr
          endchar
        </CharString>
        <CharString name="dvDD_RA">
          -73 411 537 rmoveto
          114 hlineto
          6 callgsubr
          64 -87 79 -51 85 -10 -178 -110 rcurveline
          8 -19 29 -37 17 -11 162 121 rcurveline
          134 -109 12 6 26 25 6 14 rlinecurve
          -160 119 rlineto
          93 9 69 59 84 vvcurveto
          57 -43 85 -70 vhcurveto
          19 callgsubr
          endchar
        </CharString>
        <CharString name="dvDD_VA">
          -49 345 -43 rmoveto
          -43 -34 -49 -21 -46 hhcurveto
          -54 -37 31 44 62 58 37 75 6 hvcurveto
          4 9 1 5 hhcurveto
          25 1 23 4 21 6 rrcurveto
          60 452 rmoveto
          139 -85 callsubr
          -555 165 callgsubr
          -58 -115 hlineto
          -93 -46 -39 -66 -76 76 -65 53 hvcurveto
          44 78 34 34 hhcurveto
          24 18 -15 -23 -39 -51 -46 -95 -79 -52 30 70 -58 hvcurveto
          -13 -8 -16 -12 -8 -13 34 -46 38 -33 39 -22 rrcurveto
          -56 -24 -34 -44 -57 vvcurveto
          -76 67 -80 113 46 37 12 18 31 vhcurveto
          -96 vlineto
          -16 39 -20 37 vhcurveto
          399 vlineto
          22 22 13 27 31 vvcurveto
          49 -39 84 -72 -51 -91 -35 -1 -21 vhcurveto
          -18 -1 -20 18 33 vvcurveto
          46 40 10 98 vhcurveto
          52 11 -3 26 hhcurveto
          12 22 28 17 hvcurveto
          endchar
        </CharString>
        <CharString name="dvDD_YA">
          533 903 212 rmoveto
          -29 -28 -45 -24 -59 hhcurveto
          -72 -49 32 50 -26 hvcurveto
          98 24 46 58 54 vvcurveto
          59 -51 41 -68 -104 -92 -95 -108 -53 vhcurveto
          13 -16 -19 8 -22 19 callgsubr
          112 502 vlineto
          223 268 callgsubr
          -1146 hlineto
          -28 12 -29 14 -17 vhcurveto
          339 -81 -119 hlineto
          -87 -52 -37 -72 -89 76 -73 57 hvcurveto
          178 callsubr
          17 -4 20 -7 19 hvcurveto
          96 36 75 114 94 hhcurveto
          30 21 -11 -22 -39 -62 -33 -87 -19 hvcurveto
          -104 16 70 -110 144 hhcurveto
          52 41 16 17 28 hvcurveto
          -98 -89 callgsubr
        </CharString>
        <CharString name="dvDDxA">
          -82 269 -43 rmoveto
          413 callgsubr
          -14 41 -49 16 15 49 44 10 376 callgsubr
          140 580 rmoveto
          114 -70 callgsubr
          -535 hlineto
          -28 12 -29 14 -17 vhcurveto
          339 -81 -119 hlineto
          -87 -52 -37 -72 -89 76 -73 57 hvcurveto
          59 callgsubr
        </CharString>
        <CharString name="dvDH">
          -117 475 -30 callsubr
          -87 hlineto
          1 -28 11 -92 callsubr
          rrcurveto
          102 -256 rmoveto
          -57 -31 -73 -55 -71 -11 callgsubr
          -95 -56 -66 -72 -58 39 -57 75 314 callgsubr
          78 79 36 54 46 vhcurveto
          endchar
        </CharString>
        <CharString name="dvDHA">
          92 685 -64 callgsubr
          -308 267 callsubr
          82 -284 hlineto
          -48 -36 -60 -36 -58 39 callgsubr
          58 50 17 27 42 vhcurveto
          -131 -40 callsubr
        </CharString>
        <CharString name="dvDH_MA">
          424 794 312 callsubr
          377 callsubr
          -11 29 -15 18 vhcurveto
          -632 -107 callgsubr
          108 468 callgsubr
          -10 -15 rrcurveto
          -3 -5 -2 -12 -10 vvcurveto
          -11 5 -14 9 -15 vhcurveto
          -24 -33 -40 -16 -42 39 callgsubr
          57 58 19 31 44 vhcurveto
          -14 17 17 -9 12 182 callsubr
          42 36 -1 34 hhcurveto
          37 -1 35 -2 33 -3 rrcurveto
          -211 -40 callsubr
        </CharString>
        <CharString name="dvDH_NA">
          98 691 -58 callsubr
          -307 267 callsubr
          82 -283 hlineto
          -49 -36 -60 -36 -59 hhcurveto
          -54 -37 30 44 56 67 33 75 15 callgsubr
          -63 -95 -57 -66 -72 -58 40 173 callgsubr
          -67 41 -49 59 -21 vhcurveto
          -61 -27 -27 -14 -20 241 callsubr
          -1 22 17 10 vvcurveto
          295 callsubr
          210 101 411 callsubr
        </CharString>
        <CharString name="dvDH_N_YA">
          422 792 -94 callgsubr
          7 callsubr
          -630 hlineto
          -28 12 338 callsubr
          5 -30 9 -31 14 -28 rrcurveto
          -43 -37 -55 -30 -55 77 callsubr
          -95 -56 -66 -72 -58 39 -57 74 -27 vhcurveto
          -21 -24 -13 -29 -36 vvcurveto
          -65 40 -49 57 -22 vhcurveto
          -59 -26 -28 -14 -20 -20 7 -26 rlinecurve
          10 -47 61 -54 25 -1 16 -1 21 17 1 10 295 callsubr
          259 122 rcurveline
          -34 38 51 -22 67 -68 callsubr
        </CharString>
        <CharString name="dvDH_R">
          -129 438 611 rmoveto
          -82 267 callsubr
          80 -70 callgsubr
          -114 -196 rmoveto
          -36 -9 -33 -11 -27 -15 rrcurveto
          -39 10 -44 36 60 vvcurveto
          53 36 35 35 324 callsubr
          -14 -14 -28 462 callsubr
          31 35 40 vvcurveto
          53 -42 32 -63 -95 -56 -66 -72 -58 37 -57 75 -28 vhcurveto
          -21 -24 -12 -28 -36 vvcurveto
          -77 56 -52 71 -14 vhcurveto
          -141 -74 269 callgsubr
          rlinecurve
          342 204 -24 117 rlineto
          -64 -29 -79 -59 -71 228 callgsubr
          rrcurveto
          endchar
        </CharString>
        <CharString name="dvDH_RA">
          101 689 -58 callsubr
          -307 267 callsubr
          86 -284 hlineto
          -48 -36 -60 -36 -58 156 callgsubr
          -14 -14 -28 462 callsubr
          31 35 40 vvcurveto
          53 -42 350 callsubr
          -76 53 -52 73 -17 vhcurveto
          -140 -72 269 callgsubr
          rlinecurve
          293 175 rlineto
          -130 -104 callgsubr
        </CharString>
        <CharString name="dvDH_VA">
          409 779 37 callgsubr
          228 188 -92 callgsubr
          -630 hlineto
          1 -28 11 -92 callsubr
          rrcurveto
          401 -12 callgsubr
          -91 -96 -54 -116 -16 2 -17 4 -16 hvcurveto
          -41 -37 -56 -33 -55 -11 callsubr
          -95 -56 -66 -72 -58 39 -57 74 -27 vhcurveto
          -21 -24 -13 -29 -36 vvcurveto
          -92 78 -58 97 66 67 25 40 46 vhcurveto
          -43 34 53 -30 69 hhcurveto
          58 -38 callsubr
        </CharString>
        <CharString name="dvDH_YA">
          423 792 -94 callgsubr
          7 callsubr
          -629 -79 callsubr
          141 14 callsubr
          5 -29 8 -29 13 -27 rrcurveto
          -43 -36 -57 -34 -56 hhcurveto
          -55 -37 31 44 55 68 33 74 19 hvcurveto
          -7 24 -20 26 -15 15 -35 -8 -33 -12 -28 -15 rrcurveto
          -41 11 -42 36 58 vvcurveto
          54 36 34 35 316 callgsubr
          10 -14 8 -6 rrcurveto
          57 19 219 callgsubr
          -41 32 -63 -95 -56 -66 -72 -59 39 -56 74 -27 vhcurveto
          -21 -23 -13 -30 -36 vvcurveto
          -92 78 -58 97 72 72 31 45 47 vhcurveto
          -40 38 55 -27 74 hhcurveto
          53 41 16 17 28 hvcurveto
          -129 -40 callsubr
        </CharString>
        <CharString name="dvD_BA">
          -31 223 48 rmoveto
          9 29 34 3 29 hhcurveto
          446 callsubr
          -4 -42 -16 -41 -25 -29 rrcurveto
          -40 -33 rmoveto
          -9 -17 -19 -5 -21 hhcurveto
          -40 -41 22 50 24 10 18 16 13 hvcurveto
          231 514 rmoveto
          158 -85 callsubr
          -574 13 callgsubr
          -72 62 -66 94 104 76 86 91 10 vhcurveto
          14 -21 16 -32 -73 callsubr
        </CharString>
        <CharString name="dvD_BHA">
          219 659 537 rmoveto
          154 -41 callgsubr
          -822 -79 callsubr
          586 -80 hlineto
          1 -16 -18 1 -17 hhcurveto
          -154 -87 -71 -120 -92 66 -84 96 -31 hvcurveto
          -112 -45 -46 98 rlineto
          84 -38 -55 33 -56 hhcurveto
          -64 -64 -44 -70 -69 54 -43 75 -11 hvcurveto
          19 -4 21 -3 26 2 4 9 0 20 -1 13 rrcurveto
          -75 6 -53 34 50 vvcurveto
          31 18 21 32 38 27 -41 -56 26 vhcurveto
          43 -91 -51 -24 -15 -23 14 -28 rlinecurve
          22 -47 75 -27 31 1 14 1 16 6 6 18 6 18 -6 48 -12 31 51 23 108 46 75 30 14 4 12 5 12 6 10 4 rcurveline
          31 -47 19 -43 27 -53 23 9 39 30 10 16 -20 36 -43 45 -45 41 rrcurveto
          22 24 13 30 34 vvcurveto
          41 -19 27 -30 -31 -57 -28 -44 -13 5 -22 14 -17 vhcurveto
          -13 -20 -32 -8 -33 hhcurveto
          -83 -80 36 91 98 77 38 113 44 16 -4 -1 12 hvcurveto
          14 2 26 480 callsubr
        </CharString>
        <CharString name="dvD_B_RA">
          -31 223 48 rmoveto
          9 29 34 3 29 hhcurveto
          446 callsubr
          -4 -42 -16 -41 -25 -29 rrcurveto
          -40 -33 rmoveto
          -9 -17 -19 -5 -21 hhcurveto
          -40 -41 22 50 24 10 18 16 13 hvcurveto
          231 514 rmoveto
          158 -85 callsubr
          -574 13 callgsubr
          -53 34 -51 56 -22 vhcurveto
          -113 -53 5 -21 25 -32 16 -10 rlinecurve
          209 121 64 29 43 64 7 67 rlinecurve
          14 -21 16 -32 -73 callsubr
        </CharString>
        <CharString name="dvD_DA">
          -57 365 537 rmoveto
          171 -85 callsubr
          -547 -107 callgsubr
          296 -56 hlineto
          1 -12 -51 0 -12 hhcurveto
          -106 -55 -40 -62 -47 29 -38 37 -34 hvcurveto
          -40 -23 -26 -35 -50 vvcurveto
          -95 92 -67 104 48 42 12 20 32 vhcurveto
          36 -52 19 -45 31 -59 23 9 38 30 10 17 -21 40 -49 48 -48 44 rrcurveto
          17 22 10 24 26 vvcurveto
          37 -15 29 -28 -27 -57 -22 -40 -14 5 -19 13 -15 vhcurveto
          -13 -18 -31 -10 -39 hhcurveto
          -69 -42 24 56 81 114 14 111 3 hvcurveto
          -2 24 -12 30 -14 15 -54 -1 -56 -7 -47 -15 rrcurveto
          -23 20 -18 24 29 vvcurveto
          35 23 19 90 vhcurveto
          30 44 -4 20 hhcurveto
          13 20 29 19 hvcurveto
          endchar
        </CharString>
        <CharString name="dvD_DHA">
          -31 229 -104 rmoveto
          -40 -41 22 50 73 95 19 72 446 callsubr
          -84 -8 -55 -75 -79 hhcurveto
          176 641 rmoveto
          158 -85 callsubr
          -574 13 callgsubr
          -72 62 -66 94 104 76 86 91 10 vhcurveto
          14 -21 16 -32 -73 callsubr
        </CharString>
        <CharString name="dvD_GA">
          -35 404 537 rmoveto
          155 -70 callgsubr
          -569 297 callgsubr
          -89 59 -81 84 -37 hvcurveto
          -91 vlineto
          -41 -1 -28 344 callsubr
          67 -72 40 13 11 288 callgsubr
          15 16 9 36 42 vvcurveto
          131 vlineto
          -1 7 7 0 7 hhcurveto
          46 42 11 18 33 hvcurveto
          62 callsubr
        </CharString>
        <CharString name="dvD_GHA">
          153 400 -104 rmoveto
          -45 -38 24 47 74 92 19 76 24 17 -2 -3 16 hvcurveto
          -85 -9 -54 -74 -79 hhcurveto
          -214 116 rmoveto
          -55 -34 29 43 39 27 36 66 17 20 -3 -10 18 hvcurveto
          18 -23 26 -21 27 -14 rrcurveto
          -39 -26 -47 -37 -57 hhcurveto
          390 525 rmoveto
          170 -85 callsubr
          -757 -107 callgsubr
          504 -76 166 callgsubr
          -154 -87 -82 -110 -22 4 -20 6 -19 hvcurveto
          4 -14 -16 3 -16 hhcurveto
          -77 -59 -48 -71 -68 52 -72 101 25 24 4 8 21 hvcurveto
          -71 3 61 -63 91 hhcurveto
          107 74 89 90 10 hvcurveto
          13 -21 17 -34 -73 callsubr
        </CharString>
        <CharString name="dvD_G_RA">
          -36 404 537 rmoveto
          154 -70 callgsubr
          -568 297 callgsubr
          -70 36 -65 56 -42 hvcurveto
          -108 vlineto
          -40 -30 -9 17 callgsubr
          -39 67 -74 37 10 15 4 7 7 vhcurveto
          15 16 10 39 44 vvcurveto
          124 vlineto
          -7 23 25 -4 26 hhcurveto
          16 15 1 3 14 hvcurveto
          -182 vlineto
          -274 -167 7 -21 25 -32 14 -10 rlinecurve
          228 158 rlineto
          -73 vlineto
          -17 36 -19 39 vhcurveto
          388 1 vlineto
          62 callsubr
        </CharString>
        <CharString name="dvD_MA">
          -558 endchar
        </CharString>
        <CharString name="dvD_NA">
          -25 413 537 rmoveto
          156 -70 callgsubr
          -579 -107 callgsubr
          341 -84 hlineto
          2 -17 -17 1 -19 hhcurveto
          -152 -88 -80 -118 -97 69 -88 97 -31 hvcurveto
          -94 -39 -28 -14 -19 241 callsubr
          22 16 10 hvcurveto
          295 callsubr
          194 92 rcurveline
          5 3 5 2 5 3 6 2 rcurveline
          30 -47 20 -43 28 -53 22 305 callgsubr
          -44 44 -43 41 rrcurveto
          22 25 12 30 34 vvcurveto
          40 -18 27 -31 -31 -57 -28 -44 -13 6 -21 13 -18 vhcurveto
          -13 -20 -31 -8 -35 461 callsubr
          18 -4 -1 14 hvcurveto
          11 2 27 480 callsubr
        </CharString>
        <CharString name="dvD_R">
          -22 callsubr
          39 -528 157 callgsubr
          7 12 11 7 11 412 callgsubr
        </CharString>
        <CharString name="dvD_RA">
          -22 callsubr
          endchar
        </CharString>
        <CharString name="dvD_VA">
          -34 229 -104 rmoveto
          -40 -41 22 50 73 95 19 72 446 callsubr
          -84 -8 -55 -75 -79 hhcurveto
          176 641 rmoveto
          155 -70 callgsubr
          -570 13 callgsubr
          -72 62 -66 94 104 76 86 91 10 vhcurveto
          14 -21 16 -32 -73 callsubr
        </CharString>
        <CharString name="dvD_YA">
          63 433 169 rmoveto
          -37 -37 -63 -39 -83 hhcurveto
          -62 -39 22 45 58 86 28 100 8 hvcurveto
          -2 24 -18 32 -13 15 -40 -3 -47 -8 -41 -17 rrcurveto
          -25 21 -15 23 24 vvcurveto
          27 24 19 43 vhcurveto
          99 hlineto
          13 21 27 19 hvcurveto
          80 99 172 callsubr
          -667 -107 callgsubr
          266 -52 -65 hlineto
          -77 -55 -30 -71 -45 30 -35 39 -31 hvcurveto
          -33 -24 -22 -33 -44 vvcurveto
          -86 77 -55 108 75 58 22 27 42 vhcurveto
          -76 vlineto
          -17 43 -19 39 vhcurveto
          569 vlineto
          endchar
        </CharString>
        <CharString name="dvE">
          -4 171 537 281 callgsubr
          20 -36 15 -12 rrcurveto
          63 24 50 46 76 vvcurveto
          207 125 167 callsubr
          -600 -4 callsubr
        </CharString>
        <CharString name="dvEcandra">
          -4 278 702 rmoveto
          98 74 71 72 34 hvcurveto
          -18 17 -32 22 439 callsubr
          80 -46 hvcurveto
          -15 -5 -20 -10 -13 -11 rrcurveto
          -77 33 67 -79 106 hhcurveto
          -107 -165 281 callgsubr
          20 -36 15 -12 rrcurveto
          63 24 50 46 76 vvcurveto
          207 125 167 callsubr
          -600 -4 callsubr
        </CharString>
        <CharString name="dvEight">
          -106 422 100 rmoveto
          -10 20 -19 26 -22 16 rrcurveto
          -45 -36 -48 -25 -52 hhcurveto
          -55 -50 41 68 94 93 162 88 118 hvcurveto
          -12 17 -36 24 -19 9 rrcurveto
          -67 -96 -112 -158 -148 vvcurveto
          -118 72 -85 115 76 65 38 42 29 vhcurveto
          endchar
        </CharString>
        <CharString name="dvEyelash">
          -276 292 611 rmoveto
          -328 -107 callgsubr
          327 hlineto
          23 -11 33 -89 callsubr
          48 -266 rmoveto
          -25 -33 -51 -10 -55 hhcurveto
          -41 -41 8 14 -29 hvcurveto
          -28 -45 rlineto
          -29 42 69 -15 64 hhcurveto
          41 38 6 12 30 hvcurveto
          endchar
        </CharString>
        <CharString name="dvEyelash_HA">
          2 453 490 callgsubr
          105 vlineto
          -101 callgsubr
          -602 -79 callsubr
          415 -86 -102 hlineto
          -123 -28 -47 -47 -5 0 -5 1 -5 hvcurveto
          -9 -25 -30 -6 -38 hhcurveto
          -42 -58 9 15 -34 hvcurveto
          -30 -45 rlineto
          -31 46 83 -18 62 hhcurveto
          36 36 5 9 27 hvcurveto
          10 -13 12 -13 13 -11 221 callgsubr
          57 42 76 276 callgsubr
          -120 -34 352 callsubr
        </CharString>
        <CharString name="dvEyelash_YA">
          105 475 250 rmoveto
          -32 -25 -42 -30 -65 hhcurveto
          -76 -49 45 54 -25 hvcurveto
          93 23 46 57 76 vvcurveto
          34 -13 33 -21 27 vhcurveto
          177 hlineto
          221 268 callgsubr
          -713 -107 callgsubr
          230 hlineto
          24 -28 14 -30 -28 vvcurveto
          -80 -85 -28 -70 -9 vhcurveto
          -37 -5 -80 6 -44 19 -29 -45 rcurveline
          -30 43 82 -19 58 hhcurveto
          20 17 2 2 10 hvcurveto
          -82 33 68 -70 116 hhcurveto
          54 40 17 18 28 hvcurveto
          -131 -89 callgsubr
        </CharString>
        <CharString name="dvFive">
          -9 405 229 rmoveto
          13 20 7 25 27 vvcurveto
          45 -22 18 -18 -29 -47 -28 -37 -14 9 -21 11 -15 vhcurveto
          -13 -22 -28 -8 -29 hhcurveto
          -73 -31 52 63 96 61 85 45 51 hvcurveto
          -15 19 -28 22 -21 9 rrcurveto
          -63 -65 -47 -94 -99 vvcurveto
          -123 67 -94 114 40 41 14 26 31 vhcurveto
          42 -64 46 -92 24 -54 24 9 40 27 10 16 -23 43 -78 104 -51 50 rrcurveto
          endchar
        </CharString>
        <CharString name="dvFour">
          92 324 106 rmoveto
          -47 -22 25 33 40 36 46 41 44 hvcurveto
          42 -44 34 -42 -40 vvcurveto
          -42 -43 -20 -41 vhcurveto
          239 466 rmoveto
          -14 18 -31 20 -24 7 -19 -57 -92 -99 -57 -61 -47 51 -33 38 -135 171 -16 -5 -35 -25 -7 -12 60 -88 40 -50 127 -132 rrcurveto
          -45 -52 -43 -66 -63 vvcurveto
          -77 62 -60 83 74 56 47 81 69 -39 57 -50 58 vhcurveto
          99 98 75 71 11 61 rrcurveto
          endchar
        </CharString>
        <CharString name="dvG">
          -272 321 -64 callgsubr
          -332 -107 callgsubr
          126 -189 -28 callgsubr
          9 36 44 vvcurveto
          250 vlineto
          endchar
        </CharString>
        <CharString name="dvGA">
          6 599 -64 callgsubr
          -610 -107 callgsubr
          126 -189 -28 callgsubr
          9 36 44 vvcurveto
          250 177 -521 -104 callgsubr
        </CharString>
        <CharString name="dvGH">
          -196 437 288 rmoveto
          -65 -31 -76 -53 -70 179 callgsubr
          265 -70 callgsubr
          -410 -107 callgsubr
          59 hlineto
          -10 -16 -6 -19 -25 vvcurveto
          -54 28 -48 69 -25 vhcurveto
          -25 -25 -15 -31 -41 vvcurveto
          -91 78 -59 101 74 68 31 45 46 vhcurveto
          endchar
        </CharString>
        <CharString name="dvGHA">
          43 413 247 rmoveto
          -45 -37 -59 -32 -55 59 callsubr
          275 292 callgsubr
          -647 -107 callgsubr
          61 141 callgsubr
          53 48 16 24 40 vhcurveto
          -127 -89 callgsubr
        </CharString>
        <CharString name="dvGH_MA">
          376 745 298 11 callgsubr
          -300 hmoveto
          -236 vlineto
          -40 -1 -30 106 callgsubr
          -12 6 -14 9 -15 vhcurveto
          -23 -35 -41 -15 -37 59 callsubr
          831 -60 callgsubr
          -977 -79 callsubr
          59 141 callgsubr
          58 53 20 28 42 vhcurveto
          -13 15 16 -8 12 hhcurveto
          13 16 4 9 7 hvcurveto
          -34 callgsubr
        </CharString>
        <CharString name="dvGH_NA">
          37 406 247 rmoveto
          -45 -38 -58 -32 -54 179 callgsubr
          275 hlineto
          7 callsubr
          -641 -79 callsubr
          56 hlineto
          -9 -16 -6 -19 -25 vvcurveto
          -54 28 -48 68 -25 vhcurveto
          -25 -25 -15 -31 -41 vvcurveto
          -67 42 -49 62 -22 vhcurveto
          -63 -27 -27 -14 -20 -19 7 -27 rlinecurve
          415 callgsubr
          19 -12 50 -5 21 vhcurveto
          202 97 rlineto
          -124 -104 callgsubr
        </CharString>
        <CharString name="dvGH_R">
          -192 444 297 rmoveto
          -65 -30 -82 -60 -72 181 callgsubr
          263 -85 callsubr
          -409 260 callgsubr
          -78 59 -51 75 -12 vhcurveto
          -128 -64 7 -24 16 -29 16 -16 rlinecurve
          333 198 rlineto
          endchar
        </CharString>
        <CharString name="dvGH_RA">
          43 412 251 rmoveto
          -46 -37 -58 -33 -57 181 callgsubr
          276 292 callsubr
          -646 260 callgsubr
          -77 57 -51 75 -15 vhcurveto
          -126 -62 7 -24 16 -29 16 -16 rlinecurve
          277 165 rlineto
          -131 -104 callgsubr
        </CharString>
        <CharString name="dvGH_YA">
          400 770 -61 callgsubr
          -264 hmoveto
          -13 callgsubr
          -64 -40 -35 -98 -21 vhcurveto
          4 -22 6 -23 8 -21 rrcurveto
          -54 -35 -63 -41 -66 59 callsubr
          856 268 callgsubr
          -1001 -79 callsubr
          59 141 callgsubr
          74 74 34 53 50 vhcurveto
          -46 40 57 -32 80 104 callsubr
        </CharString>
        <CharString name="dvG_BA">
          269 456 -21 callgsubr
          451 190 -72 callsubr
          -872 -90 callgsubr
          440 -126 vlineto
          27 -36 -49 24 -59 hhcurveto
          -89 -97 -54 -115 -101 72 -98 125 57 41 21 26 35 hvcurveto
          -125 -104 callgsubr
        </CharString>
        <CharString name="dvG_BHA">
          369 963 -30 callsubr
          -320 -107 callgsubr
          96 -243 hlineto
          -54 3 -111 4 -34 389 callgsubr
          -84 -24 -22 -4 -8 -19 vhcurveto
          -359 -90 callgsubr
          65 vlineto
          271 callgsubr
          -74 68 -53 77 -30 vhcurveto
          7 7 9 190 callsubr
          1 -45 0 -69 -1 -25 rrcurveto
          -61 -2 -25 -12 -33 vvcurveto
          -56 74 -60 26 -4 vhcurveto
          11 -3 21 2 9 7 15 10 11 46 2 37 56 1 77 -3 64 -5 rrcurveto
          -207 -89 callgsubr
        </CharString>
        <CharString name="dvG_BH_YA">
          647 1017 245 rmoveto
          -30 -28 -44 107 callsubr
          -64 -41 -35 -97 -21 vhcurveto
          1 -6 -49 1 rlineto
          -75 135 hlineto
          432 callgsubr
          -84 -24 -22 -4 -8 -19 vhcurveto
          -353 -107 callgsubr
          126 -175 480 callgsubr
          -8 -9 -16 341 callgsubr
          10 36 44 vvcurveto
          237 57 vlineto
          271 callgsubr
          -69 57 -46 75 -30 vhcurveto
          8 7 8 17 3 12 rrcurveto
          -42 24 -28 28 44 vvcurveto
          38 21 22 33 50 11 -49 -67 vhcurveto
          -127 vlineto
          -42 -30 -8 -20 -9 hvcurveto
          -2 -5 -2 -8 -9 vvcurveto
          -43 70 -72 32 -3 vhcurveto
          5 -1 7 0 7 1 8 1 8 2 6 5 rrcurveto
          13 12 13 44 37 vvcurveto
          30 1 26 0 26 -1 20 -1 20 0 21 -2 rrcurveto
          -78 34 69 -64 114 hhcurveto
          53 41 16 17 28 hvcurveto
          -129 -40 callsubr
        </CharString>
</ttFont>
